ISO-10303-21;
HEADER;
/* Generated by software containing ST-Developer
 * from STEP Tools, Inc. (www.steptools.com) 
 */
/* OPTION: using custom renumber hook */

FILE_DESCRIPTION(
/* description */ ('STEP AP203'),
/* implementation_level */ '2;1');

FILE_NAME(
/* name */ 'SKF_6000',
/* time_stamp */ '2023-07-02T06:35:50+02:00',
/* author */ ('License CC BY-ND 4.0'),
/* organization */ ('CADENAS'),
/* preprocessor_version */ 'ST-DEVELOPER v19.3',
/* originating_system */ 'PARTsolutions',
/* authorisation */ '  ');

FILE_SCHEMA (('CONFIG_CONTROL_DESIGN'));
ENDSEC;

DATA;
#10=PROPERTY_DEFINITION_REPRESENTATION(#14,#12);
#11=PROPERTY_DEFINITION_REPRESENTATION(#15,#13);
#12=REPRESENTATION('',(#16),#548);
#13=REPRESENTATION('',(#17),#548);
#14=PROPERTY_DEFINITION('pmi validation property','',#559);
#15=PROPERTY_DEFINITION('pmi validation property','',#559);
#16=VALUE_REPRESENTATION_ITEM('number of annotations',COUNT_MEASURE(0.));
#17=VALUE_REPRESENTATION_ITEM('number of views',COUNT_MEASURE(0.));
#18=CYLINDRICAL_SURFACE('',#338,10.6);
#19=CYLINDRICAL_SURFACE('',#342,10.6);
#20=CYLINDRICAL_SURFACE('',#350,13.);
#21=CYLINDRICAL_SURFACE('',#357,5.);
#22=CYLINDRICAL_SURFACE('',#365,7.4);
#23=CYLINDRICAL_SURFACE('',#369,7.4);
#24=PLANE('',#334);
#25=PLANE('',#346);
#26=PLANE('',#352);
#27=PLANE('',#361);
#28=ORIENTED_EDGE('',*,*,#68,.T.);
#29=ORIENTED_EDGE('',*,*,#69,.F.);
#30=ORIENTED_EDGE('',*,*,#70,.T.);
#31=ORIENTED_EDGE('',*,*,#68,.F.);
#32=ORIENTED_EDGE('',*,*,#71,.T.);
#33=ORIENTED_EDGE('',*,*,#70,.F.);
#34=ORIENTED_EDGE('',*,*,#72,.T.);
#35=ORIENTED_EDGE('',*,*,#71,.F.);
#36=ORIENTED_EDGE('',*,*,#72,.F.);
#37=ORIENTED_EDGE('',*,*,#73,.T.);
#38=ORIENTED_EDGE('',*,*,#74,.T.);
#39=ORIENTED_EDGE('',*,*,#73,.F.);
#40=ORIENTED_EDGE('',*,*,#75,.T.);
#41=ORIENTED_EDGE('',*,*,#74,.F.);
#42=ORIENTED_EDGE('',*,*,#76,.T.);
#43=ORIENTED_EDGE('',*,*,#75,.F.);
#44=ORIENTED_EDGE('',*,*,#77,.T.);
#45=ORIENTED_EDGE('',*,*,#76,.F.);
#46=ORIENTED_EDGE('',*,*,#69,.T.);
#47=ORIENTED_EDGE('',*,*,#77,.F.);
#48=ORIENTED_EDGE('',*,*,#78,.T.);
#49=ORIENTED_EDGE('',*,*,#79,.F.);
#50=ORIENTED_EDGE('',*,*,#80,.T.);
#51=ORIENTED_EDGE('',*,*,#78,.F.);
#52=ORIENTED_EDGE('',*,*,#81,.T.);
#53=ORIENTED_EDGE('',*,*,#80,.F.);
#54=ORIENTED_EDGE('',*,*,#82,.T.);
#55=ORIENTED_EDGE('',*,*,#81,.F.);
#56=ORIENTED_EDGE('',*,*,#83,.T.);
#57=ORIENTED_EDGE('',*,*,#82,.F.);
#58=ORIENTED_EDGE('',*,*,#84,.T.);
#59=ORIENTED_EDGE('',*,*,#83,.F.);
#60=ORIENTED_EDGE('',*,*,#85,.T.);
#61=ORIENTED_EDGE('',*,*,#84,.F.);
#62=ORIENTED_EDGE('',*,*,#85,.F.);
#63=ORIENTED_EDGE('',*,*,#86,.T.);
#64=ORIENTED_EDGE('',*,*,#87,.T.);
#65=ORIENTED_EDGE('',*,*,#86,.F.);
#66=ORIENTED_EDGE('',*,*,#79,.T.);
#67=ORIENTED_EDGE('',*,*,#87,.F.);
#68=EDGE_CURVE('',#202,#202,#88,.T.);
#69=EDGE_CURVE('',#203,#203,#89,.T.);
#70=EDGE_CURVE('',#204,#204,#90,.T.);
#71=EDGE_CURVE('',#205,#205,#91,.T.);
#72=EDGE_CURVE('',#206,#206,#92,.T.);
#73=EDGE_CURVE('',#207,#207,#93,.T.);
#74=EDGE_CURVE('',#208,#208,#94,.T.);
#75=EDGE_CURVE('',#209,#209,#95,.T.);
#76=EDGE_CURVE('',#210,#210,#96,.T.);
#77=EDGE_CURVE('',#211,#211,#97,.T.);
#78=EDGE_CURVE('',#212,#212,#98,.T.);
#79=EDGE_CURVE('',#213,#213,#99,.T.);
#80=EDGE_CURVE('',#214,#214,#100,.T.);
#81=EDGE_CURVE('',#215,#215,#101,.T.);
#82=EDGE_CURVE('',#216,#216,#102,.T.);
#83=EDGE_CURVE('',#217,#217,#103,.T.);
#84=EDGE_CURVE('',#218,#218,#104,.T.);
#85=EDGE_CURVE('',#219,#219,#105,.T.);
#86=EDGE_CURVE('',#220,#220,#106,.T.);
#87=EDGE_CURVE('',#221,#221,#107,.T.);
#88=CIRCLE('',#332,12.7);
#89=CIRCLE('',#333,13.);
#90=CIRCLE('',#335,10.7);
#91=CIRCLE('',#337,10.6);
#92=CIRCLE('',#339,10.6);
#93=CIRCLE('',#341,10.6);
#94=CIRCLE('',#343,10.6);
#95=CIRCLE('',#345,10.7);
#96=CIRCLE('',#347,12.7);
#97=CIRCLE('',#349,13.);
#98=CIRCLE('',#353,5.3);
#99=CIRCLE('',#354,7.3);
#100=CIRCLE('',#356,5.);
#101=CIRCLE('',#358,5.);
#102=CIRCLE('',#360,5.3);
#103=CIRCLE('',#362,7.3);
#104=CIRCLE('',#364,7.4);
#105=CIRCLE('',#366,7.4);
#106=CIRCLE('',#368,7.4);
#107=CIRCLE('',#370,7.4);
#108=EDGE_LOOP('',(#28));
#109=EDGE_LOOP('',(#29));
#110=EDGE_LOOP('',(#30));
#111=EDGE_LOOP('',(#31));
#112=EDGE_LOOP('',(#32));
#113=EDGE_LOOP('',(#33));
#114=EDGE_LOOP('',(#34));
#115=EDGE_LOOP('',(#35));
#116=EDGE_LOOP('',(#36));
#117=EDGE_LOOP('',(#37));
#118=EDGE_LOOP('',(#38));
#119=EDGE_LOOP('',(#39));
#120=EDGE_LOOP('',(#40));
#121=EDGE_LOOP('',(#41));
#122=EDGE_LOOP('',(#42));
#123=EDGE_LOOP('',(#43));
#124=EDGE_LOOP('',(#44));
#125=EDGE_LOOP('',(#45));
#126=EDGE_LOOP('',(#46));
#127=EDGE_LOOP('',(#47));
#128=EDGE_LOOP('',(#48));
#129=EDGE_LOOP('',(#49));
#130=EDGE_LOOP('',(#50));
#131=EDGE_LOOP('',(#51));
#132=EDGE_LOOP('',(#52));
#133=EDGE_LOOP('',(#53));
#134=EDGE_LOOP('',(#54));
#135=EDGE_LOOP('',(#55));
#136=EDGE_LOOP('',(#56));
#137=EDGE_LOOP('',(#57));
#138=EDGE_LOOP('',(#58));
#139=EDGE_LOOP('',(#59));
#140=EDGE_LOOP('',(#60));
#141=EDGE_LOOP('',(#61));
#142=EDGE_LOOP('',(#62));
#143=EDGE_LOOP('',(#63));
#144=EDGE_LOOP('',(#64));
#145=EDGE_LOOP('',(#65));
#146=EDGE_LOOP('',(#66));
#147=EDGE_LOOP('',(#67));
#148=TOROIDAL_SURFACE('',#331,12.7,0.300000000000002);
#149=TOROIDAL_SURFACE('',#336,10.7,0.0999999999999974);
#150=TOROIDAL_SURFACE('',#340,8.9,2.381);
#151=TOROIDAL_SURFACE('',#344,10.7,0.100000000000001);
#152=TOROIDAL_SURFACE('',#348,12.7,0.300000000000002);
#153=TOROIDAL_SURFACE('',#355,5.3,0.300000000000002);
#154=TOROIDAL_SURFACE('',#359,5.3,0.300000000000003);
#155=TOROIDAL_SURFACE('',#363,7.3,0.0999999999999994);
#156=TOROIDAL_SURFACE('',#367,8.9,2.381);
#157=TOROIDAL_SURFACE('',#371,7.3,0.0999999999999994);
#158=COLOUR_RGB('',0.689999997615814,0.689999997615814,0.689999997615814);
#159=CONTEXT_DEPENDENT_SHAPE_REPRESENTATION(#177,#561);
#160=CONTEXT_DEPENDENT_SHAPE_REPRESENTATION(#178,#562);
#161=CONTEXT_DEPENDENT_SHAPE_REPRESENTATION(#179,#563);
#162=CONTEXT_DEPENDENT_SHAPE_REPRESENTATION(#180,#564);
#163=CONTEXT_DEPENDENT_SHAPE_REPRESENTATION(#181,#565);
#164=CONTEXT_DEPENDENT_SHAPE_REPRESENTATION(#182,#566);
#165=CONTEXT_DEPENDENT_SHAPE_REPRESENTATION(#183,#567);
#166=CONTEXT_DEPENDENT_SHAPE_REPRESENTATION(#184,#569);
#167=CONTEXT_DEPENDENT_SHAPE_REPRESENTATION(#185,#571);
#168=NEXT_ASSEMBLY_USAGE_OCCURRENCE('NAUO1','SKF_6000_ball1',
'SKF_6000_ball1',#572,#573,'');
#169=NEXT_ASSEMBLY_USAGE_OCCURRENCE('NAUO2','SKF_6000_ball1',
'SKF_6000_ball1',#572,#573,'');
#170=NEXT_ASSEMBLY_USAGE_OCCURRENCE('NAUO3','SKF_6000_ball1',
'SKF_6000_ball1',#572,#573,'');
#171=NEXT_ASSEMBLY_USAGE_OCCURRENCE('NAUO4','SKF_6000_ball1',
'SKF_6000_ball1',#572,#573,'');
#172=NEXT_ASSEMBLY_USAGE_OCCURRENCE('NAUO5','SKF_6000_ball1',
'SKF_6000_ball1',#572,#573,'');
#173=NEXT_ASSEMBLY_USAGE_OCCURRENCE('NAUO6','SKF_6000_ball1',
'SKF_6000_ball1',#572,#573,'');
#174=NEXT_ASSEMBLY_USAGE_OCCURRENCE('NAUO7','SKF_6000_ball1',
'SKF_6000_ball1',#572,#573,'');
#175=NEXT_ASSEMBLY_USAGE_OCCURRENCE('NAUO8','SKF_6000_or','SKF_6000_or',
#572,#574,'');
#176=NEXT_ASSEMBLY_USAGE_OCCURRENCE('NAUO9','SKF_6000_ir','SKF_6000_ir',
#572,#575,'');
#177=(
REPRESENTATION_RELATIONSHIP(' ',' ',#319,#318)
REPRESENTATION_RELATIONSHIP_WITH_TRANSFORMATION(#186)
SHAPE_REPRESENTATION_RELATIONSHIP()
);
#178=(
REPRESENTATION_RELATIONSHIP(' ',' ',#319,#318)
REPRESENTATION_RELATIONSHIP_WITH_TRANSFORMATION(#187)
SHAPE_REPRESENTATION_RELATIONSHIP()
);
#179=(
REPRESENTATION_RELATIONSHIP(' ',' ',#319,#318)
REPRESENTATION_RELATIONSHIP_WITH_TRANSFORMATION(#188)
SHAPE_REPRESENTATION_RELATIONSHIP()
);
#180=(
REPRESENTATION_RELATIONSHIP(' ',' ',#319,#318)
REPRESENTATION_RELATIONSHIP_WITH_TRANSFORMATION(#189)
SHAPE_REPRESENTATION_RELATIONSHIP()
);
#181=(
REPRESENTATION_RELATIONSHIP(' ',' ',#319,#318)
REPRESENTATION_RELATIONSHIP_WITH_TRANSFORMATION(#190)
SHAPE_REPRESENTATION_RELATIONSHIP()
);
#182=(
REPRESENTATION_RELATIONSHIP(' ',' ',#319,#318)
REPRESENTATION_RELATIONSHIP_WITH_TRANSFORMATION(#191)
SHAPE_REPRESENTATION_RELATIONSHIP()
);
#183=(
REPRESENTATION_RELATIONSHIP(' ',' ',#319,#318)
REPRESENTATION_RELATIONSHIP_WITH_TRANSFORMATION(#192)
SHAPE_REPRESENTATION_RELATIONSHIP()
);
#184=(
REPRESENTATION_RELATIONSHIP(' ',' ',#320,#318)
REPRESENTATION_RELATIONSHIP_WITH_TRANSFORMATION(#193)
SHAPE_REPRESENTATION_RELATIONSHIP()
);
#185=(
REPRESENTATION_RELATIONSHIP(' ',' ',#321,#318)
REPRESENTATION_RELATIONSHIP_WITH_TRANSFORMATION(#194)
SHAPE_REPRESENTATION_RELATIONSHIP()
);
#186=ITEM_DEFINED_TRANSFORMATION(' ',' ',#322,#324);
#187=ITEM_DEFINED_TRANSFORMATION(' ',' ',#322,#325);
#188=ITEM_DEFINED_TRANSFORMATION(' ',' ',#322,#326);
#189=ITEM_DEFINED_TRANSFORMATION(' ',' ',#322,#327);
#190=ITEM_DEFINED_TRANSFORMATION(' ',' ',#322,#328);
#191=ITEM_DEFINED_TRANSFORMATION(' ',' ',#322,#329);
#192=ITEM_DEFINED_TRANSFORMATION(' ',' ',#322,#330);
#193=ITEM_DEFINED_TRANSFORMATION(' ',' ',#322,#351);
#194=ITEM_DEFINED_TRANSFORMATION(' ',' ',#322,#372);
#195=SHAPE_REPRESENTATION_RELATIONSHIP('','',#319,#198);
#196=SHAPE_REPRESENTATION_RELATIONSHIP('','',#320,#199);
#197=SHAPE_REPRESENTATION_RELATIONSHIP('','',#321,#200);
#198=ADVANCED_BREP_SHAPE_REPRESENTATION('',(#311),#549);
#199=ADVANCED_BREP_SHAPE_REPRESENTATION('',(#312),#550);
#200=ADVANCED_BREP_SHAPE_REPRESENTATION('',(#313),#551);
#201=VERTEX_POINT('',#477);
#202=VERTEX_POINT('',#487);
#203=VERTEX_POINT('',#489);
#204=VERTEX_POINT('',#492);
#205=VERTEX_POINT('',#495);
#206=VERTEX_POINT('',#498);
#207=VERTEX_POINT('',#501);
#208=VERTEX_POINT('',#504);
#209=VERTEX_POINT('',#507);
#210=VERTEX_POINT('',#510);
#211=VERTEX_POINT('',#513);
#212=VERTEX_POINT('',#518);
#213=VERTEX_POINT('',#520);
#214=VERTEX_POINT('',#523);
#215=VERTEX_POINT('',#526);
#216=VERTEX_POINT('',#529);
#217=VERTEX_POINT('',#532);
#218=VERTEX_POINT('',#535);
#219=VERTEX_POINT('',#538);
#220=VERTEX_POINT('',#541);
#221=VERTEX_POINT('',#544);
#222=VERTEX_LOOP('',#201);
#223=FACE_BOUND('',#222,.T.);
#224=FACE_BOUND('',#108,.T.);
#225=FACE_BOUND('',#109,.T.);
#226=FACE_BOUND('',#110,.T.);
#227=FACE_BOUND('',#111,.T.);
#228=FACE_BOUND('',#112,.T.);
#229=FACE_BOUND('',#113,.T.);
#230=FACE_BOUND('',#114,.T.);
#231=FACE_BOUND('',#115,.T.);
#232=FACE_BOUND('',#116,.T.);
#233=FACE_BOUND('',#117,.T.);
#234=FACE_BOUND('',#118,.T.);
#235=FACE_BOUND('',#119,.T.);
#236=FACE_BOUND('',#120,.T.);
#237=FACE_BOUND('',#121,.T.);
#238=FACE_BOUND('',#122,.T.);
#239=FACE_BOUND('',#123,.T.);
#240=FACE_BOUND('',#124,.T.);
#241=FACE_BOUND('',#125,.T.);
#242=FACE_BOUND('',#126,.T.);
#243=FACE_BOUND('',#127,.T.);
#244=FACE_BOUND('',#128,.T.);
#245=FACE_BOUND('',#129,.T.);
#246=FACE_BOUND('',#130,.T.);
#247=FACE_BOUND('',#131,.T.);
#248=FACE_BOUND('',#132,.T.);
#249=FACE_BOUND('',#133,.T.);
#250=FACE_BOUND('',#134,.T.);
#251=FACE_BOUND('',#135,.T.);
#252=FACE_BOUND('',#136,.T.);
#253=FACE_BOUND('',#137,.T.);
#254=FACE_BOUND('',#138,.T.);
#255=FACE_BOUND('',#139,.T.);
#256=FACE_BOUND('',#140,.T.);
#257=FACE_BOUND('',#141,.T.);
#258=FACE_BOUND('',#142,.T.);
#259=FACE_BOUND('',#143,.T.);
#260=FACE_BOUND('',#144,.T.);
#261=FACE_BOUND('',#145,.T.);
#262=FACE_BOUND('',#146,.T.);
#263=FACE_BOUND('',#147,.T.);
#264=SPHERICAL_SURFACE('',#323,2.381);
#265=ADVANCED_FACE('',(#223),#264,.T.);
#266=ADVANCED_FACE('',(#224,#225),#148,.T.);
#267=ADVANCED_FACE('',(#226,#227),#24,.T.);
#268=ADVANCED_FACE('',(#228,#229),#149,.T.);
#269=ADVANCED_FACE('',(#230,#231),#18,.F.);
#270=ADVANCED_FACE('',(#232,#233),#150,.F.);
#271=ADVANCED_FACE('',(#234,#235),#19,.F.);
#272=ADVANCED_FACE('',(#236,#237),#151,.T.);
#273=ADVANCED_FACE('',(#238,#239),#25,.T.);
#274=ADVANCED_FACE('',(#240,#241),#152,.T.);
#275=ADVANCED_FACE('',(#242,#243),#20,.T.);
#276=ADVANCED_FACE('',(#244,#245),#26,.T.);
#277=ADVANCED_FACE('',(#246,#247),#153,.T.);
#278=ADVANCED_FACE('',(#248,#249),#21,.F.);
#279=ADVANCED_FACE('',(#250,#251),#154,.T.);
#280=ADVANCED_FACE('',(#252,#253),#27,.T.);
#281=ADVANCED_FACE('',(#254,#255),#155,.T.);
#282=ADVANCED_FACE('',(#256,#257),#22,.T.);
#283=ADVANCED_FACE('',(#258,#259),#156,.F.);
#284=ADVANCED_FACE('',(#260,#261),#23,.T.);
#285=ADVANCED_FACE('',(#262,#263),#157,.T.);
#286=CLOSED_SHELL('',(#265));
#287=CLOSED_SHELL('',(#266,#267,#268,#269,#270,#271,#272,#273,#274,#275));
#288=CLOSED_SHELL('',(#276,#277,#278,#279,#280,#281,#282,#283,#284,#285));
#289=STYLED_ITEM('',(#292),#311);
#290=STYLED_ITEM('',(#293),#312);
#291=STYLED_ITEM('',(#294),#313);
#292=PRESENTATION_STYLE_ASSIGNMENT((#295));
#293=PRESENTATION_STYLE_ASSIGNMENT((#296));
#294=PRESENTATION_STYLE_ASSIGNMENT((#297));
#295=SURFACE_STYLE_USAGE(.BOTH.,#298);
#296=SURFACE_STYLE_USAGE(.BOTH.,#299);
#297=SURFACE_STYLE_USAGE(.BOTH.,#300);
#298=SURFACE_SIDE_STYLE('',(#301));
#299=SURFACE_SIDE_STYLE('',(#302));
#300=SURFACE_SIDE_STYLE('',(#303));
#301=SURFACE_STYLE_FILL_AREA(#304);
#302=SURFACE_STYLE_FILL_AREA(#305);
#303=SURFACE_STYLE_FILL_AREA(#306);
#304=FILL_AREA_STYLE('',(#307));
#305=FILL_AREA_STYLE('',(#308));
#306=FILL_AREA_STYLE('',(#309));
#307=FILL_AREA_STYLE_COLOUR('',#310);
#308=FILL_AREA_STYLE_COLOUR('',#158);
#309=FILL_AREA_STYLE_COLOUR('',#158);
#310=DRAUGHTING_PRE_DEFINED_COLOUR('yellow');
#311=MANIFOLD_SOLID_BREP('SKF_6000_ball1',#286);
#312=MANIFOLD_SOLID_BREP('SKF_6000_or',#287);
#313=MANIFOLD_SOLID_BREP('SKF_6000_ir',#288);
#314=SHAPE_DEFINITION_REPRESENTATION(#559,#318);
#315=SHAPE_DEFINITION_REPRESENTATION(#560,#319);
#316=SHAPE_DEFINITION_REPRESENTATION(#568,#320);
#317=SHAPE_DEFINITION_REPRESENTATION(#570,#321);
#318=SHAPE_REPRESENTATION('SKF_6000',(#322,#324,#325,#326,#327,#328,#329,
#330,#351,#372),#548);
#319=SHAPE_REPRESENTATION('SKF_6000_ball1',(#322),#549);
#320=SHAPE_REPRESENTATION('SKF_6000_or',(#322),#550);
#321=SHAPE_REPRESENTATION('SKF_6000_ir',(#322),#551);
#322=AXIS2_PLACEMENT_3D('',#475,#373,#374);
#323=AXIS2_PLACEMENT_3D('',#476,#375,#376);
#324=AXIS2_PLACEMENT_3D('',#478,#377,#378);
#325=AXIS2_PLACEMENT_3D('',#479,#379,#380);
#326=AXIS2_PLACEMENT_3D('',#480,#381,#382);
#327=AXIS2_PLACEMENT_3D('',#481,#383,#384);
#328=AXIS2_PLACEMENT_3D('',#482,#385,#386);
#329=AXIS2_PLACEMENT_3D('',#483,#387,#388);
#330=AXIS2_PLACEMENT_3D('',#484,#389,#390);
#331=AXIS2_PLACEMENT_3D('',#485,#391,#392);
#332=AXIS2_PLACEMENT_3D('',#486,#393,#394);
#333=AXIS2_PLACEMENT_3D('',#488,#395,#396);
#334=AXIS2_PLACEMENT_3D('',#490,#397,#398);
#335=AXIS2_PLACEMENT_3D('',#491,#399,#400);
#336=AXIS2_PLACEMENT_3D('',#493,#401,#402);
#337=AXIS2_PLACEMENT_3D('',#494,#403,#404);
#338=AXIS2_PLACEMENT_3D('',#496,#405,#406);
#339=AXIS2_PLACEMENT_3D('',#497,#407,#408);
#340=AXIS2_PLACEMENT_3D('',#499,#409,#410);
#341=AXIS2_PLACEMENT_3D('',#500,#411,#412);
#342=AXIS2_PLACEMENT_3D('',#502,#413,#414);
#343=AXIS2_PLACEMENT_3D('',#503,#415,#416);
#344=AXIS2_PLACEMENT_3D('',#505,#417,#418);
#345=AXIS2_PLACEMENT_3D('',#506,#419,#420);
#346=AXIS2_PLACEMENT_3D('',#508,#421,#422);
#347=AXIS2_PLACEMENT_3D('',#509,#423,#424);
#348=AXIS2_PLACEMENT_3D('',#511,#425,#426);
#349=AXIS2_PLACEMENT_3D('',#512,#427,#428);
#350=AXIS2_PLACEMENT_3D('',#514,#429,#430);
#351=AXIS2_PLACEMENT_3D('',#515,#431,#432);
#352=AXIS2_PLACEMENT_3D('',#516,#433,#434);
#353=AXIS2_PLACEMENT_3D('',#517,#435,#436);
#354=AXIS2_PLACEMENT_3D('',#519,#437,#438);
#355=AXIS2_PLACEMENT_3D('',#521,#439,#440);
#356=AXIS2_PLACEMENT_3D('',#522,#441,#442);
#357=AXIS2_PLACEMENT_3D('',#524,#443,#444);
#358=AXIS2_PLACEMENT_3D('',#525,#445,#446);
#359=AXIS2_PLACEMENT_3D('',#527,#447,#448);
#360=AXIS2_PLACEMENT_3D('',#528,#449,#450);
#361=AXIS2_PLACEMENT_3D('',#530,#451,#452);
#362=AXIS2_PLACEMENT_3D('',#531,#453,#454);
#363=AXIS2_PLACEMENT_3D('',#533,#455,#456);
#364=AXIS2_PLACEMENT_3D('',#534,#457,#458);
#365=AXIS2_PLACEMENT_3D('',#536,#459,#460);
#366=AXIS2_PLACEMENT_3D('',#537,#461,#462);
#367=AXIS2_PLACEMENT_3D('',#539,#463,#464);
#368=AXIS2_PLACEMENT_3D('',#540,#465,#466);
#369=AXIS2_PLACEMENT_3D('',#542,#467,#468);
#370=AXIS2_PLACEMENT_3D('',#543,#469,#470);
#371=AXIS2_PLACEMENT_3D('',#545,#471,#472);
#372=AXIS2_PLACEMENT_3D('',#546,#473,#474);
#373=DIRECTION('',(0.,0.,1.));
#374=DIRECTION('',(1.,0.,0.));
#375=DIRECTION('',(1.,0.,0.));
#376=DIRECTION('',(0.,-1.,0.));
#377=DIRECTION('',(0.,0.,1.));
#378=DIRECTION('',(-1.,0.,0.));
#379=DIRECTION('',(0.,0.,1.));
#380=DIRECTION('',(-1.,0.,0.));
#381=DIRECTION('',(0.,0.,1.));
#382=DIRECTION('',(-1.,0.,0.));
#383=DIRECTION('',(0.,0.,1.));
#384=DIRECTION('',(-1.,0.,0.));
#385=DIRECTION('',(0.,0.,1.));
#386=DIRECTION('',(-1.,0.,0.));
#387=DIRECTION('',(0.,0.,1.));
#388=DIRECTION('',(-1.,0.,0.));
#389=DIRECTION('',(0.,0.,1.));
#390=DIRECTION('',(-1.,0.,0.));
#391=DIRECTION('',(1.,0.,0.));
#392=DIRECTION('',(0.,0.,-1.));
#393=DIRECTION('',(1.,0.,0.));
#394=DIRECTION('',(0.,0.,-1.));
#395=DIRECTION('',(1.,0.,0.));
#396=DIRECTION('',(0.,0.,-1.));
#397=DIRECTION('',(-1.,0.,0.));
#398=DIRECTION('',(0.,0.,1.));
#399=DIRECTION('',(1.,0.,0.));
#400=DIRECTION('',(0.,0.,-1.));
#401=DIRECTION('',(1.,0.,0.));
#402=DIRECTION('',(0.,0.,-1.));
#403=DIRECTION('',(1.,0.,0.));
#404=DIRECTION('',(0.,0.,-1.));
#405=DIRECTION('',(1.,0.,0.));
#406=DIRECTION('',(0.,0.,-1.));
#407=DIRECTION('',(1.,0.,0.));
#408=DIRECTION('',(0.,0.,-1.));
#409=DIRECTION('',(1.,0.,0.));
#410=DIRECTION('',(0.,0.,-1.));
#411=DIRECTION('',(1.,0.,0.));
#412=DIRECTION('',(0.,0.,-1.));
#413=DIRECTION('',(1.,0.,0.));
#414=DIRECTION('',(0.,0.,-1.));
#415=DIRECTION('',(1.,0.,0.));
#416=DIRECTION('',(0.,0.,-1.));
#417=DIRECTION('',(1.,0.,0.));
#418=DIRECTION('',(0.,0.,-1.));
#419=DIRECTION('',(1.,0.,0.));
#420=DIRECTION('',(0.,0.,-1.));
#421=DIRECTION('',(1.,0.,0.));
#422=DIRECTION('',(0.,0.,-1.));
#423=DIRECTION('',(1.,0.,0.));
#424=DIRECTION('',(0.,0.,-1.));
#425=DIRECTION('',(1.,0.,0.));
#426=DIRECTION('',(0.,0.,-1.));
#427=DIRECTION('',(1.,0.,0.));
#428=DIRECTION('',(0.,0.,-1.));
#429=DIRECTION('',(1.,0.,0.));
#430=DIRECTION('',(0.,0.,-1.));
#431=DIRECTION('',(0.,0.,-1.));
#432=DIRECTION('',(1.,0.,0.));
#433=DIRECTION('',(-1.,0.,0.));
#434=DIRECTION('',(0.,0.,1.));
#435=DIRECTION('',(1.,0.,0.));
#436=DIRECTION('',(0.,0.,-1.));
#437=DIRECTION('',(1.,0.,0.));
#438=DIRECTION('',(0.,0.,-1.));
#439=DIRECTION('',(1.,0.,0.));
#440=DIRECTION('',(0.,0.,-1.));
#441=DIRECTION('',(1.,0.,0.));
#442=DIRECTION('',(0.,0.,-1.));
#443=DIRECTION('',(1.,0.,0.));
#444=DIRECTION('',(0.,0.,-1.));
#445=DIRECTION('',(1.,0.,0.));
#446=DIRECTION('',(0.,0.,-1.));
#447=DIRECTION('',(1.,0.,0.));
#448=DIRECTION('',(0.,0.,-1.));
#449=DIRECTION('',(1.,0.,0.));
#450=DIRECTION('',(0.,0.,-1.));
#451=DIRECTION('',(1.,0.,0.));
#452=DIRECTION('',(0.,0.,-1.));
#453=DIRECTION('',(1.,0.,0.));
#454=DIRECTION('',(0.,0.,-1.));
#455=DIRECTION('',(1.,0.,0.));
#456=DIRECTION('',(0.,0.,-1.));
#457=DIRECTION('',(1.,0.,0.));
#458=DIRECTION('',(0.,0.,-1.));
#459=DIRECTION('',(1.,0.,0.));
#460=DIRECTION('',(0.,0.,-1.));
#461=DIRECTION('',(1.,0.,0.));
#462=DIRECTION('',(0.,0.,-1.));
#463=DIRECTION('',(1.,0.,0.));
#464=DIRECTION('',(0.,0.,-1.));
#465=DIRECTION('',(1.,0.,0.));
#466=DIRECTION('',(0.,0.,-1.));
#467=DIRECTION('',(1.,0.,0.));
#468=DIRECTION('',(0.,0.,-1.));
#469=DIRECTION('',(1.,0.,0.));
#470=DIRECTION('',(0.,0.,-1.));
#471=DIRECTION('',(1.,0.,0.));
#472=DIRECTION('',(0.,0.,-1.));
#473=DIRECTION('',(0.,0.,-1.));
#474=DIRECTION('',(1.,0.,0.));
#475=CARTESIAN_POINT('',(0.,0.,0.));
#476=CARTESIAN_POINT('',(4.,8.9,0.));
#477=CARTESIAN_POINT('',(1.619,8.9,0.));
#478=CARTESIAN_POINT('',(8.,14.4490592365427,-6.95830019396547));
#479=CARTESIAN_POINT('',(8.,6.9195636877888,-8.67685841841823));
#480=CARTESIAN_POINT('',(8.,0.881377075668468,-3.86156527814627));
#481=CARTESIAN_POINT('',(8.,0.881377075668469,3.86156527814627));
#482=CARTESIAN_POINT('',(8.,6.9195636877888,8.67685841841823));
#483=CARTESIAN_POINT('',(8.,14.4490592365427,6.95830019396547));
#484=CARTESIAN_POINT('',(8.,17.8,0.));
#485=CARTESIAN_POINT('',(0.300000000000002,0.,0.));
#486=CARTESIAN_POINT('',(0.,0.,0.));
#487=CARTESIAN_POINT('',(0.,0.,-12.7));
#488=CARTESIAN_POINT('',(0.300000000000002,0.,0.));
#489=CARTESIAN_POINT('',(0.300000000000002,0.,-13.));
#490=CARTESIAN_POINT('',(0.,12.7,0.));
#491=CARTESIAN_POINT('',(0.,0.,0.));
#492=CARTESIAN_POINT('',(0.,0.,-10.7));
#493=CARTESIAN_POINT('',(0.0999999999999974,0.,0.));
#494=CARTESIAN_POINT('',(0.100000000000003,0.,0.));
#495=CARTESIAN_POINT('',(0.100000000000003,0.,-10.6));
#496=CARTESIAN_POINT('',(50.,0.,0.));
#497=CARTESIAN_POINT('',(2.33291841831301,0.,0.));
#498=CARTESIAN_POINT('',(2.33291841831301,0.,-10.6));
#499=CARTESIAN_POINT('',(4.,0.,0.));
#500=CARTESIAN_POINT('',(5.667081581687,0.,0.));
#501=CARTESIAN_POINT('',(5.667081581687,0.,-10.6));
#502=CARTESIAN_POINT('',(50.,0.,0.));
#503=CARTESIAN_POINT('',(7.9,0.,0.));
#504=CARTESIAN_POINT('',(7.9,0.,-10.6));
#505=CARTESIAN_POINT('',(7.9,0.,0.));
#506=CARTESIAN_POINT('',(8.,0.,0.));
#507=CARTESIAN_POINT('',(8.,0.,-10.7));
#508=CARTESIAN_POINT('',(8.,10.7,0.));
#509=CARTESIAN_POINT('',(8.,0.,0.));
#510=CARTESIAN_POINT('',(8.,0.,-12.7));
#511=CARTESIAN_POINT('',(7.7,0.,0.));
#512=CARTESIAN_POINT('',(7.7,0.,0.));
#513=CARTESIAN_POINT('',(7.7,0.,-13.));
#514=CARTESIAN_POINT('',(50.,0.,0.));
#515=CARTESIAN_POINT('',(0.,0.,0.));
#516=CARTESIAN_POINT('',(-2.37169225231204E-16,7.3,0.));
#517=CARTESIAN_POINT('',(0.,0.,0.));
#518=CARTESIAN_POINT('',(0.,0.,-5.3));
#519=CARTESIAN_POINT('',(0.,0.,0.));
#520=CARTESIAN_POINT('',(0.,0.,-7.3));
#521=CARTESIAN_POINT('',(0.300000000000002,0.,0.));
#522=CARTESIAN_POINT('',(0.299999999999995,0.,0.));
#523=CARTESIAN_POINT('',(0.299999999999995,0.,-5.));
#524=CARTESIAN_POINT('',(100.,0.,0.));
#525=CARTESIAN_POINT('',(7.7,0.,0.));
#526=CARTESIAN_POINT('',(7.7,0.,-5.));
#527=CARTESIAN_POINT('',(7.7,0.,0.));
#528=CARTESIAN_POINT('',(8.00000000000001,0.,0.));
#529=CARTESIAN_POINT('',(8.00000000000001,0.,-5.3));
#530=CARTESIAN_POINT('',(8.,5.3,0.));
#531=CARTESIAN_POINT('',(8.00000000000001,0.,0.));
#532=CARTESIAN_POINT('',(8.00000000000001,0.,-7.3));
#533=CARTESIAN_POINT('',(7.9,0.,0.));
#534=CARTESIAN_POINT('',(7.9,0.,0.));
#535=CARTESIAN_POINT('',(7.9,0.,-7.4));
#536=CARTESIAN_POINT('',(100.,0.,0.));
#537=CARTESIAN_POINT('',(5.84909734735627,0.,0.));
#538=CARTESIAN_POINT('',(5.84909734735627,0.,-7.4));
#539=CARTESIAN_POINT('',(4.,0.,0.));
#540=CARTESIAN_POINT('',(2.15090265264373,0.,0.));
#541=CARTESIAN_POINT('',(2.15090265264373,0.,-7.4));
#542=CARTESIAN_POINT('',(100.,0.,0.));
#543=CARTESIAN_POINT('',(0.100000000000003,0.,0.));
#544=CARTESIAN_POINT('',(0.100000000000003,0.,-7.4));
#545=CARTESIAN_POINT('',(0.0999999999999989,0.,0.));
#546=CARTESIAN_POINT('',(0.,0.,0.));
#547=MECHANICAL_DESIGN_GEOMETRIC_PRESENTATION_REPRESENTATION('',(#289,#290,
#291),#548);
#548=(
GEOMETRIC_REPRESENTATION_CONTEXT(3)
GLOBAL_UNCERTAINTY_ASSIGNED_CONTEXT((#552))
GLOBAL_UNIT_ASSIGNED_CONTEXT((#558,#557,#556))
REPRESENTATION_CONTEXT('SKF_6000','TOP_LEVEL_ASSEMBLY_PART')
);
#549=(
GEOMETRIC_REPRESENTATION_CONTEXT(3)
GLOBAL_UNCERTAINTY_ASSIGNED_CONTEXT((#553))
GLOBAL_UNIT_ASSIGNED_CONTEXT((#558,#557,#556))
REPRESENTATION_CONTEXT('SKF_6000_ball1','COMPONENT_PART')
);
#550=(
GEOMETRIC_REPRESENTATION_CONTEXT(3)
GLOBAL_UNCERTAINTY_ASSIGNED_CONTEXT((#554))
GLOBAL_UNIT_ASSIGNED_CONTEXT((#558,#557,#556))
REPRESENTATION_CONTEXT('SKF_6000_or','COMPONENT_PART')
);
#551=(
GEOMETRIC_REPRESENTATION_CONTEXT(3)
GLOBAL_UNCERTAINTY_ASSIGNED_CONTEXT((#555))
GLOBAL_UNIT_ASSIGNED_CONTEXT((#558,#557,#556))
REPRESENTATION_CONTEXT('SKF_6000_ir','COMPONENT_PART')
);
#552=UNCERTAINTY_MEASURE_WITH_UNIT(LENGTH_MEASURE(0.005),#558,
'DISTANCE_ACCURACY_VALUE','Maximum Tolerance applied to model');
#553=UNCERTAINTY_MEASURE_WITH_UNIT(LENGTH_MEASURE(0.005),#558,
'DISTANCE_ACCURACY_VALUE','Maximum Tolerance applied to model');
#554=UNCERTAINTY_MEASURE_WITH_UNIT(LENGTH_MEASURE(0.005),#558,
'DISTANCE_ACCURACY_VALUE','Maximum Tolerance applied to model');
#555=UNCERTAINTY_MEASURE_WITH_UNIT(LENGTH_MEASURE(0.005),#558,
'DISTANCE_ACCURACY_VALUE','Maximum Tolerance applied to model');
#556=(
NAMED_UNIT(*)
SI_UNIT($,.STERADIAN.)
SOLID_ANGLE_UNIT()
);
#557=(
NAMED_UNIT(*)
PLANE_ANGLE_UNIT()
SI_UNIT($,.RADIAN.)
);
#558=(
LENGTH_UNIT()
NAMED_UNIT(*)
SI_UNIT(.MILLI.,.METRE.)
);
#559=PRODUCT_DEFINITION_SHAPE('','',#572);
#560=PRODUCT_DEFINITION_SHAPE('','',#573);
#561=PRODUCT_DEFINITION_SHAPE(' ','NAUO PRDDFN',#168);
#562=PRODUCT_DEFINITION_SHAPE(' ','NAUO PRDDFN',#169);
#563=PRODUCT_DEFINITION_SHAPE(' ','NAUO PRDDFN',#170);
#564=PRODUCT_DEFINITION_SHAPE(' ','NAUO PRDDFN',#171);
#565=PRODUCT_DEFINITION_SHAPE(' ','NAUO PRDDFN',#172);
#566=PRODUCT_DEFINITION_SHAPE(' ','NAUO PRDDFN',#173);
#567=PRODUCT_DEFINITION_SHAPE(' ','NAUO PRDDFN',#174);
#568=PRODUCT_DEFINITION_SHAPE('','',#574);
#569=PRODUCT_DEFINITION_SHAPE(' ','NAUO PRDDFN',#175);
#570=PRODUCT_DEFINITION_SHAPE('','',#575);
#571=PRODUCT_DEFINITION_SHAPE(' ','NAUO PRDDFN',#176);
#572=PRODUCT_DEFINITION('','',#580,#576);
#573=PRODUCT_DEFINITION('','',#581,#577);
#574=PRODUCT_DEFINITION('','',#582,#578);
#575=PRODUCT_DEFINITION('','',#583,#579);
#576=DESIGN_CONTEXT('',#601,'design');
#577=DESIGN_CONTEXT('',#601,'design');
#578=DESIGN_CONTEXT('',#601,'design');
#579=DESIGN_CONTEXT('',#601,'design');
#580=PRODUCT_DEFINITION_FORMATION_WITH_SPECIFIED_SOURCE('','',#588,
 .NOT_KNOWN.);
#581=PRODUCT_DEFINITION_FORMATION_WITH_SPECIFIED_SOURCE('','',#589,
 .NOT_KNOWN.);
#582=PRODUCT_DEFINITION_FORMATION_WITH_SPECIFIED_SOURCE('','',#590,
 .NOT_KNOWN.);
#583=PRODUCT_DEFINITION_FORMATION_WITH_SPECIFIED_SOURCE('','',#591,
 .NOT_KNOWN.);
#584=PRODUCT_RELATED_PRODUCT_CATEGORY('','',(#588));
#585=PRODUCT_RELATED_PRODUCT_CATEGORY('','',(#589));
#586=PRODUCT_RELATED_PRODUCT_CATEGORY('','',(#590));
#587=PRODUCT_RELATED_PRODUCT_CATEGORY('','',(#591));
#588=PRODUCT('SKF_6000','SKF_6000','SKF_6000',(#596));
#589=PRODUCT('SKF_6000_ball1','SKF_6000_ball1','SKF_6000_ball1',(#597));
#590=PRODUCT('SKF_6000_or','SKF_6000_or','SKF_6000_or',(#598));
#591=PRODUCT('SKF_6000_ir','SKF_6000_ir','SKF_6000_ir',(#599));
#592=PRODUCT_CATEGORY('','');
#593=PRODUCT_CATEGORY('','');
#594=PRODUCT_CATEGORY('','');
#595=PRODUCT_CATEGORY('','');
#596=MECHANICAL_CONTEXT('',#601,'mechanical');
#597=MECHANICAL_CONTEXT('',#601,'mechanical');
#598=MECHANICAL_CONTEXT('',#601,'mechanical');
#599=MECHANICAL_CONTEXT('',#601,'mechanical');
#600=APPLICATION_PROTOCOL_DEFINITION('international standard',
'config_control_design',2010,#601);
#601=APPLICATION_CONTEXT(
'configuration controlled 3D designs of mechanical parts and assemblie
s');
ENDSEC;
END-ISO-10303-21;
