ISO-10303-21;
HEADER;
/* Generated by software containing ST-Developer
 * from STEP Tools, Inc. (www.steptools.com) 
 */
/* OPTION: using custom renumber hook */

FILE_DESCRIPTION(
/* description */ ('STEP AP203'),
/* implementation_level */ '2;1');

FILE_NAME(
/* name */ 'SKF_6002',
/* time_stamp */ '2023-07-02T06:37:10+02:00',
/* author */ ('License CC BY-ND 4.0'),
/* organization */ ('CADENAS'),
/* preprocessor_version */ 'ST-DEVELOPER v19.3',
/* originating_system */ 'PARTsolutions',
/* authorisation */ '  ');

FILE_SCHEMA (('CONFIG_CONTROL_DESIGN'));
ENDSEC;

DATA;
#10=PROPERTY_DEFINITION_REPRESENTATION(#14,#12);
#11=PROPERTY_DEFINITION_REPRESENTATION(#15,#13);
#12=REPRESENTATION('',(#16),#564);
#13=REPRESENTATION('',(#17),#564);
#14=PROPERTY_DEFINITION('pmi validation property','',#575);
#15=PROPERTY_DEFINITION('pmi validation property','',#575);
#16=VALUE_REPRESENTATION_ITEM('number of annotations',COUNT_MEASURE(0.));
#17=VALUE_REPRESENTATION_ITEM('number of views',COUNT_MEASURE(0.));
#18=CYLINDRICAL_SURFACE('',#348,13.35);
#19=CYLINDRICAL_SURFACE('',#352,13.35);
#20=CYLINDRICAL_SURFACE('',#360,16.);
#21=CYLINDRICAL_SURFACE('',#367,7.5);
#22=CYLINDRICAL_SURFACE('',#375,10.25);
#23=CYLINDRICAL_SURFACE('',#379,10.25);
#24=PLANE('',#344);
#25=PLANE('',#356);
#26=PLANE('',#362);
#27=PLANE('',#371);
#28=ORIENTED_EDGE('',*,*,#68,.T.);
#29=ORIENTED_EDGE('',*,*,#69,.F.);
#30=ORIENTED_EDGE('',*,*,#70,.T.);
#31=ORIENTED_EDGE('',*,*,#68,.F.);
#32=ORIENTED_EDGE('',*,*,#71,.T.);
#33=ORIENTED_EDGE('',*,*,#70,.F.);
#34=ORIENTED_EDGE('',*,*,#72,.T.);
#35=ORIENTED_EDGE('',*,*,#71,.F.);
#36=ORIENTED_EDGE('',*,*,#72,.F.);
#37=ORIENTED_EDGE('',*,*,#73,.T.);
#38=ORIENTED_EDGE('',*,*,#74,.T.);
#39=ORIENTED_EDGE('',*,*,#73,.F.);
#40=ORIENTED_EDGE('',*,*,#75,.T.);
#41=ORIENTED_EDGE('',*,*,#74,.F.);
#42=ORIENTED_EDGE('',*,*,#76,.T.);
#43=ORIENTED_EDGE('',*,*,#75,.F.);
#44=ORIENTED_EDGE('',*,*,#77,.T.);
#45=ORIENTED_EDGE('',*,*,#76,.F.);
#46=ORIENTED_EDGE('',*,*,#69,.T.);
#47=ORIENTED_EDGE('',*,*,#77,.F.);
#48=ORIENTED_EDGE('',*,*,#78,.T.);
#49=ORIENTED_EDGE('',*,*,#79,.F.);
#50=ORIENTED_EDGE('',*,*,#80,.T.);
#51=ORIENTED_EDGE('',*,*,#78,.F.);
#52=ORIENTED_EDGE('',*,*,#81,.T.);
#53=ORIENTED_EDGE('',*,*,#80,.F.);
#54=ORIENTED_EDGE('',*,*,#82,.T.);
#55=ORIENTED_EDGE('',*,*,#81,.F.);
#56=ORIENTED_EDGE('',*,*,#83,.T.);
#57=ORIENTED_EDGE('',*,*,#82,.F.);
#58=ORIENTED_EDGE('',*,*,#84,.T.);
#59=ORIENTED_EDGE('',*,*,#83,.F.);
#60=ORIENTED_EDGE('',*,*,#85,.T.);
#61=ORIENTED_EDGE('',*,*,#84,.F.);
#62=ORIENTED_EDGE('',*,*,#85,.F.);
#63=ORIENTED_EDGE('',*,*,#86,.T.);
#64=ORIENTED_EDGE('',*,*,#87,.T.);
#65=ORIENTED_EDGE('',*,*,#86,.F.);
#66=ORIENTED_EDGE('',*,*,#79,.T.);
#67=ORIENTED_EDGE('',*,*,#87,.F.);
#68=EDGE_CURVE('',#210,#210,#88,.T.);
#69=EDGE_CURVE('',#211,#211,#89,.T.);
#70=EDGE_CURVE('',#212,#212,#90,.T.);
#71=EDGE_CURVE('',#213,#213,#91,.T.);
#72=EDGE_CURVE('',#214,#214,#92,.T.);
#73=EDGE_CURVE('',#215,#215,#93,.T.);
#74=EDGE_CURVE('',#216,#216,#94,.T.);
#75=EDGE_CURVE('',#217,#217,#95,.T.);
#76=EDGE_CURVE('',#218,#218,#96,.T.);
#77=EDGE_CURVE('',#219,#219,#97,.T.);
#78=EDGE_CURVE('',#220,#220,#98,.T.);
#79=EDGE_CURVE('',#221,#221,#99,.T.);
#80=EDGE_CURVE('',#222,#222,#100,.T.);
#81=EDGE_CURVE('',#223,#223,#101,.T.);
#82=EDGE_CURVE('',#224,#224,#102,.T.);
#83=EDGE_CURVE('',#225,#225,#103,.T.);
#84=EDGE_CURVE('',#226,#226,#104,.T.);
#85=EDGE_CURVE('',#227,#227,#105,.T.);
#86=EDGE_CURVE('',#228,#228,#106,.T.);
#87=EDGE_CURVE('',#229,#229,#107,.T.);
#88=CIRCLE('',#342,15.7);
#89=CIRCLE('',#343,16.);
#90=CIRCLE('',#345,13.45);
#91=CIRCLE('',#347,13.35);
#92=CIRCLE('',#349,13.35);
#93=CIRCLE('',#351,13.35);
#94=CIRCLE('',#353,13.35);
#95=CIRCLE('',#355,13.45);
#96=CIRCLE('',#357,15.7);
#97=CIRCLE('',#359,16.);
#98=CIRCLE('',#363,7.8);
#99=CIRCLE('',#364,10.15);
#100=CIRCLE('',#366,7.5);
#101=CIRCLE('',#368,7.5);
#102=CIRCLE('',#370,7.8);
#103=CIRCLE('',#372,10.15);
#104=CIRCLE('',#374,10.25);
#105=CIRCLE('',#376,10.25);
#106=CIRCLE('',#378,10.25);
#107=CIRCLE('',#380,10.25);
#108=EDGE_LOOP('',(#28));
#109=EDGE_LOOP('',(#29));
#110=EDGE_LOOP('',(#30));
#111=EDGE_LOOP('',(#31));
#112=EDGE_LOOP('',(#32));
#113=EDGE_LOOP('',(#33));
#114=EDGE_LOOP('',(#34));
#115=EDGE_LOOP('',(#35));
#116=EDGE_LOOP('',(#36));
#117=EDGE_LOOP('',(#37));
#118=EDGE_LOOP('',(#38));
#119=EDGE_LOOP('',(#39));
#120=EDGE_LOOP('',(#40));
#121=EDGE_LOOP('',(#41));
#122=EDGE_LOOP('',(#42));
#123=EDGE_LOOP('',(#43));
#124=EDGE_LOOP('',(#44));
#125=EDGE_LOOP('',(#45));
#126=EDGE_LOOP('',(#46));
#127=EDGE_LOOP('',(#47));
#128=EDGE_LOOP('',(#48));
#129=EDGE_LOOP('',(#49));
#130=EDGE_LOOP('',(#50));
#131=EDGE_LOOP('',(#51));
#132=EDGE_LOOP('',(#52));
#133=EDGE_LOOP('',(#53));
#134=EDGE_LOOP('',(#54));
#135=EDGE_LOOP('',(#55));
#136=EDGE_LOOP('',(#56));
#137=EDGE_LOOP('',(#57));
#138=EDGE_LOOP('',(#58));
#139=EDGE_LOOP('',(#59));
#140=EDGE_LOOP('',(#60));
#141=EDGE_LOOP('',(#61));
#142=EDGE_LOOP('',(#62));
#143=EDGE_LOOP('',(#63));
#144=EDGE_LOOP('',(#64));
#145=EDGE_LOOP('',(#65));
#146=EDGE_LOOP('',(#66));
#147=EDGE_LOOP('',(#67));
#148=TOROIDAL_SURFACE('',#341,15.7,0.299999999999998);
#149=TOROIDAL_SURFACE('',#346,13.45,0.0999999999999991);
#150=TOROIDAL_SURFACE('',#350,11.75,2.381);
#151=TOROIDAL_SURFACE('',#354,13.45,0.100000000000003);
#152=TOROIDAL_SURFACE('',#358,15.7,0.299999999999998);
#153=TOROIDAL_SURFACE('',#365,7.8,0.300000000000002);
#154=TOROIDAL_SURFACE('',#369,7.8,0.300000000000002);
#155=TOROIDAL_SURFACE('',#373,10.15,0.100000000000003);
#156=TOROIDAL_SURFACE('',#377,11.75,2.381);
#157=TOROIDAL_SURFACE('',#381,10.15,0.100000000000001);
#158=COLOUR_RGB('',0.689999997615814,0.689999997615814,0.689999997615814);
#159=CONTEXT_DEPENDENT_SHAPE_REPRESENTATION(#181,#577);
#160=CONTEXT_DEPENDENT_SHAPE_REPRESENTATION(#182,#578);
#161=CONTEXT_DEPENDENT_SHAPE_REPRESENTATION(#183,#579);
#162=CONTEXT_DEPENDENT_SHAPE_REPRESENTATION(#184,#580);
#163=CONTEXT_DEPENDENT_SHAPE_REPRESENTATION(#185,#581);
#164=CONTEXT_DEPENDENT_SHAPE_REPRESENTATION(#186,#582);
#165=CONTEXT_DEPENDENT_SHAPE_REPRESENTATION(#187,#583);
#166=CONTEXT_DEPENDENT_SHAPE_REPRESENTATION(#188,#584);
#167=CONTEXT_DEPENDENT_SHAPE_REPRESENTATION(#189,#585);
#168=CONTEXT_DEPENDENT_SHAPE_REPRESENTATION(#190,#587);
#169=CONTEXT_DEPENDENT_SHAPE_REPRESENTATION(#191,#589);
#170=NEXT_ASSEMBLY_USAGE_OCCURRENCE('NAUO1','SKF_6002_ball1',
'SKF_6002_ball1',#590,#591,'');
#171=NEXT_ASSEMBLY_USAGE_OCCURRENCE('NAUO2','SKF_6002_ball1',
'SKF_6002_ball1',#590,#591,'');
#172=NEXT_ASSEMBLY_USAGE_OCCURRENCE('NAUO3','SKF_6002_ball1',
'SKF_6002_ball1',#590,#591,'');
#173=NEXT_ASSEMBLY_USAGE_OCCURRENCE('NAUO4','SKF_6002_ball1',
'SKF_6002_ball1',#590,#591,'');
#174=NEXT_ASSEMBLY_USAGE_OCCURRENCE('NAUO5','SKF_6002_ball1',
'SKF_6002_ball1',#590,#591,'');
#175=NEXT_ASSEMBLY_USAGE_OCCURRENCE('NAUO6','SKF_6002_ball1',
'SKF_6002_ball1',#590,#591,'');
#176=NEXT_ASSEMBLY_USAGE_OCCURRENCE('NAUO7','SKF_6002_ball1',
'SKF_6002_ball1',#590,#591,'');
#177=NEXT_ASSEMBLY_USAGE_OCCURRENCE('NAUO8','SKF_6002_ball1',
'SKF_6002_ball1',#590,#591,'');
#178=NEXT_ASSEMBLY_USAGE_OCCURRENCE('NAUO9','SKF_6002_ball1',
'SKF_6002_ball1',#590,#591,'');
#179=NEXT_ASSEMBLY_USAGE_OCCURRENCE('NAUO10','SKF_6002_or',
'SKF_6002_or',#590,#592,'');
#180=NEXT_ASSEMBLY_USAGE_OCCURRENCE('NAUO11','SKF_6002_ir',
'SKF_6002_ir',#590,#593,'');
#181=(
REPRESENTATION_RELATIONSHIP(' ',' ',#327,#326)
REPRESENTATION_RELATIONSHIP_WITH_TRANSFORMATION(#192)
SHAPE_REPRESENTATION_RELATIONSHIP()
);
#182=(
REPRESENTATION_RELATIONSHIP(' ',' ',#327,#326)
REPRESENTATION_RELATIONSHIP_WITH_TRANSFORMATION(#193)
SHAPE_REPRESENTATION_RELATIONSHIP()
);
#183=(
REPRESENTATION_RELATIONSHIP(' ',' ',#327,#326)
REPRESENTATION_RELATIONSHIP_WITH_TRANSFORMATION(#194)
SHAPE_REPRESENTATION_RELATIONSHIP()
);
#184=(
REPRESENTATION_RELATIONSHIP(' ',' ',#327,#326)
REPRESENTATION_RELATIONSHIP_WITH_TRANSFORMATION(#195)
SHAPE_REPRESENTATION_RELATIONSHIP()
);
#185=(
REPRESENTATION_RELATIONSHIP(' ',' ',#327,#326)
REPRESENTATION_RELATIONSHIP_WITH_TRANSFORMATION(#196)
SHAPE_REPRESENTATION_RELATIONSHIP()
);
#186=(
REPRESENTATION_RELATIONSHIP(' ',' ',#327,#326)
REPRESENTATION_RELATIONSHIP_WITH_TRANSFORMATION(#197)
SHAPE_REPRESENTATION_RELATIONSHIP()
);
#187=(
REPRESENTATION_RELATIONSHIP(' ',' ',#327,#326)
REPRESENTATION_RELATIONSHIP_WITH_TRANSFORMATION(#198)
SHAPE_REPRESENTATION_RELATIONSHIP()
);
#188=(
REPRESENTATION_RELATIONSHIP(' ',' ',#327,#326)
REPRESENTATION_RELATIONSHIP_WITH_TRANSFORMATION(#199)
SHAPE_REPRESENTATION_RELATIONSHIP()
);
#189=(
REPRESENTATION_RELATIONSHIP(' ',' ',#327,#326)
REPRESENTATION_RELATIONSHIP_WITH_TRANSFORMATION(#200)
SHAPE_REPRESENTATION_RELATIONSHIP()
);
#190=(
REPRESENTATION_RELATIONSHIP(' ',' ',#328,#326)
REPRESENTATION_RELATIONSHIP_WITH_TRANSFORMATION(#201)
SHAPE_REPRESENTATION_RELATIONSHIP()
);
#191=(
REPRESENTATION_RELATIONSHIP(' ',' ',#329,#326)
REPRESENTATION_RELATIONSHIP_WITH_TRANSFORMATION(#202)
SHAPE_REPRESENTATION_RELATIONSHIP()
);
#192=ITEM_DEFINED_TRANSFORMATION(' ',' ',#330,#332);
#193=ITEM_DEFINED_TRANSFORMATION(' ',' ',#330,#333);
#194=ITEM_DEFINED_TRANSFORMATION(' ',' ',#330,#334);
#195=ITEM_DEFINED_TRANSFORMATION(' ',' ',#330,#335);
#196=ITEM_DEFINED_TRANSFORMATION(' ',' ',#330,#336);
#197=ITEM_DEFINED_TRANSFORMATION(' ',' ',#330,#337);
#198=ITEM_DEFINED_TRANSFORMATION(' ',' ',#330,#338);
#199=ITEM_DEFINED_TRANSFORMATION(' ',' ',#330,#339);
#200=ITEM_DEFINED_TRANSFORMATION(' ',' ',#330,#340);
#201=ITEM_DEFINED_TRANSFORMATION(' ',' ',#330,#361);
#202=ITEM_DEFINED_TRANSFORMATION(' ',' ',#330,#382);
#203=SHAPE_REPRESENTATION_RELATIONSHIP('','',#327,#206);
#204=SHAPE_REPRESENTATION_RELATIONSHIP('','',#328,#207);
#205=SHAPE_REPRESENTATION_RELATIONSHIP('','',#329,#208);
#206=ADVANCED_BREP_SHAPE_REPRESENTATION('',(#319),#565);
#207=ADVANCED_BREP_SHAPE_REPRESENTATION('',(#320),#566);
#208=ADVANCED_BREP_SHAPE_REPRESENTATION('',(#321),#567);
#209=VERTEX_POINT('',#491);
#210=VERTEX_POINT('',#503);
#211=VERTEX_POINT('',#505);
#212=VERTEX_POINT('',#508);
#213=VERTEX_POINT('',#511);
#214=VERTEX_POINT('',#514);
#215=VERTEX_POINT('',#517);
#216=VERTEX_POINT('',#520);
#217=VERTEX_POINT('',#523);
#218=VERTEX_POINT('',#526);
#219=VERTEX_POINT('',#529);
#220=VERTEX_POINT('',#534);
#221=VERTEX_POINT('',#536);
#222=VERTEX_POINT('',#539);
#223=VERTEX_POINT('',#542);
#224=VERTEX_POINT('',#545);
#225=VERTEX_POINT('',#548);
#226=VERTEX_POINT('',#551);
#227=VERTEX_POINT('',#554);
#228=VERTEX_POINT('',#557);
#229=VERTEX_POINT('',#560);
#230=VERTEX_LOOP('',#209);
#231=FACE_BOUND('',#230,.T.);
#232=FACE_BOUND('',#108,.T.);
#233=FACE_BOUND('',#109,.T.);
#234=FACE_BOUND('',#110,.T.);
#235=FACE_BOUND('',#111,.T.);
#236=FACE_BOUND('',#112,.T.);
#237=FACE_BOUND('',#113,.T.);
#238=FACE_BOUND('',#114,.T.);
#239=FACE_BOUND('',#115,.T.);
#240=FACE_BOUND('',#116,.T.);
#241=FACE_BOUND('',#117,.T.);
#242=FACE_BOUND('',#118,.T.);
#243=FACE_BOUND('',#119,.T.);
#244=FACE_BOUND('',#120,.T.);
#245=FACE_BOUND('',#121,.T.);
#246=FACE_BOUND('',#122,.T.);
#247=FACE_BOUND('',#123,.T.);
#248=FACE_BOUND('',#124,.T.);
#249=FACE_BOUND('',#125,.T.);
#250=FACE_BOUND('',#126,.T.);
#251=FACE_BOUND('',#127,.T.);
#252=FACE_BOUND('',#128,.T.);
#253=FACE_BOUND('',#129,.T.);
#254=FACE_BOUND('',#130,.T.);
#255=FACE_BOUND('',#131,.T.);
#256=FACE_BOUND('',#132,.T.);
#257=FACE_BOUND('',#133,.T.);
#258=FACE_BOUND('',#134,.T.);
#259=FACE_BOUND('',#135,.T.);
#260=FACE_BOUND('',#136,.T.);
#261=FACE_BOUND('',#137,.T.);
#262=FACE_BOUND('',#138,.T.);
#263=FACE_BOUND('',#139,.T.);
#264=FACE_BOUND('',#140,.T.);
#265=FACE_BOUND('',#141,.T.);
#266=FACE_BOUND('',#142,.T.);
#267=FACE_BOUND('',#143,.T.);
#268=FACE_BOUND('',#144,.T.);
#269=FACE_BOUND('',#145,.T.);
#270=FACE_BOUND('',#146,.T.);
#271=FACE_BOUND('',#147,.T.);
#272=SPHERICAL_SURFACE('',#331,2.381);
#273=ADVANCED_FACE('',(#231),#272,.T.);
#274=ADVANCED_FACE('',(#232,#233),#148,.T.);
#275=ADVANCED_FACE('',(#234,#235),#24,.T.);
#276=ADVANCED_FACE('',(#236,#237),#149,.T.);
#277=ADVANCED_FACE('',(#238,#239),#18,.F.);
#278=ADVANCED_FACE('',(#240,#241),#150,.F.);
#279=ADVANCED_FACE('',(#242,#243),#19,.F.);
#280=ADVANCED_FACE('',(#244,#245),#151,.T.);
#281=ADVANCED_FACE('',(#246,#247),#25,.T.);
#282=ADVANCED_FACE('',(#248,#249),#152,.T.);
#283=ADVANCED_FACE('',(#250,#251),#20,.T.);
#284=ADVANCED_FACE('',(#252,#253),#26,.T.);
#285=ADVANCED_FACE('',(#254,#255),#153,.T.);
#286=ADVANCED_FACE('',(#256,#257),#21,.F.);
#287=ADVANCED_FACE('',(#258,#259),#154,.T.);
#288=ADVANCED_FACE('',(#260,#261),#27,.T.);
#289=ADVANCED_FACE('',(#262,#263),#155,.T.);
#290=ADVANCED_FACE('',(#264,#265),#22,.T.);
#291=ADVANCED_FACE('',(#266,#267),#156,.F.);
#292=ADVANCED_FACE('',(#268,#269),#23,.T.);
#293=ADVANCED_FACE('',(#270,#271),#157,.T.);
#294=CLOSED_SHELL('',(#273));
#295=CLOSED_SHELL('',(#274,#275,#276,#277,#278,#279,#280,#281,#282,#283));
#296=CLOSED_SHELL('',(#284,#285,#286,#287,#288,#289,#290,#291,#292,#293));
#297=STYLED_ITEM('',(#300),#319);
#298=STYLED_ITEM('',(#301),#320);
#299=STYLED_ITEM('',(#302),#321);
#300=PRESENTATION_STYLE_ASSIGNMENT((#303));
#301=PRESENTATION_STYLE_ASSIGNMENT((#304));
#302=PRESENTATION_STYLE_ASSIGNMENT((#305));
#303=SURFACE_STYLE_USAGE(.BOTH.,#306);
#304=SURFACE_STYLE_USAGE(.BOTH.,#307);
#305=SURFACE_STYLE_USAGE(.BOTH.,#308);
#306=SURFACE_SIDE_STYLE('',(#309));
#307=SURFACE_SIDE_STYLE('',(#310));
#308=SURFACE_SIDE_STYLE('',(#311));
#309=SURFACE_STYLE_FILL_AREA(#312);
#310=SURFACE_STYLE_FILL_AREA(#313);
#311=SURFACE_STYLE_FILL_AREA(#314);
#312=FILL_AREA_STYLE('',(#315));
#313=FILL_AREA_STYLE('',(#316));
#314=FILL_AREA_STYLE('',(#317));
#315=FILL_AREA_STYLE_COLOUR('',#318);
#316=FILL_AREA_STYLE_COLOUR('',#158);
#317=FILL_AREA_STYLE_COLOUR('',#158);
#318=DRAUGHTING_PRE_DEFINED_COLOUR('yellow');
#319=MANIFOLD_SOLID_BREP('SKF_6002_ball1',#294);
#320=MANIFOLD_SOLID_BREP('SKF_6002_or',#295);
#321=MANIFOLD_SOLID_BREP('SKF_6002_ir',#296);
#322=SHAPE_DEFINITION_REPRESENTATION(#575,#326);
#323=SHAPE_DEFINITION_REPRESENTATION(#576,#327);
#324=SHAPE_DEFINITION_REPRESENTATION(#586,#328);
#325=SHAPE_DEFINITION_REPRESENTATION(#588,#329);
#326=SHAPE_REPRESENTATION('SKF_6002',(#330,#332,#333,#334,#335,#336,#337,
#338,#339,#340,#361,#382),#564);
#327=SHAPE_REPRESENTATION('SKF_6002_ball1',(#330),#565);
#328=SHAPE_REPRESENTATION('SKF_6002_or',(#330),#566);
#329=SHAPE_REPRESENTATION('SKF_6002_ir',(#330),#567);
#330=AXIS2_PLACEMENT_3D('',#489,#383,#384);
#331=AXIS2_PLACEMENT_3D('',#490,#385,#386);
#332=AXIS2_PLACEMENT_3D('',#492,#387,#388);
#333=AXIS2_PLACEMENT_3D('',#493,#389,#390);
#334=AXIS2_PLACEMENT_3D('',#494,#391,#392);
#335=AXIS2_PLACEMENT_3D('',#495,#393,#394);
#336=AXIS2_PLACEMENT_3D('',#496,#395,#396);
#337=AXIS2_PLACEMENT_3D('',#497,#397,#398);
#338=AXIS2_PLACEMENT_3D('',#498,#399,#400);
#339=AXIS2_PLACEMENT_3D('',#499,#401,#402);
#340=AXIS2_PLACEMENT_3D('',#500,#403,#404);
#341=AXIS2_PLACEMENT_3D('',#501,#405,#406);
#342=AXIS2_PLACEMENT_3D('',#502,#407,#408);
#343=AXIS2_PLACEMENT_3D('',#504,#409,#410);
#344=AXIS2_PLACEMENT_3D('',#506,#411,#412);
#345=AXIS2_PLACEMENT_3D('',#507,#413,#414);
#346=AXIS2_PLACEMENT_3D('',#509,#415,#416);
#347=AXIS2_PLACEMENT_3D('',#510,#417,#418);
#348=AXIS2_PLACEMENT_3D('',#512,#419,#420);
#349=AXIS2_PLACEMENT_3D('',#513,#421,#422);
#350=AXIS2_PLACEMENT_3D('',#515,#423,#424);
#351=AXIS2_PLACEMENT_3D('',#516,#425,#426);
#352=AXIS2_PLACEMENT_3D('',#518,#427,#428);
#353=AXIS2_PLACEMENT_3D('',#519,#429,#430);
#354=AXIS2_PLACEMENT_3D('',#521,#431,#432);
#355=AXIS2_PLACEMENT_3D('',#522,#433,#434);
#356=AXIS2_PLACEMENT_3D('',#524,#435,#436);
#357=AXIS2_PLACEMENT_3D('',#525,#437,#438);
#358=AXIS2_PLACEMENT_3D('',#527,#439,#440);
#359=AXIS2_PLACEMENT_3D('',#528,#441,#442);
#360=AXIS2_PLACEMENT_3D('',#530,#443,#444);
#361=AXIS2_PLACEMENT_3D('',#531,#445,#446);
#362=AXIS2_PLACEMENT_3D('',#532,#447,#448);
#363=AXIS2_PLACEMENT_3D('',#533,#449,#450);
#364=AXIS2_PLACEMENT_3D('',#535,#451,#452);
#365=AXIS2_PLACEMENT_3D('',#537,#453,#454);
#366=AXIS2_PLACEMENT_3D('',#538,#455,#456);
#367=AXIS2_PLACEMENT_3D('',#540,#457,#458);
#368=AXIS2_PLACEMENT_3D('',#541,#459,#460);
#369=AXIS2_PLACEMENT_3D('',#543,#461,#462);
#370=AXIS2_PLACEMENT_3D('',#544,#463,#464);
#371=AXIS2_PLACEMENT_3D('',#546,#465,#466);
#372=AXIS2_PLACEMENT_3D('',#547,#467,#468);
#373=AXIS2_PLACEMENT_3D('',#549,#469,#470);
#374=AXIS2_PLACEMENT_3D('',#550,#471,#472);
#375=AXIS2_PLACEMENT_3D('',#552,#473,#474);
#376=AXIS2_PLACEMENT_3D('',#553,#475,#476);
#377=AXIS2_PLACEMENT_3D('',#555,#477,#478);
#378=AXIS2_PLACEMENT_3D('',#556,#479,#480);
#379=AXIS2_PLACEMENT_3D('',#558,#481,#482);
#380=AXIS2_PLACEMENT_3D('',#559,#483,#484);
#381=AXIS2_PLACEMENT_3D('',#561,#485,#486);
#382=AXIS2_PLACEMENT_3D('',#562,#487,#488);
#383=DIRECTION('',(0.,0.,1.));
#384=DIRECTION('',(1.,0.,0.));
#385=DIRECTION('',(1.,0.,0.));
#386=DIRECTION('',(0.,-1.,0.));
#387=DIRECTION('',(0.,0.,1.));
#388=DIRECTION('',(-1.,0.,0.));
#389=DIRECTION('',(0.,0.,1.));
#390=DIRECTION('',(-1.,0.,0.));
#391=DIRECTION('',(0.,0.,1.));
#392=DIRECTION('',(-1.,0.,0.));
#393=DIRECTION('',(0.,0.,1.));
#394=DIRECTION('',(-1.,0.,0.));
#395=DIRECTION('',(0.,0.,1.));
#396=DIRECTION('',(-1.,0.,0.));
#397=DIRECTION('',(0.,0.,1.));
#398=DIRECTION('',(-1.,0.,0.));
#399=DIRECTION('',(0.,0.,1.));
#400=DIRECTION('',(-1.,0.,0.));
#401=DIRECTION('',(0.,0.,1.));
#402=DIRECTION('',(-1.,0.,0.));
#403=DIRECTION('',(0.,0.,1.));
#404=DIRECTION('',(-1.,0.,0.));
#405=DIRECTION('',(1.,0.,0.));
#406=DIRECTION('',(0.,0.,-1.));
#407=DIRECTION('',(1.,0.,0.));
#408=DIRECTION('',(0.,0.,-1.));
#409=DIRECTION('',(1.,0.,0.));
#410=DIRECTION('',(0.,0.,-1.));
#411=DIRECTION('',(-1.,0.,0.));
#412=DIRECTION('',(0.,0.,1.));
#413=DIRECTION('',(1.,0.,0.));
#414=DIRECTION('',(0.,0.,-1.));
#415=DIRECTION('',(1.,0.,0.));
#416=DIRECTION('',(0.,0.,-1.));
#417=DIRECTION('',(1.,0.,0.));
#418=DIRECTION('',(0.,0.,-1.));
#419=DIRECTION('',(1.,0.,0.));
#420=DIRECTION('',(0.,0.,-1.));
#421=DIRECTION('',(1.,0.,0.));
#422=DIRECTION('',(0.,0.,-1.));
#423=DIRECTION('',(1.,0.,0.));
#424=DIRECTION('',(0.,0.,-1.));
#425=DIRECTION('',(1.,0.,0.));
#426=DIRECTION('',(0.,0.,-1.));
#427=DIRECTION('',(1.,0.,0.));
#428=DIRECTION('',(0.,0.,-1.));
#429=DIRECTION('',(1.,0.,0.));
#430=DIRECTION('',(0.,0.,-1.));
#431=DIRECTION('',(1.,0.,0.));
#432=DIRECTION('',(0.,0.,-1.));
#433=DIRECTION('',(1.,0.,0.));
#434=DIRECTION('',(0.,0.,-1.));
#435=DIRECTION('',(1.,0.,0.));
#436=DIRECTION('',(0.,0.,-1.));
#437=DIRECTION('',(1.,0.,0.));
#438=DIRECTION('',(0.,0.,-1.));
#439=DIRECTION('',(1.,0.,0.));
#440=DIRECTION('',(0.,0.,-1.));
#441=DIRECTION('',(1.,0.,0.));
#442=DIRECTION('',(0.,0.,-1.));
#443=DIRECTION('',(1.,0.,0.));
#444=DIRECTION('',(0.,0.,-1.));
#445=DIRECTION('',(0.,0.,-1.));
#446=DIRECTION('',(1.,0.,0.));
#447=DIRECTION('',(-1.,0.,0.));
#448=DIRECTION('',(0.,0.,1.));
#449=DIRECTION('',(1.,0.,0.));
#450=DIRECTION('',(0.,0.,-1.));
#451=DIRECTION('',(1.,0.,0.));
#452=DIRECTION('',(0.,0.,-1.));
#453=DIRECTION('',(1.,0.,0.));
#454=DIRECTION('',(0.,0.,-1.));
#455=DIRECTION('',(1.,0.,0.));
#456=DIRECTION('',(0.,0.,-1.));
#457=DIRECTION('',(1.,0.,0.));
#458=DIRECTION('',(0.,0.,-1.));
#459=DIRECTION('',(1.,0.,0.));
#460=DIRECTION('',(0.,0.,-1.));
#461=DIRECTION('',(1.,0.,0.));
#462=DIRECTION('',(0.,0.,-1.));
#463=DIRECTION('',(1.,0.,0.));
#464=DIRECTION('',(0.,0.,-1.));
#465=DIRECTION('',(1.,0.,0.));
#466=DIRECTION('',(0.,0.,-1.));
#467=DIRECTION('',(1.,0.,0.));
#468=DIRECTION('',(0.,0.,-1.));
#469=DIRECTION('',(1.,0.,0.));
#470=DIRECTION('',(0.,0.,-1.));
#471=DIRECTION('',(1.,0.,0.));
#472=DIRECTION('',(0.,0.,-1.));
#473=DIRECTION('',(1.,0.,0.));
#474=DIRECTION('',(0.,0.,-1.));
#475=DIRECTION('',(1.,0.,0.));
#476=DIRECTION('',(0.,0.,-1.));
#477=DIRECTION('',(1.,0.,0.));
#478=DIRECTION('',(0.,0.,-1.));
#479=DIRECTION('',(1.,0.,0.));
#480=DIRECTION('',(0.,0.,-1.));
#481=DIRECTION('',(1.,0.,0.));
#482=DIRECTION('',(0.,0.,-1.));
#483=DIRECTION('',(1.,0.,0.));
#484=DIRECTION('',(0.,0.,-1.));
#485=DIRECTION('',(1.,0.,0.));
#486=DIRECTION('',(0.,0.,-1.));
#487=DIRECTION('',(0.,0.,-1.));
#488=DIRECTION('',(1.,0.,0.));
#489=CARTESIAN_POINT('',(0.,0.,0.));
#490=CARTESIAN_POINT('',(4.5,11.75,0.));
#491=CARTESIAN_POINT('',(2.119,11.75,0.));
#492=CARTESIAN_POINT('',(9.,20.751022206648,-7.55275441381684));
#493=CARTESIAN_POINT('',(9.,13.7903660875864,-11.5714910978934));
#494=CARTESIAN_POINT('',(9.,5.875,-10.1757984944671));
#495=CARTESIAN_POINT('',(9.,0.708611705765581,-4.0187366840766));
#496=CARTESIAN_POINT('',(9.,0.708611705765581,4.01873668407661));
#497=CARTESIAN_POINT('',(9.,5.875,10.1757984944672));
#498=CARTESIAN_POINT('',(9.,13.7903660875864,11.5714910978934));
#499=CARTESIAN_POINT('',(9.,20.751022206648,7.55275441381684));
#500=CARTESIAN_POINT('',(9.,23.5,0.));
#501=CARTESIAN_POINT('',(0.299999999999998,0.,0.));
#502=CARTESIAN_POINT('',(0.,0.,0.));
#503=CARTESIAN_POINT('',(0.,0.,-15.7));
#504=CARTESIAN_POINT('',(0.300000000000002,0.,0.));
#505=CARTESIAN_POINT('',(0.300000000000002,0.,-16.));
#506=CARTESIAN_POINT('',(0.,15.7,0.));
#507=CARTESIAN_POINT('',(0.,0.,0.));
#508=CARTESIAN_POINT('',(0.,0.,-13.45));
#509=CARTESIAN_POINT('',(0.0999999999999991,0.,0.));
#510=CARTESIAN_POINT('',(0.100000000000003,0.,0.));
#511=CARTESIAN_POINT('',(0.100000000000003,0.,-13.35));
#512=CARTESIAN_POINT('',(50.,0.,0.));
#513=CARTESIAN_POINT('',(2.73671868381702,0.,0.));
#514=CARTESIAN_POINT('',(2.73671868381702,0.,-13.35));
#515=CARTESIAN_POINT('',(4.5,0.,0.));
#516=CARTESIAN_POINT('',(6.26328131618298,0.,0.));
#517=CARTESIAN_POINT('',(6.26328131618298,0.,-13.35));
#518=CARTESIAN_POINT('',(50.,0.,0.));
#519=CARTESIAN_POINT('',(8.9,0.,0.));
#520=CARTESIAN_POINT('',(8.9,0.,-13.35));
#521=CARTESIAN_POINT('',(8.9,0.,0.));
#522=CARTESIAN_POINT('',(9.,0.,0.));
#523=CARTESIAN_POINT('',(9.,0.,-13.45));
#524=CARTESIAN_POINT('',(9.,13.45,0.));
#525=CARTESIAN_POINT('',(9.,0.,0.));
#526=CARTESIAN_POINT('',(9.,0.,-15.7));
#527=CARTESIAN_POINT('',(8.7,0.,0.));
#528=CARTESIAN_POINT('',(8.7,0.,0.));
#529=CARTESIAN_POINT('',(8.7,0.,-16.));
#530=CARTESIAN_POINT('',(50.,0.,0.));
#531=CARTESIAN_POINT('',(0.,0.,0.));
#532=CARTESIAN_POINT('',(1.0842021724855E-16,10.15,0.));
#533=CARTESIAN_POINT('',(0.,0.,0.));
#534=CARTESIAN_POINT('',(0.,0.,-7.8));
#535=CARTESIAN_POINT('',(0.,0.,0.));
#536=CARTESIAN_POINT('',(0.,0.,-10.15));
#537=CARTESIAN_POINT('',(0.300000000000002,0.,0.));
#538=CARTESIAN_POINT('',(0.299999999999995,0.,0.));
#539=CARTESIAN_POINT('',(0.299999999999995,0.,-7.5));
#540=CARTESIAN_POINT('',(100.,0.,0.));
#541=CARTESIAN_POINT('',(8.7,0.,0.));
#542=CARTESIAN_POINT('',(8.7,0.,-7.5));
#543=CARTESIAN_POINT('',(8.7,0.,0.));
#544=CARTESIAN_POINT('',(9.00000000000001,0.,0.));
#545=CARTESIAN_POINT('',(9.00000000000001,0.,-7.8));
#546=CARTESIAN_POINT('',(9.,7.8,0.));
#547=CARTESIAN_POINT('',(9.00000000000001,0.,0.));
#548=CARTESIAN_POINT('',(9.00000000000001,0.,-10.15));
#549=CARTESIAN_POINT('',(8.9,0.,0.));
#550=CARTESIAN_POINT('',(8.90000000000001,0.,0.));
#551=CARTESIAN_POINT('',(8.90000000000001,0.,-10.25));
#552=CARTESIAN_POINT('',(100.,0.,0.));
#553=CARTESIAN_POINT('',(6.34909734735627,0.,0.));
#554=CARTESIAN_POINT('',(6.34909734735627,0.,-10.25));
#555=CARTESIAN_POINT('',(4.5,0.,0.));
#556=CARTESIAN_POINT('',(2.65090265264373,0.,0.));
#557=CARTESIAN_POINT('',(2.65090265264373,0.,-10.25));
#558=CARTESIAN_POINT('',(100.,0.,0.));
#559=CARTESIAN_POINT('',(0.100000000000003,0.,0.));
#560=CARTESIAN_POINT('',(0.100000000000003,0.,-10.25));
#561=CARTESIAN_POINT('',(0.100000000000001,0.,0.));
#562=CARTESIAN_POINT('',(0.,0.,0.));
#563=MECHANICAL_DESIGN_GEOMETRIC_PRESENTATION_REPRESENTATION('',(#297,#298,
#299),#564);
#564=(
GEOMETRIC_REPRESENTATION_CONTEXT(3)
GLOBAL_UNCERTAINTY_ASSIGNED_CONTEXT((#568))
GLOBAL_UNIT_ASSIGNED_CONTEXT((#574,#573,#572))
REPRESENTATION_CONTEXT('SKF_6002','TOP_LEVEL_ASSEMBLY_PART')
);
#565=(
GEOMETRIC_REPRESENTATION_CONTEXT(3)
GLOBAL_UNCERTAINTY_ASSIGNED_CONTEXT((#569))
GLOBAL_UNIT_ASSIGNED_CONTEXT((#574,#573,#572))
REPRESENTATION_CONTEXT('SKF_6002_ball1','COMPONENT_PART')
);
#566=(
GEOMETRIC_REPRESENTATION_CONTEXT(3)
GLOBAL_UNCERTAINTY_ASSIGNED_CONTEXT((#570))
GLOBAL_UNIT_ASSIGNED_CONTEXT((#574,#573,#572))
REPRESENTATION_CONTEXT('SKF_6002_or','COMPONENT_PART')
);
#567=(
GEOMETRIC_REPRESENTATION_CONTEXT(3)
GLOBAL_UNCERTAINTY_ASSIGNED_CONTEXT((#571))
GLOBAL_UNIT_ASSIGNED_CONTEXT((#574,#573,#572))
REPRESENTATION_CONTEXT('SKF_6002_ir','COMPONENT_PART')
);
#568=UNCERTAINTY_MEASURE_WITH_UNIT(LENGTH_MEASURE(0.005),#574,
'DISTANCE_ACCURACY_VALUE','Maximum Tolerance applied to model');
#569=UNCERTAINTY_MEASURE_WITH_UNIT(LENGTH_MEASURE(0.005),#574,
'DISTANCE_ACCURACY_VALUE','Maximum Tolerance applied to model');
#570=UNCERTAINTY_MEASURE_WITH_UNIT(LENGTH_MEASURE(0.005),#574,
'DISTANCE_ACCURACY_VALUE','Maximum Tolerance applied to model');
#571=UNCERTAINTY_MEASURE_WITH_UNIT(LENGTH_MEASURE(0.005),#574,
'DISTANCE_ACCURACY_VALUE','Maximum Tolerance applied to model');
#572=(
NAMED_UNIT(*)
SI_UNIT($,.STERADIAN.)
SOLID_ANGLE_UNIT()
);
#573=(
NAMED_UNIT(*)
PLANE_ANGLE_UNIT()
SI_UNIT($,.RADIAN.)
);
#574=(
LENGTH_UNIT()
NAMED_UNIT(*)
SI_UNIT(.MILLI.,.METRE.)
);
#575=PRODUCT_DEFINITION_SHAPE('','',#590);
#576=PRODUCT_DEFINITION_SHAPE('','',#591);
#577=PRODUCT_DEFINITION_SHAPE(' ','NAUO PRDDFN',#170);
#578=PRODUCT_DEFINITION_SHAPE(' ','NAUO PRDDFN',#171);
#579=PRODUCT_DEFINITION_SHAPE(' ','NAUO PRDDFN',#172);
#580=PRODUCT_DEFINITION_SHAPE(' ','NAUO PRDDFN',#173);
#581=PRODUCT_DEFINITION_SHAPE(' ','NAUO PRDDFN',#174);
#582=PRODUCT_DEFINITION_SHAPE(' ','NAUO PRDDFN',#175);
#583=PRODUCT_DEFINITION_SHAPE(' ','NAUO PRDDFN',#176);
#584=PRODUCT_DEFINITION_SHAPE(' ','NAUO PRDDFN',#177);
#585=PRODUCT_DEFINITION_SHAPE(' ','NAUO PRDDFN',#178);
#586=PRODUCT_DEFINITION_SHAPE('','',#592);
#587=PRODUCT_DEFINITION_SHAPE(' ','NAUO PRDDFN',#179);
#588=PRODUCT_DEFINITION_SHAPE('','',#593);
#589=PRODUCT_DEFINITION_SHAPE(' ','NAUO PRDDFN',#180);
#590=PRODUCT_DEFINITION('','',#598,#594);
#591=PRODUCT_DEFINITION('','',#599,#595);
#592=PRODUCT_DEFINITION('','',#600,#596);
#593=PRODUCT_DEFINITION('','',#601,#597);
#594=DESIGN_CONTEXT('',#619,'design');
#595=DESIGN_CONTEXT('',#619,'design');
#596=DESIGN_CONTEXT('',#619,'design');
#597=DESIGN_CONTEXT('',#619,'design');
#598=PRODUCT_DEFINITION_FORMATION_WITH_SPECIFIED_SOURCE('','',#606,
 .NOT_KNOWN.);
#599=PRODUCT_DEFINITION_FORMATION_WITH_SPECIFIED_SOURCE('','',#607,
 .NOT_KNOWN.);
#600=PRODUCT_DEFINITION_FORMATION_WITH_SPECIFIED_SOURCE('','',#608,
 .NOT_KNOWN.);
#601=PRODUCT_DEFINITION_FORMATION_WITH_SPECIFIED_SOURCE('','',#609,
 .NOT_KNOWN.);
#602=PRODUCT_RELATED_PRODUCT_CATEGORY('','',(#606));
#603=PRODUCT_RELATED_PRODUCT_CATEGORY('','',(#607));
#604=PRODUCT_RELATED_PRODUCT_CATEGORY('','',(#608));
#605=PRODUCT_RELATED_PRODUCT_CATEGORY('','',(#609));
#606=PRODUCT('SKF_6002','SKF_6002','SKF_6002',(#614));
#607=PRODUCT('SKF_6002_ball1','SKF_6002_ball1','SKF_6002_ball1',(#615));
#608=PRODUCT('SKF_6002_or','SKF_6002_or','SKF_6002_or',(#616));
#609=PRODUCT('SKF_6002_ir','SKF_6002_ir','SKF_6002_ir',(#617));
#610=PRODUCT_CATEGORY('','');
#611=PRODUCT_CATEGORY('','');
#612=PRODUCT_CATEGORY('','');
#613=PRODUCT_CATEGORY('','');
#614=MECHANICAL_CONTEXT('',#619,'mechanical');
#615=MECHANICAL_CONTEXT('',#619,'mechanical');
#616=MECHANICAL_CONTEXT('',#619,'mechanical');
#617=MECHANICAL_CONTEXT('',#619,'mechanical');
#618=APPLICATION_PROTOCOL_DEFINITION('international standard',
'config_control_design',2010,#619);
#619=APPLICATION_CONTEXT(
'configuration controlled 3D designs of mechanical parts and assemblie
s');
ENDSEC;
END-ISO-10303-21;
