ISO-10303-21;
HEADER;
/* Generated by software containing ST-Developer
 * from STEP Tools, Inc. (www.steptools.com) 
 */
/* OPTION: using custom renumber hook */

FILE_DESCRIPTION(
/* description */ ('STEP AP203'),
/* implementation_level */ '2;1');

FILE_NAME(
/* name */ 'SKF_6003',
/* time_stamp */ '2023-07-12T12:28:59+02:00',
/* author */ ('License CC BY-ND 4.0'),
/* organization */ ('CADENAS'),
/* preprocessor_version */ 'ST-DEVELOPER v19.3',
/* originating_system */ 'PARTsolutions',
/* authorisation */ '  ');

FILE_SCHEMA (('CONFIG_CONTROL_DESIGN'));
ENDSEC;

DATA;
#10=PROPERTY_DEFINITION_REPRESENTATION(#14,#12);
#11=PROPERTY_DEFINITION_REPRESENTATION(#15,#13);
#12=REPRESENTATION('',(#16),#572);
#13=REPRESENTATION('',(#17),#572);
#14=PROPERTY_DEFINITION('pmi validation property','',#583);
#15=PROPERTY_DEFINITION('pmi validation property','',#583);
#16=VALUE_REPRESENTATION_ITEM('number of annotations',COUNT_MEASURE(0.));
#17=VALUE_REPRESENTATION_ITEM('number of views',COUNT_MEASURE(0.));
#18=CYLINDRICAL_SURFACE('',#353,14.6);
#19=CYLINDRICAL_SURFACE('',#357,14.6);
#20=CYLINDRICAL_SURFACE('',#365,17.5);
#21=CYLINDRICAL_SURFACE('',#372,8.5);
#22=CYLINDRICAL_SURFACE('',#380,11.5);
#23=CYLINDRICAL_SURFACE('',#384,11.5);
#24=PLANE('',#349);
#25=PLANE('',#361);
#26=PLANE('',#367);
#27=PLANE('',#376);
#28=ORIENTED_EDGE('',*,*,#68,.T.);
#29=ORIENTED_EDGE('',*,*,#69,.F.);
#30=ORIENTED_EDGE('',*,*,#70,.T.);
#31=ORIENTED_EDGE('',*,*,#68,.F.);
#32=ORIENTED_EDGE('',*,*,#71,.T.);
#33=ORIENTED_EDGE('',*,*,#70,.F.);
#34=ORIENTED_EDGE('',*,*,#72,.T.);
#35=ORIENTED_EDGE('',*,*,#71,.F.);
#36=ORIENTED_EDGE('',*,*,#72,.F.);
#37=ORIENTED_EDGE('',*,*,#73,.T.);
#38=ORIENTED_EDGE('',*,*,#74,.T.);
#39=ORIENTED_EDGE('',*,*,#73,.F.);
#40=ORIENTED_EDGE('',*,*,#75,.T.);
#41=ORIENTED_EDGE('',*,*,#74,.F.);
#42=ORIENTED_EDGE('',*,*,#76,.T.);
#43=ORIENTED_EDGE('',*,*,#75,.F.);
#44=ORIENTED_EDGE('',*,*,#77,.T.);
#45=ORIENTED_EDGE('',*,*,#76,.F.);
#46=ORIENTED_EDGE('',*,*,#69,.T.);
#47=ORIENTED_EDGE('',*,*,#77,.F.);
#48=ORIENTED_EDGE('',*,*,#78,.T.);
#49=ORIENTED_EDGE('',*,*,#79,.F.);
#50=ORIENTED_EDGE('',*,*,#80,.T.);
#51=ORIENTED_EDGE('',*,*,#78,.F.);
#52=ORIENTED_EDGE('',*,*,#81,.T.);
#53=ORIENTED_EDGE('',*,*,#80,.F.);
#54=ORIENTED_EDGE('',*,*,#82,.T.);
#55=ORIENTED_EDGE('',*,*,#81,.F.);
#56=ORIENTED_EDGE('',*,*,#83,.T.);
#57=ORIENTED_EDGE('',*,*,#82,.F.);
#58=ORIENTED_EDGE('',*,*,#84,.T.);
#59=ORIENTED_EDGE('',*,*,#83,.F.);
#60=ORIENTED_EDGE('',*,*,#85,.T.);
#61=ORIENTED_EDGE('',*,*,#84,.F.);
#62=ORIENTED_EDGE('',*,*,#85,.F.);
#63=ORIENTED_EDGE('',*,*,#86,.T.);
#64=ORIENTED_EDGE('',*,*,#87,.T.);
#65=ORIENTED_EDGE('',*,*,#86,.F.);
#66=ORIENTED_EDGE('',*,*,#79,.T.);
#67=ORIENTED_EDGE('',*,*,#87,.F.);
#68=EDGE_CURVE('',#214,#214,#88,.T.);
#69=EDGE_CURVE('',#215,#215,#89,.T.);
#70=EDGE_CURVE('',#216,#216,#90,.T.);
#71=EDGE_CURVE('',#217,#217,#91,.T.);
#72=EDGE_CURVE('',#218,#218,#92,.T.);
#73=EDGE_CURVE('',#219,#219,#93,.T.);
#74=EDGE_CURVE('',#220,#220,#94,.T.);
#75=EDGE_CURVE('',#221,#221,#95,.T.);
#76=EDGE_CURVE('',#222,#222,#96,.T.);
#77=EDGE_CURVE('',#223,#223,#97,.T.);
#78=EDGE_CURVE('',#224,#224,#98,.T.);
#79=EDGE_CURVE('',#225,#225,#99,.T.);
#80=EDGE_CURVE('',#226,#226,#100,.T.);
#81=EDGE_CURVE('',#227,#227,#101,.T.);
#82=EDGE_CURVE('',#228,#228,#102,.T.);
#83=EDGE_CURVE('',#229,#229,#103,.T.);
#84=EDGE_CURVE('',#230,#230,#104,.T.);
#85=EDGE_CURVE('',#231,#231,#105,.T.);
#86=EDGE_CURVE('',#232,#232,#106,.T.);
#87=EDGE_CURVE('',#233,#233,#107,.T.);
#88=CIRCLE('',#347,17.2);
#89=CIRCLE('',#348,17.5);
#90=CIRCLE('',#350,14.7);
#91=CIRCLE('',#352,14.6);
#92=CIRCLE('',#354,14.6);
#93=CIRCLE('',#356,14.6);
#94=CIRCLE('',#358,14.6);
#95=CIRCLE('',#360,14.7);
#96=CIRCLE('',#362,17.2);
#97=CIRCLE('',#364,17.5);
#98=CIRCLE('',#368,8.8);
#99=CIRCLE('',#369,11.4);
#100=CIRCLE('',#371,8.5);
#101=CIRCLE('',#373,8.5);
#102=CIRCLE('',#375,8.8);
#103=CIRCLE('',#377,11.4);
#104=CIRCLE('',#379,11.5);
#105=CIRCLE('',#381,11.5);
#106=CIRCLE('',#383,11.5);
#107=CIRCLE('',#385,11.5);
#108=EDGE_LOOP('',(#28));
#109=EDGE_LOOP('',(#29));
#110=EDGE_LOOP('',(#30));
#111=EDGE_LOOP('',(#31));
#112=EDGE_LOOP('',(#32));
#113=EDGE_LOOP('',(#33));
#114=EDGE_LOOP('',(#34));
#115=EDGE_LOOP('',(#35));
#116=EDGE_LOOP('',(#36));
#117=EDGE_LOOP('',(#37));
#118=EDGE_LOOP('',(#38));
#119=EDGE_LOOP('',(#39));
#120=EDGE_LOOP('',(#40));
#121=EDGE_LOOP('',(#41));
#122=EDGE_LOOP('',(#42));
#123=EDGE_LOOP('',(#43));
#124=EDGE_LOOP('',(#44));
#125=EDGE_LOOP('',(#45));
#126=EDGE_LOOP('',(#46));
#127=EDGE_LOOP('',(#47));
#128=EDGE_LOOP('',(#48));
#129=EDGE_LOOP('',(#49));
#130=EDGE_LOOP('',(#50));
#131=EDGE_LOOP('',(#51));
#132=EDGE_LOOP('',(#52));
#133=EDGE_LOOP('',(#53));
#134=EDGE_LOOP('',(#54));
#135=EDGE_LOOP('',(#55));
#136=EDGE_LOOP('',(#56));
#137=EDGE_LOOP('',(#57));
#138=EDGE_LOOP('',(#58));
#139=EDGE_LOOP('',(#59));
#140=EDGE_LOOP('',(#60));
#141=EDGE_LOOP('',(#61));
#142=EDGE_LOOP('',(#62));
#143=EDGE_LOOP('',(#63));
#144=EDGE_LOOP('',(#64));
#145=EDGE_LOOP('',(#65));
#146=EDGE_LOOP('',(#66));
#147=EDGE_LOOP('',(#67));
#148=TOROIDAL_SURFACE('',#346,17.2,0.299999999999998);
#149=TOROIDAL_SURFACE('',#351,14.7,0.0999999999999974);
#150=TOROIDAL_SURFACE('',#355,13.,2.381);
#151=TOROIDAL_SURFACE('',#359,14.7,0.0999999999999994);
#152=TOROIDAL_SURFACE('',#363,17.2,0.3);
#153=TOROIDAL_SURFACE('',#370,8.8,0.300000000000002);
#154=TOROIDAL_SURFACE('',#374,8.80000000000001,0.300000000000005);
#155=TOROIDAL_SURFACE('',#378,11.4,0.100000000000001);
#156=TOROIDAL_SURFACE('',#382,13.,2.381);
#157=TOROIDAL_SURFACE('',#386,11.4,0.100000000000003);
#158=COLOUR_RGB('',0.689999997615814,0.689999997615814,0.689999997615814);
#159=CONTEXT_DEPENDENT_SHAPE_REPRESENTATION(#183,#585);
#160=CONTEXT_DEPENDENT_SHAPE_REPRESENTATION(#184,#586);
#161=CONTEXT_DEPENDENT_SHAPE_REPRESENTATION(#185,#587);
#162=CONTEXT_DEPENDENT_SHAPE_REPRESENTATION(#186,#588);
#163=CONTEXT_DEPENDENT_SHAPE_REPRESENTATION(#187,#589);
#164=CONTEXT_DEPENDENT_SHAPE_REPRESENTATION(#188,#590);
#165=CONTEXT_DEPENDENT_SHAPE_REPRESENTATION(#189,#591);
#166=CONTEXT_DEPENDENT_SHAPE_REPRESENTATION(#190,#592);
#167=CONTEXT_DEPENDENT_SHAPE_REPRESENTATION(#191,#593);
#168=CONTEXT_DEPENDENT_SHAPE_REPRESENTATION(#192,#594);
#169=CONTEXT_DEPENDENT_SHAPE_REPRESENTATION(#193,#596);
#170=CONTEXT_DEPENDENT_SHAPE_REPRESENTATION(#194,#598);
#171=NEXT_ASSEMBLY_USAGE_OCCURRENCE('NAUO1','SKF_6003_ball1',
'SKF_6003_ball1',#599,#600,'');
#172=NEXT_ASSEMBLY_USAGE_OCCURRENCE('NAUO2','SKF_6003_ball1',
'SKF_6003_ball1',#599,#600,'');
#173=NEXT_ASSEMBLY_USAGE_OCCURRENCE('NAUO3','SKF_6003_ball1',
'SKF_6003_ball1',#599,#600,'');
#174=NEXT_ASSEMBLY_USAGE_OCCURRENCE('NAUO4','SKF_6003_ball1',
'SKF_6003_ball1',#599,#600,'');
#175=NEXT_ASSEMBLY_USAGE_OCCURRENCE('NAUO5','SKF_6003_ball1',
'SKF_6003_ball1',#599,#600,'');
#176=NEXT_ASSEMBLY_USAGE_OCCURRENCE('NAUO6','SKF_6003_ball1',
'SKF_6003_ball1',#599,#600,'');
#177=NEXT_ASSEMBLY_USAGE_OCCURRENCE('NAUO7','SKF_6003_ball1',
'SKF_6003_ball1',#599,#600,'');
#178=NEXT_ASSEMBLY_USAGE_OCCURRENCE('NAUO8','SKF_6003_ball1',
'SKF_6003_ball1',#599,#600,'');
#179=NEXT_ASSEMBLY_USAGE_OCCURRENCE('NAUO9','SKF_6003_ball1',
'SKF_6003_ball1',#599,#600,'');
#180=NEXT_ASSEMBLY_USAGE_OCCURRENCE('NAUO10','SKF_6003_ball1',
'SKF_6003_ball1',#599,#600,'');
#181=NEXT_ASSEMBLY_USAGE_OCCURRENCE('NAUO11','SKF_6003_or',
'SKF_6003_or',#599,#601,'');
#182=NEXT_ASSEMBLY_USAGE_OCCURRENCE('NAUO12','SKF_6003_ir',
'SKF_6003_ir',#599,#602,'');
#183=(
REPRESENTATION_RELATIONSHIP(' ',' ',#331,#330)
REPRESENTATION_RELATIONSHIP_WITH_TRANSFORMATION(#195)
SHAPE_REPRESENTATION_RELATIONSHIP()
);
#184=(
REPRESENTATION_RELATIONSHIP(' ',' ',#331,#330)
REPRESENTATION_RELATIONSHIP_WITH_TRANSFORMATION(#196)
SHAPE_REPRESENTATION_RELATIONSHIP()
);
#185=(
REPRESENTATION_RELATIONSHIP(' ',' ',#331,#330)
REPRESENTATION_RELATIONSHIP_WITH_TRANSFORMATION(#197)
SHAPE_REPRESENTATION_RELATIONSHIP()
);
#186=(
REPRESENTATION_RELATIONSHIP(' ',' ',#331,#330)
REPRESENTATION_RELATIONSHIP_WITH_TRANSFORMATION(#198)
SHAPE_REPRESENTATION_RELATIONSHIP()
);
#187=(
REPRESENTATION_RELATIONSHIP(' ',' ',#331,#330)
REPRESENTATION_RELATIONSHIP_WITH_TRANSFORMATION(#199)
SHAPE_REPRESENTATION_RELATIONSHIP()
);
#188=(
REPRESENTATION_RELATIONSHIP(' ',' ',#331,#330)
REPRESENTATION_RELATIONSHIP_WITH_TRANSFORMATION(#200)
SHAPE_REPRESENTATION_RELATIONSHIP()
);
#189=(
REPRESENTATION_RELATIONSHIP(' ',' ',#331,#330)
REPRESENTATION_RELATIONSHIP_WITH_TRANSFORMATION(#201)
SHAPE_REPRESENTATION_RELATIONSHIP()
);
#190=(
REPRESENTATION_RELATIONSHIP(' ',' ',#331,#330)
REPRESENTATION_RELATIONSHIP_WITH_TRANSFORMATION(#202)
SHAPE_REPRESENTATION_RELATIONSHIP()
);
#191=(
REPRESENTATION_RELATIONSHIP(' ',' ',#331,#330)
REPRESENTATION_RELATIONSHIP_WITH_TRANSFORMATION(#203)
SHAPE_REPRESENTATION_RELATIONSHIP()
);
#192=(
REPRESENTATION_RELATIONSHIP(' ',' ',#331,#330)
REPRESENTATION_RELATIONSHIP_WITH_TRANSFORMATION(#204)
SHAPE_REPRESENTATION_RELATIONSHIP()
);
#193=(
REPRESENTATION_RELATIONSHIP(' ',' ',#332,#330)
REPRESENTATION_RELATIONSHIP_WITH_TRANSFORMATION(#205)
SHAPE_REPRESENTATION_RELATIONSHIP()
);
#194=(
REPRESENTATION_RELATIONSHIP(' ',' ',#333,#330)
REPRESENTATION_RELATIONSHIP_WITH_TRANSFORMATION(#206)
SHAPE_REPRESENTATION_RELATIONSHIP()
);
#195=ITEM_DEFINED_TRANSFORMATION(' ',' ',#334,#336);
#196=ITEM_DEFINED_TRANSFORMATION(' ',' ',#334,#337);
#197=ITEM_DEFINED_TRANSFORMATION(' ',' ',#334,#338);
#198=ITEM_DEFINED_TRANSFORMATION(' ',' ',#334,#339);
#199=ITEM_DEFINED_TRANSFORMATION(' ',' ',#334,#340);
#200=ITEM_DEFINED_TRANSFORMATION(' ',' ',#334,#341);
#201=ITEM_DEFINED_TRANSFORMATION(' ',' ',#334,#342);
#202=ITEM_DEFINED_TRANSFORMATION(' ',' ',#334,#343);
#203=ITEM_DEFINED_TRANSFORMATION(' ',' ',#334,#344);
#204=ITEM_DEFINED_TRANSFORMATION(' ',' ',#334,#345);
#205=ITEM_DEFINED_TRANSFORMATION(' ',' ',#334,#366);
#206=ITEM_DEFINED_TRANSFORMATION(' ',' ',#334,#387);
#207=SHAPE_REPRESENTATION_RELATIONSHIP('','',#331,#210);
#208=SHAPE_REPRESENTATION_RELATIONSHIP('','',#332,#211);
#209=SHAPE_REPRESENTATION_RELATIONSHIP('','',#333,#212);
#210=ADVANCED_BREP_SHAPE_REPRESENTATION('',(#323),#573);
#211=ADVANCED_BREP_SHAPE_REPRESENTATION('',(#324),#574);
#212=ADVANCED_BREP_SHAPE_REPRESENTATION('',(#325),#575);
#213=VERTEX_POINT('',#498);
#214=VERTEX_POINT('',#511);
#215=VERTEX_POINT('',#513);
#216=VERTEX_POINT('',#516);
#217=VERTEX_POINT('',#519);
#218=VERTEX_POINT('',#522);
#219=VERTEX_POINT('',#525);
#220=VERTEX_POINT('',#528);
#221=VERTEX_POINT('',#531);
#222=VERTEX_POINT('',#534);
#223=VERTEX_POINT('',#537);
#224=VERTEX_POINT('',#542);
#225=VERTEX_POINT('',#544);
#226=VERTEX_POINT('',#547);
#227=VERTEX_POINT('',#550);
#228=VERTEX_POINT('',#553);
#229=VERTEX_POINT('',#556);
#230=VERTEX_POINT('',#559);
#231=VERTEX_POINT('',#562);
#232=VERTEX_POINT('',#565);
#233=VERTEX_POINT('',#568);
#234=VERTEX_LOOP('',#213);
#235=FACE_BOUND('',#234,.T.);
#236=FACE_BOUND('',#108,.T.);
#237=FACE_BOUND('',#109,.T.);
#238=FACE_BOUND('',#110,.T.);
#239=FACE_BOUND('',#111,.T.);
#240=FACE_BOUND('',#112,.T.);
#241=FACE_BOUND('',#113,.T.);
#242=FACE_BOUND('',#114,.T.);
#243=FACE_BOUND('',#115,.T.);
#244=FACE_BOUND('',#116,.T.);
#245=FACE_BOUND('',#117,.T.);
#246=FACE_BOUND('',#118,.T.);
#247=FACE_BOUND('',#119,.T.);
#248=FACE_BOUND('',#120,.T.);
#249=FACE_BOUND('',#121,.T.);
#250=FACE_BOUND('',#122,.T.);
#251=FACE_BOUND('',#123,.T.);
#252=FACE_BOUND('',#124,.T.);
#253=FACE_BOUND('',#125,.T.);
#254=FACE_BOUND('',#126,.T.);
#255=FACE_BOUND('',#127,.T.);
#256=FACE_BOUND('',#128,.T.);
#257=FACE_BOUND('',#129,.T.);
#258=FACE_BOUND('',#130,.T.);
#259=FACE_BOUND('',#131,.T.);
#260=FACE_BOUND('',#132,.T.);
#261=FACE_BOUND('',#133,.T.);
#262=FACE_BOUND('',#134,.T.);
#263=FACE_BOUND('',#135,.T.);
#264=FACE_BOUND('',#136,.T.);
#265=FACE_BOUND('',#137,.T.);
#266=FACE_BOUND('',#138,.T.);
#267=FACE_BOUND('',#139,.T.);
#268=FACE_BOUND('',#140,.T.);
#269=FACE_BOUND('',#141,.T.);
#270=FACE_BOUND('',#142,.T.);
#271=FACE_BOUND('',#143,.T.);
#272=FACE_BOUND('',#144,.T.);
#273=FACE_BOUND('',#145,.T.);
#274=FACE_BOUND('',#146,.T.);
#275=FACE_BOUND('',#147,.T.);
#276=SPHERICAL_SURFACE('',#335,2.381);
#277=ADVANCED_FACE('',(#235),#276,.T.);
#278=ADVANCED_FACE('',(#236,#237),#148,.T.);
#279=ADVANCED_FACE('',(#238,#239),#24,.T.);
#280=ADVANCED_FACE('',(#240,#241),#149,.T.);
#281=ADVANCED_FACE('',(#242,#243),#18,.F.);
#282=ADVANCED_FACE('',(#244,#245),#150,.F.);
#283=ADVANCED_FACE('',(#246,#247),#19,.F.);
#284=ADVANCED_FACE('',(#248,#249),#151,.T.);
#285=ADVANCED_FACE('',(#250,#251),#25,.T.);
#286=ADVANCED_FACE('',(#252,#253),#152,.T.);
#287=ADVANCED_FACE('',(#254,#255),#20,.T.);
#288=ADVANCED_FACE('',(#256,#257),#26,.T.);
#289=ADVANCED_FACE('',(#258,#259),#153,.T.);
#290=ADVANCED_FACE('',(#260,#261),#21,.F.);
#291=ADVANCED_FACE('',(#262,#263),#154,.T.);
#292=ADVANCED_FACE('',(#264,#265),#27,.T.);
#293=ADVANCED_FACE('',(#266,#267),#155,.T.);
#294=ADVANCED_FACE('',(#268,#269),#22,.T.);
#295=ADVANCED_FACE('',(#270,#271),#156,.F.);
#296=ADVANCED_FACE('',(#272,#273),#23,.T.);
#297=ADVANCED_FACE('',(#274,#275),#157,.T.);
#298=CLOSED_SHELL('',(#277));
#299=CLOSED_SHELL('',(#278,#279,#280,#281,#282,#283,#284,#285,#286,#287));
#300=CLOSED_SHELL('',(#288,#289,#290,#291,#292,#293,#294,#295,#296,#297));
#301=STYLED_ITEM('',(#304),#323);
#302=STYLED_ITEM('',(#305),#324);
#303=STYLED_ITEM('',(#306),#325);
#304=PRESENTATION_STYLE_ASSIGNMENT((#307));
#305=PRESENTATION_STYLE_ASSIGNMENT((#308));
#306=PRESENTATION_STYLE_ASSIGNMENT((#309));
#307=SURFACE_STYLE_USAGE(.BOTH.,#310);
#308=SURFACE_STYLE_USAGE(.BOTH.,#311);
#309=SURFACE_STYLE_USAGE(.BOTH.,#312);
#310=SURFACE_SIDE_STYLE('',(#313));
#311=SURFACE_SIDE_STYLE('',(#314));
#312=SURFACE_SIDE_STYLE('',(#315));
#313=SURFACE_STYLE_FILL_AREA(#316);
#314=SURFACE_STYLE_FILL_AREA(#317);
#315=SURFACE_STYLE_FILL_AREA(#318);
#316=FILL_AREA_STYLE('',(#319));
#317=FILL_AREA_STYLE('',(#320));
#318=FILL_AREA_STYLE('',(#321));
#319=FILL_AREA_STYLE_COLOUR('',#322);
#320=FILL_AREA_STYLE_COLOUR('',#158);
#321=FILL_AREA_STYLE_COLOUR('',#158);
#322=DRAUGHTING_PRE_DEFINED_COLOUR('yellow');
#323=MANIFOLD_SOLID_BREP('SKF_6003_ball1',#298);
#324=MANIFOLD_SOLID_BREP('SKF_6003_or',#299);
#325=MANIFOLD_SOLID_BREP('SKF_6003_ir',#300);
#326=SHAPE_DEFINITION_REPRESENTATION(#583,#330);
#327=SHAPE_DEFINITION_REPRESENTATION(#584,#331);
#328=SHAPE_DEFINITION_REPRESENTATION(#595,#332);
#329=SHAPE_DEFINITION_REPRESENTATION(#597,#333);
#330=SHAPE_REPRESENTATION('SKF_6003',(#334,#336,#337,#338,#339,#340,#341,
#342,#343,#344,#345,#366,#387),#572);
#331=SHAPE_REPRESENTATION('SKF_6003_ball1',(#334),#573);
#332=SHAPE_REPRESENTATION('SKF_6003_or',(#334),#574);
#333=SHAPE_REPRESENTATION('SKF_6003_ir',(#334),#575);
#334=AXIS2_PLACEMENT_3D('',#496,#388,#389);
#335=AXIS2_PLACEMENT_3D('',#497,#390,#391);
#336=AXIS2_PLACEMENT_3D('',#499,#392,#393);
#337=AXIS2_PLACEMENT_3D('',#500,#394,#395);
#338=AXIS2_PLACEMENT_3D('',#501,#396,#397);
#339=AXIS2_PLACEMENT_3D('',#502,#398,#399);
#340=AXIS2_PLACEMENT_3D('',#503,#400,#401);
#341=AXIS2_PLACEMENT_3D('',#504,#402,#403);
#342=AXIS2_PLACEMENT_3D('',#505,#404,#405);
#343=AXIS2_PLACEMENT_3D('',#506,#406,#407);
#344=AXIS2_PLACEMENT_3D('',#507,#408,#409);
#345=AXIS2_PLACEMENT_3D('',#508,#410,#411);
#346=AXIS2_PLACEMENT_3D('',#509,#412,#413);
#347=AXIS2_PLACEMENT_3D('',#510,#414,#415);
#348=AXIS2_PLACEMENT_3D('',#512,#416,#417);
#349=AXIS2_PLACEMENT_3D('',#514,#418,#419);
#350=AXIS2_PLACEMENT_3D('',#515,#420,#421);
#351=AXIS2_PLACEMENT_3D('',#517,#422,#423);
#352=AXIS2_PLACEMENT_3D('',#518,#424,#425);
#353=AXIS2_PLACEMENT_3D('',#520,#426,#427);
#354=AXIS2_PLACEMENT_3D('',#521,#428,#429);
#355=AXIS2_PLACEMENT_3D('',#523,#430,#431);
#356=AXIS2_PLACEMENT_3D('',#524,#432,#433);
#357=AXIS2_PLACEMENT_3D('',#526,#434,#435);
#358=AXIS2_PLACEMENT_3D('',#527,#436,#437);
#359=AXIS2_PLACEMENT_3D('',#529,#438,#439);
#360=AXIS2_PLACEMENT_3D('',#530,#440,#441);
#361=AXIS2_PLACEMENT_3D('',#532,#442,#443);
#362=AXIS2_PLACEMENT_3D('',#533,#444,#445);
#363=AXIS2_PLACEMENT_3D('',#535,#446,#447);
#364=AXIS2_PLACEMENT_3D('',#536,#448,#449);
#365=AXIS2_PLACEMENT_3D('',#538,#450,#451);
#366=AXIS2_PLACEMENT_3D('',#539,#452,#453);
#367=AXIS2_PLACEMENT_3D('',#540,#454,#455);
#368=AXIS2_PLACEMENT_3D('',#541,#456,#457);
#369=AXIS2_PLACEMENT_3D('',#543,#458,#459);
#370=AXIS2_PLACEMENT_3D('',#545,#460,#461);
#371=AXIS2_PLACEMENT_3D('',#546,#462,#463);
#372=AXIS2_PLACEMENT_3D('',#548,#464,#465);
#373=AXIS2_PLACEMENT_3D('',#549,#466,#467);
#374=AXIS2_PLACEMENT_3D('',#551,#468,#469);
#375=AXIS2_PLACEMENT_3D('',#552,#470,#471);
#376=AXIS2_PLACEMENT_3D('',#554,#472,#473);
#377=AXIS2_PLACEMENT_3D('',#555,#474,#475);
#378=AXIS2_PLACEMENT_3D('',#557,#476,#477);
#379=AXIS2_PLACEMENT_3D('',#558,#478,#479);
#380=AXIS2_PLACEMENT_3D('',#560,#480,#481);
#381=AXIS2_PLACEMENT_3D('',#561,#482,#483);
#382=AXIS2_PLACEMENT_3D('',#563,#484,#485);
#383=AXIS2_PLACEMENT_3D('',#564,#486,#487);
#384=AXIS2_PLACEMENT_3D('',#566,#488,#489);
#385=AXIS2_PLACEMENT_3D('',#567,#490,#491);
#386=AXIS2_PLACEMENT_3D('',#569,#492,#493);
#387=AXIS2_PLACEMENT_3D('',#570,#494,#495);
#388=DIRECTION('',(0.,0.,1.));
#389=DIRECTION('',(1.,0.,0.));
#390=DIRECTION('',(1.,0.,0.));
#391=DIRECTION('',(0.,-1.,0.));
#392=DIRECTION('',(0.,0.,1.));
#393=DIRECTION('',(-1.,0.,0.));
#394=DIRECTION('',(0.,0.,1.));
#395=DIRECTION('',(-1.,0.,0.));
#396=DIRECTION('',(0.,0.,1.));
#397=DIRECTION('',(-1.,0.,0.));
#398=DIRECTION('',(0.,0.,1.));
#399=DIRECTION('',(-1.,0.,0.));
#400=DIRECTION('',(0.,0.,1.));
#401=DIRECTION('',(-1.,0.,0.));
#402=DIRECTION('',(0.,0.,1.));
#403=DIRECTION('',(-1.,0.,0.));
#404=DIRECTION('',(0.,0.,1.));
#405=DIRECTION('',(-1.,0.,0.));
#406=DIRECTION('',(0.,0.,1.));
#407=DIRECTION('',(-1.,0.,0.));
#408=DIRECTION('',(0.,0.,1.));
#409=DIRECTION('',(-1.,0.,0.));
#410=DIRECTION('',(0.,0.,1.));
#411=DIRECTION('',(-1.,0.,0.));
#412=DIRECTION('',(1.,0.,0.));
#413=DIRECTION('',(0.,0.,-1.));
#414=DIRECTION('',(1.,0.,0.));
#415=DIRECTION('',(0.,0.,-1.));
#416=DIRECTION('',(1.,0.,0.));
#417=DIRECTION('',(0.,0.,-1.));
#418=DIRECTION('',(-1.,0.,0.));
#419=DIRECTION('',(0.,0.,1.));
#420=DIRECTION('',(1.,0.,0.));
#421=DIRECTION('',(0.,0.,-1.));
#422=DIRECTION('',(1.,0.,0.));
#423=DIRECTION('',(0.,0.,-1.));
#424=DIRECTION('',(1.,0.,0.));
#425=DIRECTION('',(0.,0.,-1.));
#426=DIRECTION('',(1.,0.,0.));
#427=DIRECTION('',(0.,0.,-1.));
#428=DIRECTION('',(1.,0.,0.));
#429=DIRECTION('',(0.,0.,-1.));
#430=DIRECTION('',(1.,0.,0.));
#431=DIRECTION('',(0.,0.,-1.));
#432=DIRECTION('',(1.,0.,0.));
#433=DIRECTION('',(0.,0.,-1.));
#434=DIRECTION('',(1.,0.,0.));
#435=DIRECTION('',(0.,0.,-1.));
#436=DIRECTION('',(1.,0.,0.));
#437=DIRECTION('',(0.,0.,-1.));
#438=DIRECTION('',(1.,0.,0.));
#439=DIRECTION('',(0.,0.,-1.));
#440=DIRECTION('',(1.,0.,0.));
#441=DIRECTION('',(0.,0.,-1.));
#442=DIRECTION('',(1.,0.,0.));
#443=DIRECTION('',(0.,0.,-1.));
#444=DIRECTION('',(1.,0.,0.));
#445=DIRECTION('',(0.,0.,-1.));
#446=DIRECTION('',(1.,0.,0.));
#447=DIRECTION('',(0.,0.,-1.));
#448=DIRECTION('',(1.,0.,0.));
#449=DIRECTION('',(0.,0.,-1.));
#450=DIRECTION('',(1.,0.,0.));
#451=DIRECTION('',(0.,0.,-1.));
#452=DIRECTION('',(0.,0.,-1.));
#453=DIRECTION('',(1.,0.,0.));
#454=DIRECTION('',(-1.,0.,0.));
#455=DIRECTION('',(0.,0.,1.));
#456=DIRECTION('',(1.,0.,0.));
#457=DIRECTION('',(0.,0.,-1.));
#458=DIRECTION('',(1.,0.,0.));
#459=DIRECTION('',(0.,0.,-1.));
#460=DIRECTION('',(1.,0.,0.));
#461=DIRECTION('',(0.,0.,-1.));
#462=DIRECTION('',(1.,0.,0.));
#463=DIRECTION('',(0.,0.,-1.));
#464=DIRECTION('',(1.,0.,0.));
#465=DIRECTION('',(0.,0.,-1.));
#466=DIRECTION('',(1.,0.,0.));
#467=DIRECTION('',(0.,0.,-1.));
#468=DIRECTION('',(1.,0.,0.));
#469=DIRECTION('',(0.,0.,-1.));
#470=DIRECTION('',(1.,0.,0.));
#471=DIRECTION('',(0.,0.,-1.));
#472=DIRECTION('',(1.,0.,0.));
#473=DIRECTION('',(0.,0.,-1.));
#474=DIRECTION('',(1.,0.,0.));
#475=DIRECTION('',(0.,0.,-1.));
#476=DIRECTION('',(1.,0.,0.));
#477=DIRECTION('',(0.,0.,-1.));
#478=DIRECTION('',(1.,0.,0.));
#479=DIRECTION('',(0.,0.,-1.));
#480=DIRECTION('',(1.,0.,0.));
#481=DIRECTION('',(0.,0.,-1.));
#482=DIRECTION('',(1.,0.,0.));
#483=DIRECTION('',(0.,0.,-1.));
#484=DIRECTION('',(1.,0.,0.));
#485=DIRECTION('',(0.,0.,-1.));
#486=DIRECTION('',(1.,0.,0.));
#487=DIRECTION('',(0.,0.,-1.));
#488=DIRECTION('',(1.,0.,0.));
#489=DIRECTION('',(0.,0.,-1.));
#490=DIRECTION('',(1.,0.,0.));
#491=DIRECTION('',(0.,0.,-1.));
#492=DIRECTION('',(1.,0.,0.));
#493=DIRECTION('',(0.,0.,-1.));
#494=DIRECTION('',(0.,0.,-1.));
#495=DIRECTION('',(1.,0.,0.));
#496=CARTESIAN_POINT('',(0.,0.,0.));
#497=CARTESIAN_POINT('',(5.,13.,0.));
#498=CARTESIAN_POINT('',(2.619,13.,0.));
#499=CARTESIAN_POINT('',(10.,23.5172209268743,-7.64120827980215));
#500=CARTESIAN_POINT('',(10.,17.0172209268743,-12.363734711837));
#501=CARTESIAN_POINT('',(10.,8.98277907312568,-12.363734711837));
#502=CARTESIAN_POINT('',(10.,2.48277907312568,-7.64120827980215));
#503=CARTESIAN_POINT('',(10.,-3.5527136788005E-15,8.88178419700125E-16));
#504=CARTESIAN_POINT('',(10.,2.48277907312568,7.64120827980215));
#505=CARTESIAN_POINT('',(10.,8.98277907312568,12.363734711837));
#506=CARTESIAN_POINT('',(10.,17.0172209268743,12.363734711837));
#507=CARTESIAN_POINT('',(10.,23.5172209268743,7.64120827980215));
#508=CARTESIAN_POINT('',(10.,26.,0.));
#509=CARTESIAN_POINT('',(0.299999999999998,0.,0.));
#510=CARTESIAN_POINT('',(0.,0.,0.));
#511=CARTESIAN_POINT('',(0.,0.,-17.2));
#512=CARTESIAN_POINT('',(0.300000000000002,0.,0.));
#513=CARTESIAN_POINT('',(0.300000000000002,0.,-17.5));
#514=CARTESIAN_POINT('',(0.,17.2,0.));
#515=CARTESIAN_POINT('',(0.,0.,0.));
#516=CARTESIAN_POINT('',(0.,0.,-14.7));
#517=CARTESIAN_POINT('',(0.0999999999999974,0.,0.));
#518=CARTESIAN_POINT('',(0.100000000000003,0.,0.));
#519=CARTESIAN_POINT('',(0.100000000000003,0.,-14.6));
#520=CARTESIAN_POINT('',(50.,0.,0.));
#521=CARTESIAN_POINT('',(3.23671868381702,0.,0.));
#522=CARTESIAN_POINT('',(3.23671868381702,0.,-14.6));
#523=CARTESIAN_POINT('',(5.,0.,0.));
#524=CARTESIAN_POINT('',(6.76328131618299,0.,0.));
#525=CARTESIAN_POINT('',(6.76328131618299,0.,-14.6));
#526=CARTESIAN_POINT('',(50.,0.,0.));
#527=CARTESIAN_POINT('',(9.9,0.,0.));
#528=CARTESIAN_POINT('',(9.9,0.,-14.6));
#529=CARTESIAN_POINT('',(9.9,0.,0.));
#530=CARTESIAN_POINT('',(10.,0.,0.));
#531=CARTESIAN_POINT('',(10.,0.,-14.7));
#532=CARTESIAN_POINT('',(10.,14.7,0.));
#533=CARTESIAN_POINT('',(10.,0.,0.));
#534=CARTESIAN_POINT('',(10.,0.,-17.2));
#535=CARTESIAN_POINT('',(9.7,0.,0.));
#536=CARTESIAN_POINT('',(9.7,0.,0.));
#537=CARTESIAN_POINT('',(9.7,0.,-17.5));
#538=CARTESIAN_POINT('',(50.,0.,0.));
#539=CARTESIAN_POINT('',(0.,0.,0.));
#540=CARTESIAN_POINT('',(-1.89735380184963E-16,11.4,0.));
#541=CARTESIAN_POINT('',(0.,0.,0.));
#542=CARTESIAN_POINT('',(0.,0.,-8.8));
#543=CARTESIAN_POINT('',(0.,0.,0.));
#544=CARTESIAN_POINT('',(0.,0.,-11.4));
#545=CARTESIAN_POINT('',(0.300000000000002,0.,0.));
#546=CARTESIAN_POINT('',(0.299999999999995,0.,0.));
#547=CARTESIAN_POINT('',(0.299999999999995,0.,-8.5));
#548=CARTESIAN_POINT('',(100.,0.,0.));
#549=CARTESIAN_POINT('',(9.7,0.,0.));
#550=CARTESIAN_POINT('',(9.7,0.,-8.5));
#551=CARTESIAN_POINT('',(9.7,0.,0.));
#552=CARTESIAN_POINT('',(9.99999999999999,0.,0.));
#553=CARTESIAN_POINT('',(9.99999999999999,0.,-8.8));
#554=CARTESIAN_POINT('',(10.,8.8,0.));
#555=CARTESIAN_POINT('',(9.99999999999999,0.,0.));
#556=CARTESIAN_POINT('',(9.99999999999999,0.,-11.4));
#557=CARTESIAN_POINT('',(9.9,0.,0.));
#558=CARTESIAN_POINT('',(9.90000000000001,0.,0.));
#559=CARTESIAN_POINT('',(9.90000000000001,0.,-11.5));
#560=CARTESIAN_POINT('',(100.,0.,0.));
#561=CARTESIAN_POINT('',(6.84909734735627,0.,0.));
#562=CARTESIAN_POINT('',(6.84909734735627,0.,-11.5));
#563=CARTESIAN_POINT('',(5.,0.,0.));
#564=CARTESIAN_POINT('',(3.15090265264373,0.,0.));
#565=CARTESIAN_POINT('',(3.15090265264373,0.,-11.5));
#566=CARTESIAN_POINT('',(100.,0.,0.));
#567=CARTESIAN_POINT('',(0.100000000000003,0.,0.));
#568=CARTESIAN_POINT('',(0.100000000000003,0.,-11.5));
#569=CARTESIAN_POINT('',(0.100000000000002,0.,0.));
#570=CARTESIAN_POINT('',(0.,0.,0.));
#571=MECHANICAL_DESIGN_GEOMETRIC_PRESENTATION_REPRESENTATION('',(#301,#302,
#303),#572);
#572=(
GEOMETRIC_REPRESENTATION_CONTEXT(3)
GLOBAL_UNCERTAINTY_ASSIGNED_CONTEXT((#576))
GLOBAL_UNIT_ASSIGNED_CONTEXT((#582,#581,#580))
REPRESENTATION_CONTEXT('SKF_6003','TOP_LEVEL_ASSEMBLY_PART')
);
#573=(
GEOMETRIC_REPRESENTATION_CONTEXT(3)
GLOBAL_UNCERTAINTY_ASSIGNED_CONTEXT((#577))
GLOBAL_UNIT_ASSIGNED_CONTEXT((#582,#581,#580))
REPRESENTATION_CONTEXT('SKF_6003_ball1','COMPONENT_PART')
);
#574=(
GEOMETRIC_REPRESENTATION_CONTEXT(3)
GLOBAL_UNCERTAINTY_ASSIGNED_CONTEXT((#578))
GLOBAL_UNIT_ASSIGNED_CONTEXT((#582,#581,#580))
REPRESENTATION_CONTEXT('SKF_6003_or','COMPONENT_PART')
);
#575=(
GEOMETRIC_REPRESENTATION_CONTEXT(3)
GLOBAL_UNCERTAINTY_ASSIGNED_CONTEXT((#579))
GLOBAL_UNIT_ASSIGNED_CONTEXT((#582,#581,#580))
REPRESENTATION_CONTEXT('SKF_6003_ir','COMPONENT_PART')
);
#576=UNCERTAINTY_MEASURE_WITH_UNIT(LENGTH_MEASURE(0.005),#582,
'DISTANCE_ACCURACY_VALUE','Maximum Tolerance applied to model');
#577=UNCERTAINTY_MEASURE_WITH_UNIT(LENGTH_MEASURE(0.005),#582,
'DISTANCE_ACCURACY_VALUE','Maximum Tolerance applied to model');
#578=UNCERTAINTY_MEASURE_WITH_UNIT(LENGTH_MEASURE(0.005),#582,
'DISTANCE_ACCURACY_VALUE','Maximum Tolerance applied to model');
#579=UNCERTAINTY_MEASURE_WITH_UNIT(LENGTH_MEASURE(0.005),#582,
'DISTANCE_ACCURACY_VALUE','Maximum Tolerance applied to model');
#580=(
NAMED_UNIT(*)
SI_UNIT($,.STERADIAN.)
SOLID_ANGLE_UNIT()
);
#581=(
NAMED_UNIT(*)
PLANE_ANGLE_UNIT()
SI_UNIT($,.RADIAN.)
);
#582=(
LENGTH_UNIT()
NAMED_UNIT(*)
SI_UNIT(.MILLI.,.METRE.)
);
#583=PRODUCT_DEFINITION_SHAPE('','',#599);
#584=PRODUCT_DEFINITION_SHAPE('','',#600);
#585=PRODUCT_DEFINITION_SHAPE(' ','NAUO PRDDFN',#171);
#586=PRODUCT_DEFINITION_SHAPE(' ','NAUO PRDDFN',#172);
#587=PRODUCT_DEFINITION_SHAPE(' ','NAUO PRDDFN',#173);
#588=PRODUCT_DEFINITION_SHAPE(' ','NAUO PRDDFN',#174);
#589=PRODUCT_DEFINITION_SHAPE(' ','NAUO PRDDFN',#175);
#590=PRODUCT_DEFINITION_SHAPE(' ','NAUO PRDDFN',#176);
#591=PRODUCT_DEFINITION_SHAPE(' ','NAUO PRDDFN',#177);
#592=PRODUCT_DEFINITION_SHAPE(' ','NAUO PRDDFN',#178);
#593=PRODUCT_DEFINITION_SHAPE(' ','NAUO PRDDFN',#179);
#594=PRODUCT_DEFINITION_SHAPE(' ','NAUO PRDDFN',#180);
#595=PRODUCT_DEFINITION_SHAPE('','',#601);
#596=PRODUCT_DEFINITION_SHAPE(' ','NAUO PRDDFN',#181);
#597=PRODUCT_DEFINITION_SHAPE('','',#602);
#598=PRODUCT_DEFINITION_SHAPE(' ','NAUO PRDDFN',#182);
#599=PRODUCT_DEFINITION('','',#607,#603);
#600=PRODUCT_DEFINITION('','',#608,#604);
#601=PRODUCT_DEFINITION('','',#609,#605);
#602=PRODUCT_DEFINITION('','',#610,#606);
#603=DESIGN_CONTEXT('',#628,'design');
#604=DESIGN_CONTEXT('',#628,'design');
#605=DESIGN_CONTEXT('',#628,'design');
#606=DESIGN_CONTEXT('',#628,'design');
#607=PRODUCT_DEFINITION_FORMATION_WITH_SPECIFIED_SOURCE('','',#615,
 .NOT_KNOWN.);
#608=PRODUCT_DEFINITION_FORMATION_WITH_SPECIFIED_SOURCE('','',#616,
 .NOT_KNOWN.);
#609=PRODUCT_DEFINITION_FORMATION_WITH_SPECIFIED_SOURCE('','',#617,
 .NOT_KNOWN.);
#610=PRODUCT_DEFINITION_FORMATION_WITH_SPECIFIED_SOURCE('','',#618,
 .NOT_KNOWN.);
#611=PRODUCT_RELATED_PRODUCT_CATEGORY('','',(#615));
#612=PRODUCT_RELATED_PRODUCT_CATEGORY('','',(#616));
#613=PRODUCT_RELATED_PRODUCT_CATEGORY('','',(#617));
#614=PRODUCT_RELATED_PRODUCT_CATEGORY('','',(#618));
#615=PRODUCT('SKF_6003','SKF_6003','SKF_6003',(#623));
#616=PRODUCT('SKF_6003_ball1','SKF_6003_ball1','SKF_6003_ball1',(#624));
#617=PRODUCT('SKF_6003_or','SKF_6003_or','SKF_6003_or',(#625));
#618=PRODUCT('SKF_6003_ir','SKF_6003_ir','SKF_6003_ir',(#626));
#619=PRODUCT_CATEGORY('','');
#620=PRODUCT_CATEGORY('','');
#621=PRODUCT_CATEGORY('','');
#622=PRODUCT_CATEGORY('','');
#623=MECHANICAL_CONTEXT('',#628,'mechanical');
#624=MECHANICAL_CONTEXT('',#628,'mechanical');
#625=MECHANICAL_CONTEXT('',#628,'mechanical');
#626=MECHANICAL_CONTEXT('',#628,'mechanical');
#627=APPLICATION_PROTOCOL_DEFINITION('international standard',
'config_control_design',2010,#628);
#628=APPLICATION_CONTEXT(
'configuration controlled 3D designs of mechanical parts and assemblie
s');
ENDSEC;
END-ISO-10303-21;
