ISO-10303-21;
HEADER;
/* Generated by software containing ST-Developer
 * from STEP Tools, Inc. (www.steptools.com) 
 */
/* OPTION: using custom renumber hook */

FILE_DESCRIPTION(
/* description */ ('STEP AP203'),
/* implementation_level */ '2;1');

FILE_NAME(
/* name */ 'SKF_6008',
/* time_stamp */ '2023-07-02T06:40:50+02:00',
/* author */ ('License CC BY-ND 4.0'),
/* organization */ ('CADENAS'),
/* preprocessor_version */ 'ST-DEVELOPER v19.3',
/* originating_system */ 'PARTsolutions',
/* authorisation */ '  ');

FILE_SCHEMA (('CONFIG_CONTROL_DESIGN'));
ENDSEC;

DATA;
#10=PROPERTY_DEFINITION_REPRESENTATION(#14,#12);
#11=PROPERTY_DEFINITION_REPRESENTATION(#15,#13);
#12=REPRESENTATION('',(#16),#588);
#13=REPRESENTATION('',(#17),#588);
#14=PROPERTY_DEFINITION('pmi validation property','',#599);
#15=PROPERTY_DEFINITION('pmi validation property','',#599);
#16=VALUE_REPRESENTATION_ITEM('number of annotations',COUNT_MEASURE(0.));
#17=VALUE_REPRESENTATION_ITEM('number of views',COUNT_MEASURE(0.));
#18=CYLINDRICAL_SURFACE('',#363,29.375);
#19=CYLINDRICAL_SURFACE('',#367,29.375);
#20=CYLINDRICAL_SURFACE('',#375,34.);
#21=CYLINDRICAL_SURFACE('',#382,20.);
#22=CYLINDRICAL_SURFACE('',#390,24.625);
#23=CYLINDRICAL_SURFACE('',#394,24.625);
#24=PLANE('',#359);
#25=PLANE('',#371);
#26=PLANE('',#377);
#27=PLANE('',#386);
#28=ORIENTED_EDGE('',*,*,#68,.T.);
#29=ORIENTED_EDGE('',*,*,#69,.F.);
#30=ORIENTED_EDGE('',*,*,#70,.T.);
#31=ORIENTED_EDGE('',*,*,#68,.F.);
#32=ORIENTED_EDGE('',*,*,#71,.T.);
#33=ORIENTED_EDGE('',*,*,#70,.F.);
#34=ORIENTED_EDGE('',*,*,#72,.T.);
#35=ORIENTED_EDGE('',*,*,#71,.F.);
#36=ORIENTED_EDGE('',*,*,#72,.F.);
#37=ORIENTED_EDGE('',*,*,#73,.T.);
#38=ORIENTED_EDGE('',*,*,#74,.T.);
#39=ORIENTED_EDGE('',*,*,#73,.F.);
#40=ORIENTED_EDGE('',*,*,#75,.T.);
#41=ORIENTED_EDGE('',*,*,#74,.F.);
#42=ORIENTED_EDGE('',*,*,#76,.T.);
#43=ORIENTED_EDGE('',*,*,#75,.F.);
#44=ORIENTED_EDGE('',*,*,#77,.T.);
#45=ORIENTED_EDGE('',*,*,#76,.F.);
#46=ORIENTED_EDGE('',*,*,#69,.T.);
#47=ORIENTED_EDGE('',*,*,#77,.F.);
#48=ORIENTED_EDGE('',*,*,#78,.T.);
#49=ORIENTED_EDGE('',*,*,#79,.F.);
#50=ORIENTED_EDGE('',*,*,#80,.T.);
#51=ORIENTED_EDGE('',*,*,#78,.F.);
#52=ORIENTED_EDGE('',*,*,#81,.T.);
#53=ORIENTED_EDGE('',*,*,#80,.F.);
#54=ORIENTED_EDGE('',*,*,#82,.T.);
#55=ORIENTED_EDGE('',*,*,#81,.F.);
#56=ORIENTED_EDGE('',*,*,#83,.T.);
#57=ORIENTED_EDGE('',*,*,#82,.F.);
#58=ORIENTED_EDGE('',*,*,#84,.T.);
#59=ORIENTED_EDGE('',*,*,#83,.F.);
#60=ORIENTED_EDGE('',*,*,#85,.T.);
#61=ORIENTED_EDGE('',*,*,#84,.F.);
#62=ORIENTED_EDGE('',*,*,#85,.F.);
#63=ORIENTED_EDGE('',*,*,#86,.T.);
#64=ORIENTED_EDGE('',*,*,#87,.T.);
#65=ORIENTED_EDGE('',*,*,#86,.F.);
#66=ORIENTED_EDGE('',*,*,#79,.T.);
#67=ORIENTED_EDGE('',*,*,#87,.F.);
#68=EDGE_CURVE('',#222,#222,#88,.T.);
#69=EDGE_CURVE('',#223,#223,#89,.T.);
#70=EDGE_CURVE('',#224,#224,#90,.T.);
#71=EDGE_CURVE('',#225,#225,#91,.T.);
#72=EDGE_CURVE('',#226,#226,#92,.T.);
#73=EDGE_CURVE('',#227,#227,#93,.T.);
#74=EDGE_CURVE('',#228,#228,#94,.T.);
#75=EDGE_CURVE('',#229,#229,#95,.T.);
#76=EDGE_CURVE('',#230,#230,#96,.T.);
#77=EDGE_CURVE('',#231,#231,#97,.T.);
#78=EDGE_CURVE('',#232,#232,#98,.T.);
#79=EDGE_CURVE('',#233,#233,#99,.T.);
#80=EDGE_CURVE('',#234,#234,#100,.T.);
#81=EDGE_CURVE('',#235,#235,#101,.T.);
#82=EDGE_CURVE('',#236,#236,#102,.T.);
#83=EDGE_CURVE('',#237,#237,#103,.T.);
#84=EDGE_CURVE('',#238,#238,#104,.T.);
#85=EDGE_CURVE('',#239,#239,#105,.T.);
#86=EDGE_CURVE('',#240,#240,#106,.T.);
#87=EDGE_CURVE('',#241,#241,#107,.T.);
#88=CIRCLE('',#357,33.);
#89=CIRCLE('',#358,34.);
#90=CIRCLE('',#360,29.7083333333333);
#91=CIRCLE('',#362,29.375);
#92=CIRCLE('',#364,29.375);
#93=CIRCLE('',#366,29.375);
#94=CIRCLE('',#368,29.375);
#95=CIRCLE('',#370,29.7083333333333);
#96=CIRCLE('',#372,33.);
#97=CIRCLE('',#374,34.);
#98=CIRCLE('',#378,21.);
#99=CIRCLE('',#379,24.2916666666667);
#100=CIRCLE('',#381,20.);
#101=CIRCLE('',#383,20.);
#102=CIRCLE('',#385,21.);
#103=CIRCLE('',#387,24.2916666666667);
#104=CIRCLE('',#389,24.625);
#105=CIRCLE('',#391,24.625);
#106=CIRCLE('',#393,24.625);
#107=CIRCLE('',#395,24.625);
#108=EDGE_LOOP('',(#28));
#109=EDGE_LOOP('',(#29));
#110=EDGE_LOOP('',(#30));
#111=EDGE_LOOP('',(#31));
#112=EDGE_LOOP('',(#32));
#113=EDGE_LOOP('',(#33));
#114=EDGE_LOOP('',(#34));
#115=EDGE_LOOP('',(#35));
#116=EDGE_LOOP('',(#36));
#117=EDGE_LOOP('',(#37));
#118=EDGE_LOOP('',(#38));
#119=EDGE_LOOP('',(#39));
#120=EDGE_LOOP('',(#40));
#121=EDGE_LOOP('',(#41));
#122=EDGE_LOOP('',(#42));
#123=EDGE_LOOP('',(#43));
#124=EDGE_LOOP('',(#44));
#125=EDGE_LOOP('',(#45));
#126=EDGE_LOOP('',(#46));
#127=EDGE_LOOP('',(#47));
#128=EDGE_LOOP('',(#48));
#129=EDGE_LOOP('',(#49));
#130=EDGE_LOOP('',(#50));
#131=EDGE_LOOP('',(#51));
#132=EDGE_LOOP('',(#52));
#133=EDGE_LOOP('',(#53));
#134=EDGE_LOOP('',(#54));
#135=EDGE_LOOP('',(#55));
#136=EDGE_LOOP('',(#56));
#137=EDGE_LOOP('',(#57));
#138=EDGE_LOOP('',(#58));
#139=EDGE_LOOP('',(#59));
#140=EDGE_LOOP('',(#60));
#141=EDGE_LOOP('',(#61));
#142=EDGE_LOOP('',(#62));
#143=EDGE_LOOP('',(#63));
#144=EDGE_LOOP('',(#64));
#145=EDGE_LOOP('',(#65));
#146=EDGE_LOOP('',(#66));
#147=EDGE_LOOP('',(#67));
#148=TOROIDAL_SURFACE('',#356,33.,1.);
#149=TOROIDAL_SURFACE('',#361,29.7083333333333,0.333333333333323);
#150=TOROIDAL_SURFACE('',#365,27.,3.96899999999999);
#151=TOROIDAL_SURFACE('',#369,29.7083333333333,0.333333333333324);
#152=TOROIDAL_SURFACE('',#373,33.,1.);
#153=TOROIDAL_SURFACE('',#380,21.,0.999999999999999);
#154=TOROIDAL_SURFACE('',#384,21.,0.999999999999994);
#155=TOROIDAL_SURFACE('',#388,24.2916666666667,0.333333333333328);
#156=TOROIDAL_SURFACE('',#392,27.,3.969);
#157=TOROIDAL_SURFACE('',#396,24.2916666666667,0.333333333333331);
#158=COLOUR_RGB('',0.689999997615814,0.689999997615814,0.689999997615814);
#159=CONTEXT_DEPENDENT_SHAPE_REPRESENTATION(#187,#601);
#160=CONTEXT_DEPENDENT_SHAPE_REPRESENTATION(#188,#602);
#161=CONTEXT_DEPENDENT_SHAPE_REPRESENTATION(#189,#603);
#162=CONTEXT_DEPENDENT_SHAPE_REPRESENTATION(#190,#604);
#163=CONTEXT_DEPENDENT_SHAPE_REPRESENTATION(#191,#605);
#164=CONTEXT_DEPENDENT_SHAPE_REPRESENTATION(#192,#606);
#165=CONTEXT_DEPENDENT_SHAPE_REPRESENTATION(#193,#607);
#166=CONTEXT_DEPENDENT_SHAPE_REPRESENTATION(#194,#608);
#167=CONTEXT_DEPENDENT_SHAPE_REPRESENTATION(#195,#609);
#168=CONTEXT_DEPENDENT_SHAPE_REPRESENTATION(#196,#610);
#169=CONTEXT_DEPENDENT_SHAPE_REPRESENTATION(#197,#611);
#170=CONTEXT_DEPENDENT_SHAPE_REPRESENTATION(#198,#612);
#171=CONTEXT_DEPENDENT_SHAPE_REPRESENTATION(#199,#614);
#172=CONTEXT_DEPENDENT_SHAPE_REPRESENTATION(#200,#616);
#173=NEXT_ASSEMBLY_USAGE_OCCURRENCE('NAUO1','SKF_6008_ball1',
'SKF_6008_ball1',#617,#618,'');
#174=NEXT_ASSEMBLY_USAGE_OCCURRENCE('NAUO2','SKF_6008_ball1',
'SKF_6008_ball1',#617,#618,'');
#175=NEXT_ASSEMBLY_USAGE_OCCURRENCE('NAUO3','SKF_6008_ball1',
'SKF_6008_ball1',#617,#618,'');
#176=NEXT_ASSEMBLY_USAGE_OCCURRENCE('NAUO4','SKF_6008_ball1',
'SKF_6008_ball1',#617,#618,'');
#177=NEXT_ASSEMBLY_USAGE_OCCURRENCE('NAUO5','SKF_6008_ball1',
'SKF_6008_ball1',#617,#618,'');
#178=NEXT_ASSEMBLY_USAGE_OCCURRENCE('NAUO6','SKF_6008_ball1',
'SKF_6008_ball1',#617,#618,'');
#179=NEXT_ASSEMBLY_USAGE_OCCURRENCE('NAUO7','SKF_6008_ball1',
'SKF_6008_ball1',#617,#618,'');
#180=NEXT_ASSEMBLY_USAGE_OCCURRENCE('NAUO8','SKF_6008_ball1',
'SKF_6008_ball1',#617,#618,'');
#181=NEXT_ASSEMBLY_USAGE_OCCURRENCE('NAUO9','SKF_6008_ball1',
'SKF_6008_ball1',#617,#618,'');
#182=NEXT_ASSEMBLY_USAGE_OCCURRENCE('NAUO10','SKF_6008_ball1',
'SKF_6008_ball1',#617,#618,'');
#183=NEXT_ASSEMBLY_USAGE_OCCURRENCE('NAUO11','SKF_6008_ball1',
'SKF_6008_ball1',#617,#618,'');
#184=NEXT_ASSEMBLY_USAGE_OCCURRENCE('NAUO12','SKF_6008_ball1',
'SKF_6008_ball1',#617,#618,'');
#185=NEXT_ASSEMBLY_USAGE_OCCURRENCE('NAUO13','SKF_6008_or',
'SKF_6008_or',#617,#619,'');
#186=NEXT_ASSEMBLY_USAGE_OCCURRENCE('NAUO14','SKF_6008_ir',
'SKF_6008_ir',#617,#620,'');
#187=(
REPRESENTATION_RELATIONSHIP(' ',' ',#339,#338)
REPRESENTATION_RELATIONSHIP_WITH_TRANSFORMATION(#201)
SHAPE_REPRESENTATION_RELATIONSHIP()
);
#188=(
REPRESENTATION_RELATIONSHIP(' ',' ',#339,#338)
REPRESENTATION_RELATIONSHIP_WITH_TRANSFORMATION(#202)
SHAPE_REPRESENTATION_RELATIONSHIP()
);
#189=(
REPRESENTATION_RELATIONSHIP(' ',' ',#339,#338)
REPRESENTATION_RELATIONSHIP_WITH_TRANSFORMATION(#203)
SHAPE_REPRESENTATION_RELATIONSHIP()
);
#190=(
REPRESENTATION_RELATIONSHIP(' ',' ',#339,#338)
REPRESENTATION_RELATIONSHIP_WITH_TRANSFORMATION(#204)
SHAPE_REPRESENTATION_RELATIONSHIP()
);
#191=(
REPRESENTATION_RELATIONSHIP(' ',' ',#339,#338)
REPRESENTATION_RELATIONSHIP_WITH_TRANSFORMATION(#205)
SHAPE_REPRESENTATION_RELATIONSHIP()
);
#192=(
REPRESENTATION_RELATIONSHIP(' ',' ',#339,#338)
REPRESENTATION_RELATIONSHIP_WITH_TRANSFORMATION(#206)
SHAPE_REPRESENTATION_RELATIONSHIP()
);
#193=(
REPRESENTATION_RELATIONSHIP(' ',' ',#339,#338)
REPRESENTATION_RELATIONSHIP_WITH_TRANSFORMATION(#207)
SHAPE_REPRESENTATION_RELATIONSHIP()
);
#194=(
REPRESENTATION_RELATIONSHIP(' ',' ',#339,#338)
REPRESENTATION_RELATIONSHIP_WITH_TRANSFORMATION(#208)
SHAPE_REPRESENTATION_RELATIONSHIP()
);
#195=(
REPRESENTATION_RELATIONSHIP(' ',' ',#339,#338)
REPRESENTATION_RELATIONSHIP_WITH_TRANSFORMATION(#209)
SHAPE_REPRESENTATION_RELATIONSHIP()
);
#196=(
REPRESENTATION_RELATIONSHIP(' ',' ',#339,#338)
REPRESENTATION_RELATIONSHIP_WITH_TRANSFORMATION(#210)
SHAPE_REPRESENTATION_RELATIONSHIP()
);
#197=(
REPRESENTATION_RELATIONSHIP(' ',' ',#339,#338)
REPRESENTATION_RELATIONSHIP_WITH_TRANSFORMATION(#211)
SHAPE_REPRESENTATION_RELATIONSHIP()
);
#198=(
REPRESENTATION_RELATIONSHIP(' ',' ',#339,#338)
REPRESENTATION_RELATIONSHIP_WITH_TRANSFORMATION(#212)
SHAPE_REPRESENTATION_RELATIONSHIP()
);
#199=(
REPRESENTATION_RELATIONSHIP(' ',' ',#340,#338)
REPRESENTATION_RELATIONSHIP_WITH_TRANSFORMATION(#213)
SHAPE_REPRESENTATION_RELATIONSHIP()
);
#200=(
REPRESENTATION_RELATIONSHIP(' ',' ',#341,#338)
REPRESENTATION_RELATIONSHIP_WITH_TRANSFORMATION(#214)
SHAPE_REPRESENTATION_RELATIONSHIP()
);
#201=ITEM_DEFINED_TRANSFORMATION(' ',' ',#342,#344);
#202=ITEM_DEFINED_TRANSFORMATION(' ',' ',#342,#345);
#203=ITEM_DEFINED_TRANSFORMATION(' ',' ',#342,#346);
#204=ITEM_DEFINED_TRANSFORMATION(' ',' ',#342,#347);
#205=ITEM_DEFINED_TRANSFORMATION(' ',' ',#342,#348);
#206=ITEM_DEFINED_TRANSFORMATION(' ',' ',#342,#349);
#207=ITEM_DEFINED_TRANSFORMATION(' ',' ',#342,#350);
#208=ITEM_DEFINED_TRANSFORMATION(' ',' ',#342,#351);
#209=ITEM_DEFINED_TRANSFORMATION(' ',' ',#342,#352);
#210=ITEM_DEFINED_TRANSFORMATION(' ',' ',#342,#353);
#211=ITEM_DEFINED_TRANSFORMATION(' ',' ',#342,#354);
#212=ITEM_DEFINED_TRANSFORMATION(' ',' ',#342,#355);
#213=ITEM_DEFINED_TRANSFORMATION(' ',' ',#342,#376);
#214=ITEM_DEFINED_TRANSFORMATION(' ',' ',#342,#397);
#215=SHAPE_REPRESENTATION_RELATIONSHIP('','',#339,#218);
#216=SHAPE_REPRESENTATION_RELATIONSHIP('','',#340,#219);
#217=SHAPE_REPRESENTATION_RELATIONSHIP('','',#341,#220);
#218=ADVANCED_BREP_SHAPE_REPRESENTATION('',(#331),#589);
#219=ADVANCED_BREP_SHAPE_REPRESENTATION('',(#332),#590);
#220=ADVANCED_BREP_SHAPE_REPRESENTATION('',(#333),#591);
#221=VERTEX_POINT('',#512);
#222=VERTEX_POINT('',#527);
#223=VERTEX_POINT('',#529);
#224=VERTEX_POINT('',#532);
#225=VERTEX_POINT('',#535);
#226=VERTEX_POINT('',#538);
#227=VERTEX_POINT('',#541);
#228=VERTEX_POINT('',#544);
#229=VERTEX_POINT('',#547);
#230=VERTEX_POINT('',#550);
#231=VERTEX_POINT('',#553);
#232=VERTEX_POINT('',#558);
#233=VERTEX_POINT('',#560);
#234=VERTEX_POINT('',#563);
#235=VERTEX_POINT('',#566);
#236=VERTEX_POINT('',#569);
#237=VERTEX_POINT('',#572);
#238=VERTEX_POINT('',#575);
#239=VERTEX_POINT('',#578);
#240=VERTEX_POINT('',#581);
#241=VERTEX_POINT('',#584);
#242=VERTEX_LOOP('',#221);
#243=FACE_BOUND('',#242,.T.);
#244=FACE_BOUND('',#108,.T.);
#245=FACE_BOUND('',#109,.T.);
#246=FACE_BOUND('',#110,.T.);
#247=FACE_BOUND('',#111,.T.);
#248=FACE_BOUND('',#112,.T.);
#249=FACE_BOUND('',#113,.T.);
#250=FACE_BOUND('',#114,.T.);
#251=FACE_BOUND('',#115,.T.);
#252=FACE_BOUND('',#116,.T.);
#253=FACE_BOUND('',#117,.T.);
#254=FACE_BOUND('',#118,.T.);
#255=FACE_BOUND('',#119,.T.);
#256=FACE_BOUND('',#120,.T.);
#257=FACE_BOUND('',#121,.T.);
#258=FACE_BOUND('',#122,.T.);
#259=FACE_BOUND('',#123,.T.);
#260=FACE_BOUND('',#124,.T.);
#261=FACE_BOUND('',#125,.T.);
#262=FACE_BOUND('',#126,.T.);
#263=FACE_BOUND('',#127,.T.);
#264=FACE_BOUND('',#128,.T.);
#265=FACE_BOUND('',#129,.T.);
#266=FACE_BOUND('',#130,.T.);
#267=FACE_BOUND('',#131,.T.);
#268=FACE_BOUND('',#132,.T.);
#269=FACE_BOUND('',#133,.T.);
#270=FACE_BOUND('',#134,.T.);
#271=FACE_BOUND('',#135,.T.);
#272=FACE_BOUND('',#136,.T.);
#273=FACE_BOUND('',#137,.T.);
#274=FACE_BOUND('',#138,.T.);
#275=FACE_BOUND('',#139,.T.);
#276=FACE_BOUND('',#140,.T.);
#277=FACE_BOUND('',#141,.T.);
#278=FACE_BOUND('',#142,.T.);
#279=FACE_BOUND('',#143,.T.);
#280=FACE_BOUND('',#144,.T.);
#281=FACE_BOUND('',#145,.T.);
#282=FACE_BOUND('',#146,.T.);
#283=FACE_BOUND('',#147,.T.);
#284=SPHERICAL_SURFACE('',#343,3.969);
#285=ADVANCED_FACE('',(#243),#284,.T.);
#286=ADVANCED_FACE('',(#244,#245),#148,.T.);
#287=ADVANCED_FACE('',(#246,#247),#24,.T.);
#288=ADVANCED_FACE('',(#248,#249),#149,.T.);
#289=ADVANCED_FACE('',(#250,#251),#18,.F.);
#290=ADVANCED_FACE('',(#252,#253),#150,.F.);
#291=ADVANCED_FACE('',(#254,#255),#19,.F.);
#292=ADVANCED_FACE('',(#256,#257),#151,.T.);
#293=ADVANCED_FACE('',(#258,#259),#25,.T.);
#294=ADVANCED_FACE('',(#260,#261),#152,.T.);
#295=ADVANCED_FACE('',(#262,#263),#20,.T.);
#296=ADVANCED_FACE('',(#264,#265),#26,.T.);
#297=ADVANCED_FACE('',(#266,#267),#153,.T.);
#298=ADVANCED_FACE('',(#268,#269),#21,.F.);
#299=ADVANCED_FACE('',(#270,#271),#154,.T.);
#300=ADVANCED_FACE('',(#272,#273),#27,.T.);
#301=ADVANCED_FACE('',(#274,#275),#155,.T.);
#302=ADVANCED_FACE('',(#276,#277),#22,.T.);
#303=ADVANCED_FACE('',(#278,#279),#156,.F.);
#304=ADVANCED_FACE('',(#280,#281),#23,.T.);
#305=ADVANCED_FACE('',(#282,#283),#157,.T.);
#306=CLOSED_SHELL('',(#285));
#307=CLOSED_SHELL('',(#286,#287,#288,#289,#290,#291,#292,#293,#294,#295));
#308=CLOSED_SHELL('',(#296,#297,#298,#299,#300,#301,#302,#303,#304,#305));
#309=STYLED_ITEM('',(#312),#331);
#310=STYLED_ITEM('',(#313),#332);
#311=STYLED_ITEM('',(#314),#333);
#312=PRESENTATION_STYLE_ASSIGNMENT((#315));
#313=PRESENTATION_STYLE_ASSIGNMENT((#316));
#314=PRESENTATION_STYLE_ASSIGNMENT((#317));
#315=SURFACE_STYLE_USAGE(.BOTH.,#318);
#316=SURFACE_STYLE_USAGE(.BOTH.,#319);
#317=SURFACE_STYLE_USAGE(.BOTH.,#320);
#318=SURFACE_SIDE_STYLE('',(#321));
#319=SURFACE_SIDE_STYLE('',(#322));
#320=SURFACE_SIDE_STYLE('',(#323));
#321=SURFACE_STYLE_FILL_AREA(#324);
#322=SURFACE_STYLE_FILL_AREA(#325);
#323=SURFACE_STYLE_FILL_AREA(#326);
#324=FILL_AREA_STYLE('',(#327));
#325=FILL_AREA_STYLE('',(#328));
#326=FILL_AREA_STYLE('',(#329));
#327=FILL_AREA_STYLE_COLOUR('',#330);
#328=FILL_AREA_STYLE_COLOUR('',#158);
#329=FILL_AREA_STYLE_COLOUR('',#158);
#330=DRAUGHTING_PRE_DEFINED_COLOUR('yellow');
#331=MANIFOLD_SOLID_BREP('SKF_6008_ball1',#306);
#332=MANIFOLD_SOLID_BREP('SKF_6008_or',#307);
#333=MANIFOLD_SOLID_BREP('SKF_6008_ir',#308);
#334=SHAPE_DEFINITION_REPRESENTATION(#599,#338);
#335=SHAPE_DEFINITION_REPRESENTATION(#600,#339);
#336=SHAPE_DEFINITION_REPRESENTATION(#613,#340);
#337=SHAPE_DEFINITION_REPRESENTATION(#615,#341);
#338=SHAPE_REPRESENTATION('SKF_6008',(#342,#344,#345,#346,#347,#348,#349,
#350,#351,#352,#353,#354,#355,#376,#397),#588);
#339=SHAPE_REPRESENTATION('SKF_6008_ball1',(#342),#589);
#340=SHAPE_REPRESENTATION('SKF_6008_or',(#342),#590);
#341=SHAPE_REPRESENTATION('SKF_6008_ir',(#342),#591);
#342=AXIS2_PLACEMENT_3D('',#510,#398,#399);
#343=AXIS2_PLACEMENT_3D('',#511,#400,#401);
#344=AXIS2_PLACEMENT_3D('',#513,#402,#403);
#345=AXIS2_PLACEMENT_3D('',#514,#404,#405);
#346=AXIS2_PLACEMENT_3D('',#515,#406,#407);
#347=AXIS2_PLACEMENT_3D('',#516,#408,#409);
#348=AXIS2_PLACEMENT_3D('',#517,#410,#411);
#349=AXIS2_PLACEMENT_3D('',#518,#412,#413);
#350=AXIS2_PLACEMENT_3D('',#519,#414,#415);
#351=AXIS2_PLACEMENT_3D('',#520,#416,#417);
#352=AXIS2_PLACEMENT_3D('',#521,#418,#419);
#353=AXIS2_PLACEMENT_3D('',#522,#420,#421);
#354=AXIS2_PLACEMENT_3D('',#523,#422,#423);
#355=AXIS2_PLACEMENT_3D('',#524,#424,#425);
#356=AXIS2_PLACEMENT_3D('',#525,#426,#427);
#357=AXIS2_PLACEMENT_3D('',#526,#428,#429);
#358=AXIS2_PLACEMENT_3D('',#528,#430,#431);
#359=AXIS2_PLACEMENT_3D('',#530,#432,#433);
#360=AXIS2_PLACEMENT_3D('',#531,#434,#435);
#361=AXIS2_PLACEMENT_3D('',#533,#436,#437);
#362=AXIS2_PLACEMENT_3D('',#534,#438,#439);
#363=AXIS2_PLACEMENT_3D('',#536,#440,#441);
#364=AXIS2_PLACEMENT_3D('',#537,#442,#443);
#365=AXIS2_PLACEMENT_3D('',#539,#444,#445);
#366=AXIS2_PLACEMENT_3D('',#540,#446,#447);
#367=AXIS2_PLACEMENT_3D('',#542,#448,#449);
#368=AXIS2_PLACEMENT_3D('',#543,#450,#451);
#369=AXIS2_PLACEMENT_3D('',#545,#452,#453);
#370=AXIS2_PLACEMENT_3D('',#546,#454,#455);
#371=AXIS2_PLACEMENT_3D('',#548,#456,#457);
#372=AXIS2_PLACEMENT_3D('',#549,#458,#459);
#373=AXIS2_PLACEMENT_3D('',#551,#460,#461);
#374=AXIS2_PLACEMENT_3D('',#552,#462,#463);
#375=AXIS2_PLACEMENT_3D('',#554,#464,#465);
#376=AXIS2_PLACEMENT_3D('',#555,#466,#467);
#377=AXIS2_PLACEMENT_3D('',#556,#468,#469);
#378=AXIS2_PLACEMENT_3D('',#557,#470,#471);
#379=AXIS2_PLACEMENT_3D('',#559,#472,#473);
#380=AXIS2_PLACEMENT_3D('',#561,#474,#475);
#381=AXIS2_PLACEMENT_3D('',#562,#476,#477);
#382=AXIS2_PLACEMENT_3D('',#564,#478,#479);
#383=AXIS2_PLACEMENT_3D('',#565,#480,#481);
#384=AXIS2_PLACEMENT_3D('',#567,#482,#483);
#385=AXIS2_PLACEMENT_3D('',#568,#484,#485);
#386=AXIS2_PLACEMENT_3D('',#570,#486,#487);
#387=AXIS2_PLACEMENT_3D('',#571,#488,#489);
#388=AXIS2_PLACEMENT_3D('',#573,#490,#491);
#389=AXIS2_PLACEMENT_3D('',#574,#492,#493);
#390=AXIS2_PLACEMENT_3D('',#576,#494,#495);
#391=AXIS2_PLACEMENT_3D('',#577,#496,#497);
#392=AXIS2_PLACEMENT_3D('',#579,#498,#499);
#393=AXIS2_PLACEMENT_3D('',#580,#500,#501);
#394=AXIS2_PLACEMENT_3D('',#582,#502,#503);
#395=AXIS2_PLACEMENT_3D('',#583,#504,#505);
#396=AXIS2_PLACEMENT_3D('',#585,#506,#507);
#397=AXIS2_PLACEMENT_3D('',#586,#508,#509);
#398=DIRECTION('',(0.,0.,1.));
#399=DIRECTION('',(1.,0.,0.));
#400=DIRECTION('',(1.,0.,0.));
#401=DIRECTION('',(0.,-1.,0.));
#402=DIRECTION('',(0.,0.,1.));
#403=DIRECTION('',(-1.,0.,0.));
#404=DIRECTION('',(0.,0.,1.));
#405=DIRECTION('',(-1.,0.,0.));
#406=DIRECTION('',(0.,0.,1.));
#407=DIRECTION('',(-1.,0.,0.));
#408=DIRECTION('',(0.,0.,1.));
#409=DIRECTION('',(-1.,0.,0.));
#410=DIRECTION('',(0.,0.,1.));
#411=DIRECTION('',(-1.,0.,0.));
#412=DIRECTION('',(0.,0.,1.));
#413=DIRECTION('',(-1.,0.,0.));
#414=DIRECTION('',(0.,0.,1.));
#415=DIRECTION('',(-1.,0.,0.));
#416=DIRECTION('',(0.,0.,1.));
#417=DIRECTION('',(-1.,0.,0.));
#418=DIRECTION('',(0.,0.,1.));
#419=DIRECTION('',(-1.,0.,0.));
#420=DIRECTION('',(0.,0.,1.));
#421=DIRECTION('',(-1.,0.,0.));
#422=DIRECTION('',(0.,0.,1.));
#423=DIRECTION('',(-1.,0.,0.));
#424=DIRECTION('',(0.,0.,1.));
#425=DIRECTION('',(-1.,0.,0.));
#426=DIRECTION('',(1.,0.,0.));
#427=DIRECTION('',(0.,0.,-1.));
#428=DIRECTION('',(1.,0.,0.));
#429=DIRECTION('',(0.,0.,-1.));
#430=DIRECTION('',(1.,0.,0.));
#431=DIRECTION('',(0.,0.,-1.));
#432=DIRECTION('',(-1.,0.,0.));
#433=DIRECTION('',(0.,0.,1.));
#434=DIRECTION('',(1.,0.,0.));
#435=DIRECTION('',(0.,0.,-1.));
#436=DIRECTION('',(1.,0.,0.));
#437=DIRECTION('',(0.,0.,-1.));
#438=DIRECTION('',(1.,0.,0.));
#439=DIRECTION('',(0.,0.,-1.));
#440=DIRECTION('',(1.,0.,0.));
#441=DIRECTION('',(0.,0.,-1.));
#442=DIRECTION('',(1.,0.,0.));
#443=DIRECTION('',(0.,0.,-1.));
#444=DIRECTION('',(1.,0.,0.));
#445=DIRECTION('',(0.,0.,-1.));
#446=DIRECTION('',(1.,0.,0.));
#447=DIRECTION('',(0.,0.,-1.));
#448=DIRECTION('',(1.,0.,0.));
#449=DIRECTION('',(0.,0.,-1.));
#450=DIRECTION('',(1.,0.,0.));
#451=DIRECTION('',(0.,0.,-1.));
#452=DIRECTION('',(1.,0.,0.));
#453=DIRECTION('',(0.,0.,-1.));
#454=DIRECTION('',(1.,0.,0.));
#455=DIRECTION('',(0.,0.,-1.));
#456=DIRECTION('',(1.,0.,0.));
#457=DIRECTION('',(0.,0.,-1.));
#458=DIRECTION('',(1.,0.,0.));
#459=DIRECTION('',(0.,0.,-1.));
#460=DIRECTION('',(1.,0.,0.));
#461=DIRECTION('',(0.,0.,-1.));
#462=DIRECTION('',(1.,0.,0.));
#463=DIRECTION('',(0.,0.,-1.));
#464=DIRECTION('',(1.,0.,0.));
#465=DIRECTION('',(0.,0.,-1.));
#466=DIRECTION('',(0.,0.,-1.));
#467=DIRECTION('',(1.,0.,0.));
#468=DIRECTION('',(-1.,0.,0.));
#469=DIRECTION('',(0.,0.,1.));
#470=DIRECTION('',(1.,0.,0.));
#471=DIRECTION('',(0.,0.,-1.));
#472=DIRECTION('',(1.,0.,0.));
#473=DIRECTION('',(0.,0.,-1.));
#474=DIRECTION('',(1.,0.,0.));
#475=DIRECTION('',(0.,0.,-1.));
#476=DIRECTION('',(1.,0.,0.));
#477=DIRECTION('',(0.,0.,-1.));
#478=DIRECTION('',(1.,0.,0.));
#479=DIRECTION('',(0.,0.,-1.));
#480=DIRECTION('',(1.,0.,0.));
#481=DIRECTION('',(0.,0.,-1.));
#482=DIRECTION('',(1.,0.,0.));
#483=DIRECTION('',(0.,0.,-1.));
#484=DIRECTION('',(1.,0.,0.));
#485=DIRECTION('',(0.,0.,-1.));
#486=DIRECTION('',(1.,0.,0.));
#487=DIRECTION('',(0.,0.,-1.));
#488=DIRECTION('',(1.,0.,0.));
#489=DIRECTION('',(0.,0.,-1.));
#490=DIRECTION('',(1.,0.,0.));
#491=DIRECTION('',(0.,0.,-1.));
#492=DIRECTION('',(1.,0.,0.));
#493=DIRECTION('',(0.,0.,-1.));
#494=DIRECTION('',(1.,0.,0.));
#495=DIRECTION('',(0.,0.,-1.));
#496=DIRECTION('',(1.,0.,0.));
#497=DIRECTION('',(0.,0.,-1.));
#498=DIRECTION('',(1.,0.,0.));
#499=DIRECTION('',(0.,0.,-1.));
#500=DIRECTION('',(1.,0.,0.));
#501=DIRECTION('',(0.,0.,-1.));
#502=DIRECTION('',(1.,0.,0.));
#503=DIRECTION('',(0.,0.,-1.));
#504=DIRECTION('',(1.,0.,0.));
#505=DIRECTION('',(0.,0.,-1.));
#506=DIRECTION('',(1.,0.,0.));
#507=DIRECTION('',(0.,0.,-1.));
#508=DIRECTION('',(0.,0.,-1.));
#509=DIRECTION('',(1.,0.,0.));
#510=CARTESIAN_POINT('',(0.,0.,0.));
#511=CARTESIAN_POINT('',(7.5,27.,0.));
#512=CARTESIAN_POINT('',(3.531,27.,0.));
#513=CARTESIAN_POINT('',(15.,50.3826859021798,-13.5));
#514=CARTESIAN_POINT('',(15.,40.5,-23.3826859021799));
#515=CARTESIAN_POINT('',(15.,27.,-27.));
#516=CARTESIAN_POINT('',(15.,13.5,-23.3826859021798));
#517=CARTESIAN_POINT('',(15.,3.61731409782015,-13.5));
#518=CARTESIAN_POINT('',(15.,0.,1.4210854715202E-14));
#519=CARTESIAN_POINT('',(15.,3.61731409782016,13.5));
#520=CARTESIAN_POINT('',(15.,13.5,23.3826859021798));
#521=CARTESIAN_POINT('',(15.,27.,27.));
#522=CARTESIAN_POINT('',(15.,40.5,23.3826859021798));
#523=CARTESIAN_POINT('',(15.,50.3826859021799,13.5));
#524=CARTESIAN_POINT('',(15.,54.,0.));
#525=CARTESIAN_POINT('',(1.00000000000001,0.,0.));
#526=CARTESIAN_POINT('',(0.,0.,0.));
#527=CARTESIAN_POINT('',(0.,0.,-33.));
#528=CARTESIAN_POINT('',(1.,0.,0.));
#529=CARTESIAN_POINT('',(1.,0.,-34.));
#530=CARTESIAN_POINT('',(0.,33.,0.));
#531=CARTESIAN_POINT('',(0.,0.,0.));
#532=CARTESIAN_POINT('',(0.,0.,-29.7083333333333));
#533=CARTESIAN_POINT('',(0.333333333333323,0.,0.));
#534=CARTESIAN_POINT('',(0.333333333333331,0.,0.));
#535=CARTESIAN_POINT('',(0.333333333333331,0.,-29.375));
#536=CARTESIAN_POINT('',(50.,0.,0.));
#537=CARTESIAN_POINT('',(4.320010062909,0.,0.));
#538=CARTESIAN_POINT('',(4.320010062909,0.,-29.375));
#539=CARTESIAN_POINT('',(7.5,0.,0.));
#540=CARTESIAN_POINT('',(10.679989937091,0.,0.));
#541=CARTESIAN_POINT('',(10.679989937091,0.,-29.375));
#542=CARTESIAN_POINT('',(50.,0.,0.));
#543=CARTESIAN_POINT('',(14.6666666666667,0.,0.));
#544=CARTESIAN_POINT('',(14.6666666666667,0.,-29.375));
#545=CARTESIAN_POINT('',(14.6666666666667,0.,0.));
#546=CARTESIAN_POINT('',(15.,0.,0.));
#547=CARTESIAN_POINT('',(15.,0.,-29.7083333333333));
#548=CARTESIAN_POINT('',(15.,29.7083333333333,0.));
#549=CARTESIAN_POINT('',(15.,0.,0.));
#550=CARTESIAN_POINT('',(15.,0.,-33.));
#551=CARTESIAN_POINT('',(14.,0.,0.));
#552=CARTESIAN_POINT('',(14.,0.,0.));
#553=CARTESIAN_POINT('',(14.,0.,-34.));
#554=CARTESIAN_POINT('',(50.,0.,0.));
#555=CARTESIAN_POINT('',(0.,0.,0.));
#556=CARTESIAN_POINT('',(-8.13151629364128E-17,24.2916666666667,0.));
#557=CARTESIAN_POINT('',(0.,0.,0.));
#558=CARTESIAN_POINT('',(0.,0.,-21.));
#559=CARTESIAN_POINT('',(0.,0.,0.));
#560=CARTESIAN_POINT('',(0.,0.,-24.2916666666667));
#561=CARTESIAN_POINT('',(0.999999999999999,0.,0.));
#562=CARTESIAN_POINT('',(1.,0.,0.));
#563=CARTESIAN_POINT('',(1.,0.,-20.));
#564=CARTESIAN_POINT('',(100.,0.,0.));
#565=CARTESIAN_POINT('',(14.,0.,0.));
#566=CARTESIAN_POINT('',(14.,0.,-20.));
#567=CARTESIAN_POINT('',(14.,0.,0.));
#568=CARTESIAN_POINT('',(15.,0.,0.));
#569=CARTESIAN_POINT('',(15.,0.,-21.));
#570=CARTESIAN_POINT('',(15.,21.,0.));
#571=CARTESIAN_POINT('',(15.,0.,0.));
#572=CARTESIAN_POINT('',(15.,0.,-24.2916666666667));
#573=CARTESIAN_POINT('',(14.6666666666667,0.,0.));
#574=CARTESIAN_POINT('',(14.6666666666667,0.,0.));
#575=CARTESIAN_POINT('',(14.6666666666667,0.,-24.625));
#576=CARTESIAN_POINT('',(100.,0.,0.));
#577=CARTESIAN_POINT('',(10.679989937091,0.,0.));
#578=CARTESIAN_POINT('',(10.679989937091,0.,-24.625));
#579=CARTESIAN_POINT('',(7.5,0.,0.));
#580=CARTESIAN_POINT('',(4.320010062909,0.,0.));
#581=CARTESIAN_POINT('',(4.320010062909,0.,-24.625));
#582=CARTESIAN_POINT('',(100.,0.,0.));
#583=CARTESIAN_POINT('',(0.333333333333338,0.,0.));
#584=CARTESIAN_POINT('',(0.333333333333338,0.,-24.625));
#585=CARTESIAN_POINT('',(0.333333333333331,0.,0.));
#586=CARTESIAN_POINT('',(0.,0.,0.));
#587=MECHANICAL_DESIGN_GEOMETRIC_PRESENTATION_REPRESENTATION('',(#309,#310,
#311),#588);
#588=(
GEOMETRIC_REPRESENTATION_CONTEXT(3)
GLOBAL_UNCERTAINTY_ASSIGNED_CONTEXT((#592))
GLOBAL_UNIT_ASSIGNED_CONTEXT((#598,#597,#596))
REPRESENTATION_CONTEXT('SKF_6008','TOP_LEVEL_ASSEMBLY_PART')
);
#589=(
GEOMETRIC_REPRESENTATION_CONTEXT(3)
GLOBAL_UNCERTAINTY_ASSIGNED_CONTEXT((#593))
GLOBAL_UNIT_ASSIGNED_CONTEXT((#598,#597,#596))
REPRESENTATION_CONTEXT('SKF_6008_ball1','COMPONENT_PART')
);
#590=(
GEOMETRIC_REPRESENTATION_CONTEXT(3)
GLOBAL_UNCERTAINTY_ASSIGNED_CONTEXT((#594))
GLOBAL_UNIT_ASSIGNED_CONTEXT((#598,#597,#596))
REPRESENTATION_CONTEXT('SKF_6008_or','COMPONENT_PART')
);
#591=(
GEOMETRIC_REPRESENTATION_CONTEXT(3)
GLOBAL_UNCERTAINTY_ASSIGNED_CONTEXT((#595))
GLOBAL_UNIT_ASSIGNED_CONTEXT((#598,#597,#596))
REPRESENTATION_CONTEXT('SKF_6008_ir','COMPONENT_PART')
);
#592=UNCERTAINTY_MEASURE_WITH_UNIT(LENGTH_MEASURE(0.005),#598,
'DISTANCE_ACCURACY_VALUE','Maximum Tolerance applied to model');
#593=UNCERTAINTY_MEASURE_WITH_UNIT(LENGTH_MEASURE(0.005),#598,
'DISTANCE_ACCURACY_VALUE','Maximum Tolerance applied to model');
#594=UNCERTAINTY_MEASURE_WITH_UNIT(LENGTH_MEASURE(0.005),#598,
'DISTANCE_ACCURACY_VALUE','Maximum Tolerance applied to model');
#595=UNCERTAINTY_MEASURE_WITH_UNIT(LENGTH_MEASURE(0.005),#598,
'DISTANCE_ACCURACY_VALUE','Maximum Tolerance applied to model');
#596=(
NAMED_UNIT(*)
SI_UNIT($,.STERADIAN.)
SOLID_ANGLE_UNIT()
);
#597=(
NAMED_UNIT(*)
PLANE_ANGLE_UNIT()
SI_UNIT($,.RADIAN.)
);
#598=(
LENGTH_UNIT()
NAMED_UNIT(*)
SI_UNIT(.MILLI.,.METRE.)
);
#599=PRODUCT_DEFINITION_SHAPE('','',#617);
#600=PRODUCT_DEFINITION_SHAPE('','',#618);
#601=PRODUCT_DEFINITION_SHAPE(' ','NAUO PRDDFN',#173);
#602=PRODUCT_DEFINITION_SHAPE(' ','NAUO PRDDFN',#174);
#603=PRODUCT_DEFINITION_SHAPE(' ','NAUO PRDDFN',#175);
#604=PRODUCT_DEFINITION_SHAPE(' ','NAUO PRDDFN',#176);
#605=PRODUCT_DEFINITION_SHAPE(' ','NAUO PRDDFN',#177);
#606=PRODUCT_DEFINITION_SHAPE(' ','NAUO PRDDFN',#178);
#607=PRODUCT_DEFINITION_SHAPE(' ','NAUO PRDDFN',#179);
#608=PRODUCT_DEFINITION_SHAPE(' ','NAUO PRDDFN',#180);
#609=PRODUCT_DEFINITION_SHAPE(' ','NAUO PRDDFN',#181);
#610=PRODUCT_DEFINITION_SHAPE(' ','NAUO PRDDFN',#182);
#611=PRODUCT_DEFINITION_SHAPE(' ','NAUO PRDDFN',#183);
#612=PRODUCT_DEFINITION_SHAPE(' ','NAUO PRDDFN',#184);
#613=PRODUCT_DEFINITION_SHAPE('','',#619);
#614=PRODUCT_DEFINITION_SHAPE(' ','NAUO PRDDFN',#185);
#615=PRODUCT_DEFINITION_SHAPE('','',#620);
#616=PRODUCT_DEFINITION_SHAPE(' ','NAUO PRDDFN',#186);
#617=PRODUCT_DEFINITION('','',#625,#621);
#618=PRODUCT_DEFINITION('','',#626,#622);
#619=PRODUCT_DEFINITION('','',#627,#623);
#620=PRODUCT_DEFINITION('','',#628,#624);
#621=DESIGN_CONTEXT('',#646,'design');
#622=DESIGN_CONTEXT('',#646,'design');
#623=DESIGN_CONTEXT('',#646,'design');
#624=DESIGN_CONTEXT('',#646,'design');
#625=PRODUCT_DEFINITION_FORMATION_WITH_SPECIFIED_SOURCE('','',#633,
 .NOT_KNOWN.);
#626=PRODUCT_DEFINITION_FORMATION_WITH_SPECIFIED_SOURCE('','',#634,
 .NOT_KNOWN.);
#627=PRODUCT_DEFINITION_FORMATION_WITH_SPECIFIED_SOURCE('','',#635,
 .NOT_KNOWN.);
#628=PRODUCT_DEFINITION_FORMATION_WITH_SPECIFIED_SOURCE('','',#636,
 .NOT_KNOWN.);
#629=PRODUCT_RELATED_PRODUCT_CATEGORY('','',(#633));
#630=PRODUCT_RELATED_PRODUCT_CATEGORY('','',(#634));
#631=PRODUCT_RELATED_PRODUCT_CATEGORY('','',(#635));
#632=PRODUCT_RELATED_PRODUCT_CATEGORY('','',(#636));
#633=PRODUCT('SKF_6008','SKF_6008','SKF_6008',(#641));
#634=PRODUCT('SKF_6008_ball1','SKF_6008_ball1','SKF_6008_ball1',(#642));
#635=PRODUCT('SKF_6008_or','SKF_6008_or','SKF_6008_or',(#643));
#636=PRODUCT('SKF_6008_ir','SKF_6008_ir','SKF_6008_ir',(#644));
#637=PRODUCT_CATEGORY('','');
#638=PRODUCT_CATEGORY('','');
#639=PRODUCT_CATEGORY('','');
#640=PRODUCT_CATEGORY('','');
#641=MECHANICAL_CONTEXT('',#646,'mechanical');
#642=MECHANICAL_CONTEXT('',#646,'mechanical');
#643=MECHANICAL_CONTEXT('',#646,'mechanical');
#644=MECHANICAL_CONTEXT('',#646,'mechanical');
#645=APPLICATION_PROTOCOL_DEFINITION('international standard',
'config_control_design',2010,#646);
#646=APPLICATION_CONTEXT(
'configuration controlled 3D designs of mechanical parts and assemblie
s');
ENDSEC;
END-ISO-10303-21;
