ISO-10303-21;
HEADER;
/* Generated by software containing ST-Developer
 * from STEP Tools, Inc. (www.steptools.com) 
 */
/* OPTION: using custom renumber hook */

FILE_DESCRIPTION(
/* description */ ('STEP AP203'),
/* implementation_level */ '2;1');

FILE_NAME(
/* name */ 'SKF_6009',
/* time_stamp */ '2023-07-14T12:49:21+02:00',
/* author */ ('License CC BY-ND 4.0'),
/* organization */ ('CADENAS'),
/* preprocessor_version */ 'ST-DEVELOPER v19.3',
/* originating_system */ 'PARTsolutions',
/* authorisation */ '  ');

FILE_SCHEMA (('CONFIG_CONTROL_DESIGN'));
ENDSEC;

DATA;
#10=PROPERTY_DEFINITION_REPRESENTATION(#14,#12);
#11=PROPERTY_DEFINITION_REPRESENTATION(#15,#13);
#12=REPRESENTATION('',(#16),#596);
#13=REPRESENTATION('',(#17),#596);
#14=PROPERTY_DEFINITION('pmi validation property','',#607);
#15=PROPERTY_DEFINITION('pmi validation property','',#607);
#16=VALUE_REPRESENTATION_ITEM('number of annotations',COUNT_MEASURE(0.));
#17=VALUE_REPRESENTATION_ITEM('number of views',COUNT_MEASURE(0.));
#18=CYLINDRICAL_SURFACE('',#368,32.625);
#19=CYLINDRICAL_SURFACE('',#372,32.625);
#20=CYLINDRICAL_SURFACE('',#380,37.5);
#21=CYLINDRICAL_SURFACE('',#387,22.5);
#22=CYLINDRICAL_SURFACE('',#395,27.375);
#23=CYLINDRICAL_SURFACE('',#399,27.375);
#24=PLANE('',#364);
#25=PLANE('',#376);
#26=PLANE('',#382);
#27=PLANE('',#391);
#28=ORIENTED_EDGE('',*,*,#68,.T.);
#29=ORIENTED_EDGE('',*,*,#69,.F.);
#30=ORIENTED_EDGE('',*,*,#70,.T.);
#31=ORIENTED_EDGE('',*,*,#68,.F.);
#32=ORIENTED_EDGE('',*,*,#71,.T.);
#33=ORIENTED_EDGE('',*,*,#70,.F.);
#34=ORIENTED_EDGE('',*,*,#72,.T.);
#35=ORIENTED_EDGE('',*,*,#71,.F.);
#36=ORIENTED_EDGE('',*,*,#72,.F.);
#37=ORIENTED_EDGE('',*,*,#73,.T.);
#38=ORIENTED_EDGE('',*,*,#74,.T.);
#39=ORIENTED_EDGE('',*,*,#73,.F.);
#40=ORIENTED_EDGE('',*,*,#75,.T.);
#41=ORIENTED_EDGE('',*,*,#74,.F.);
#42=ORIENTED_EDGE('',*,*,#76,.T.);
#43=ORIENTED_EDGE('',*,*,#75,.F.);
#44=ORIENTED_EDGE('',*,*,#77,.T.);
#45=ORIENTED_EDGE('',*,*,#76,.F.);
#46=ORIENTED_EDGE('',*,*,#69,.T.);
#47=ORIENTED_EDGE('',*,*,#77,.F.);
#48=ORIENTED_EDGE('',*,*,#78,.T.);
#49=ORIENTED_EDGE('',*,*,#79,.F.);
#50=ORIENTED_EDGE('',*,*,#80,.T.);
#51=ORIENTED_EDGE('',*,*,#78,.F.);
#52=ORIENTED_EDGE('',*,*,#81,.T.);
#53=ORIENTED_EDGE('',*,*,#80,.F.);
#54=ORIENTED_EDGE('',*,*,#82,.T.);
#55=ORIENTED_EDGE('',*,*,#81,.F.);
#56=ORIENTED_EDGE('',*,*,#83,.T.);
#57=ORIENTED_EDGE('',*,*,#82,.F.);
#58=ORIENTED_EDGE('',*,*,#84,.T.);
#59=ORIENTED_EDGE('',*,*,#83,.F.);
#60=ORIENTED_EDGE('',*,*,#85,.T.);
#61=ORIENTED_EDGE('',*,*,#84,.F.);
#62=ORIENTED_EDGE('',*,*,#85,.F.);
#63=ORIENTED_EDGE('',*,*,#86,.T.);
#64=ORIENTED_EDGE('',*,*,#87,.T.);
#65=ORIENTED_EDGE('',*,*,#86,.F.);
#66=ORIENTED_EDGE('',*,*,#79,.T.);
#67=ORIENTED_EDGE('',*,*,#87,.F.);
#68=EDGE_CURVE('',#226,#226,#88,.T.);
#69=EDGE_CURVE('',#227,#227,#89,.T.);
#70=EDGE_CURVE('',#228,#228,#90,.T.);
#71=EDGE_CURVE('',#229,#229,#91,.T.);
#72=EDGE_CURVE('',#230,#230,#92,.T.);
#73=EDGE_CURVE('',#231,#231,#93,.T.);
#74=EDGE_CURVE('',#232,#232,#94,.T.);
#75=EDGE_CURVE('',#233,#233,#95,.T.);
#76=EDGE_CURVE('',#234,#234,#96,.T.);
#77=EDGE_CURVE('',#235,#235,#97,.T.);
#78=EDGE_CURVE('',#236,#236,#98,.T.);
#79=EDGE_CURVE('',#237,#237,#99,.T.);
#80=EDGE_CURVE('',#238,#238,#100,.T.);
#81=EDGE_CURVE('',#239,#239,#101,.T.);
#82=EDGE_CURVE('',#240,#240,#102,.T.);
#83=EDGE_CURVE('',#241,#241,#103,.T.);
#84=EDGE_CURVE('',#242,#242,#104,.T.);
#85=EDGE_CURVE('',#243,#243,#105,.T.);
#86=EDGE_CURVE('',#244,#244,#106,.T.);
#87=EDGE_CURVE('',#245,#245,#107,.T.);
#88=CIRCLE('',#362,36.5);
#89=CIRCLE('',#363,37.5);
#90=CIRCLE('',#365,32.9583333333333);
#91=CIRCLE('',#367,32.625);
#92=CIRCLE('',#369,32.625);
#93=CIRCLE('',#371,32.625);
#94=CIRCLE('',#373,32.625);
#95=CIRCLE('',#375,32.9583333333333);
#96=CIRCLE('',#377,36.5);
#97=CIRCLE('',#379,37.5);
#98=CIRCLE('',#383,23.5);
#99=CIRCLE('',#384,27.0416666666667);
#100=CIRCLE('',#386,22.5);
#101=CIRCLE('',#388,22.5);
#102=CIRCLE('',#390,23.5);
#103=CIRCLE('',#392,27.0416666666667);
#104=CIRCLE('',#394,27.375);
#105=CIRCLE('',#396,27.375);
#106=CIRCLE('',#398,27.375);
#107=CIRCLE('',#400,27.375);
#108=EDGE_LOOP('',(#28));
#109=EDGE_LOOP('',(#29));
#110=EDGE_LOOP('',(#30));
#111=EDGE_LOOP('',(#31));
#112=EDGE_LOOP('',(#32));
#113=EDGE_LOOP('',(#33));
#114=EDGE_LOOP('',(#34));
#115=EDGE_LOOP('',(#35));
#116=EDGE_LOOP('',(#36));
#117=EDGE_LOOP('',(#37));
#118=EDGE_LOOP('',(#38));
#119=EDGE_LOOP('',(#39));
#120=EDGE_LOOP('',(#40));
#121=EDGE_LOOP('',(#41));
#122=EDGE_LOOP('',(#42));
#123=EDGE_LOOP('',(#43));
#124=EDGE_LOOP('',(#44));
#125=EDGE_LOOP('',(#45));
#126=EDGE_LOOP('',(#46));
#127=EDGE_LOOP('',(#47));
#128=EDGE_LOOP('',(#48));
#129=EDGE_LOOP('',(#49));
#130=EDGE_LOOP('',(#50));
#131=EDGE_LOOP('',(#51));
#132=EDGE_LOOP('',(#52));
#133=EDGE_LOOP('',(#53));
#134=EDGE_LOOP('',(#54));
#135=EDGE_LOOP('',(#55));
#136=EDGE_LOOP('',(#56));
#137=EDGE_LOOP('',(#57));
#138=EDGE_LOOP('',(#58));
#139=EDGE_LOOP('',(#59));
#140=EDGE_LOOP('',(#60));
#141=EDGE_LOOP('',(#61));
#142=EDGE_LOOP('',(#62));
#143=EDGE_LOOP('',(#63));
#144=EDGE_LOOP('',(#64));
#145=EDGE_LOOP('',(#65));
#146=EDGE_LOOP('',(#66));
#147=EDGE_LOOP('',(#67));
#148=TOROIDAL_SURFACE('',#361,36.5,0.999999999999987);
#149=TOROIDAL_SURFACE('',#366,32.9583333333333,0.333333333333343);
#150=TOROIDAL_SURFACE('',#370,30.,4.3655);
#151=TOROIDAL_SURFACE('',#374,32.9583333333333,0.333333333333338);
#152=TOROIDAL_SURFACE('',#378,36.5,0.999999999999996);
#153=TOROIDAL_SURFACE('',#385,23.5,1.00000000000001);
#154=TOROIDAL_SURFACE('',#389,23.5,1.);
#155=TOROIDAL_SURFACE('',#393,27.0416666666667,0.333333333333328);
#156=TOROIDAL_SURFACE('',#397,30.,4.3655);
#157=TOROIDAL_SURFACE('',#401,27.0416666666667,0.333333333333331);
#158=COLOUR_RGB('',0.689999997615814,0.689999997615814,0.689999997615814);
#159=CONTEXT_DEPENDENT_SHAPE_REPRESENTATION(#189,#609);
#160=CONTEXT_DEPENDENT_SHAPE_REPRESENTATION(#190,#610);
#161=CONTEXT_DEPENDENT_SHAPE_REPRESENTATION(#191,#611);
#162=CONTEXT_DEPENDENT_SHAPE_REPRESENTATION(#192,#612);
#163=CONTEXT_DEPENDENT_SHAPE_REPRESENTATION(#193,#613);
#164=CONTEXT_DEPENDENT_SHAPE_REPRESENTATION(#194,#614);
#165=CONTEXT_DEPENDENT_SHAPE_REPRESENTATION(#195,#615);
#166=CONTEXT_DEPENDENT_SHAPE_REPRESENTATION(#196,#616);
#167=CONTEXT_DEPENDENT_SHAPE_REPRESENTATION(#197,#617);
#168=CONTEXT_DEPENDENT_SHAPE_REPRESENTATION(#198,#618);
#169=CONTEXT_DEPENDENT_SHAPE_REPRESENTATION(#199,#619);
#170=CONTEXT_DEPENDENT_SHAPE_REPRESENTATION(#200,#620);
#171=CONTEXT_DEPENDENT_SHAPE_REPRESENTATION(#201,#621);
#172=CONTEXT_DEPENDENT_SHAPE_REPRESENTATION(#202,#623);
#173=CONTEXT_DEPENDENT_SHAPE_REPRESENTATION(#203,#625);
#174=NEXT_ASSEMBLY_USAGE_OCCURRENCE('NAUO1','SKF_6009_ball1',
'SKF_6009_ball1',#626,#627,'');
#175=NEXT_ASSEMBLY_USAGE_OCCURRENCE('NAUO2','SKF_6009_ball1',
'SKF_6009_ball1',#626,#627,'');
#176=NEXT_ASSEMBLY_USAGE_OCCURRENCE('NAUO3','SKF_6009_ball1',
'SKF_6009_ball1',#626,#627,'');
#177=NEXT_ASSEMBLY_USAGE_OCCURRENCE('NAUO4','SKF_6009_ball1',
'SKF_6009_ball1',#626,#627,'');
#178=NEXT_ASSEMBLY_USAGE_OCCURRENCE('NAUO5','SKF_6009_ball1',
'SKF_6009_ball1',#626,#627,'');
#179=NEXT_ASSEMBLY_USAGE_OCCURRENCE('NAUO6','SKF_6009_ball1',
'SKF_6009_ball1',#626,#627,'');
#180=NEXT_ASSEMBLY_USAGE_OCCURRENCE('NAUO7','SKF_6009_ball1',
'SKF_6009_ball1',#626,#627,'');
#181=NEXT_ASSEMBLY_USAGE_OCCURRENCE('NAUO8','SKF_6009_ball1',
'SKF_6009_ball1',#626,#627,'');
#182=NEXT_ASSEMBLY_USAGE_OCCURRENCE('NAUO9','SKF_6009_ball1',
'SKF_6009_ball1',#626,#627,'');
#183=NEXT_ASSEMBLY_USAGE_OCCURRENCE('NAUO10','SKF_6009_ball1',
'SKF_6009_ball1',#626,#627,'');
#184=NEXT_ASSEMBLY_USAGE_OCCURRENCE('NAUO11','SKF_6009_ball1',
'SKF_6009_ball1',#626,#627,'');
#185=NEXT_ASSEMBLY_USAGE_OCCURRENCE('NAUO12','SKF_6009_ball1',
'SKF_6009_ball1',#626,#627,'');
#186=NEXT_ASSEMBLY_USAGE_OCCURRENCE('NAUO13','SKF_6009_ball1',
'SKF_6009_ball1',#626,#627,'');
#187=NEXT_ASSEMBLY_USAGE_OCCURRENCE('NAUO14','SKF_6009_or',
'SKF_6009_or',#626,#628,'');
#188=NEXT_ASSEMBLY_USAGE_OCCURRENCE('NAUO15','SKF_6009_ir',
'SKF_6009_ir',#626,#629,'');
#189=(
REPRESENTATION_RELATIONSHIP(' ',' ',#343,#342)
REPRESENTATION_RELATIONSHIP_WITH_TRANSFORMATION(#204)
SHAPE_REPRESENTATION_RELATIONSHIP()
);
#190=(
REPRESENTATION_RELATIONSHIP(' ',' ',#343,#342)
REPRESENTATION_RELATIONSHIP_WITH_TRANSFORMATION(#205)
SHAPE_REPRESENTATION_RELATIONSHIP()
);
#191=(
REPRESENTATION_RELATIONSHIP(' ',' ',#343,#342)
REPRESENTATION_RELATIONSHIP_WITH_TRANSFORMATION(#206)
SHAPE_REPRESENTATION_RELATIONSHIP()
);
#192=(
REPRESENTATION_RELATIONSHIP(' ',' ',#343,#342)
REPRESENTATION_RELATIONSHIP_WITH_TRANSFORMATION(#207)
SHAPE_REPRESENTATION_RELATIONSHIP()
);
#193=(
REPRESENTATION_RELATIONSHIP(' ',' ',#343,#342)
REPRESENTATION_RELATIONSHIP_WITH_TRANSFORMATION(#208)
SHAPE_REPRESENTATION_RELATIONSHIP()
);
#194=(
REPRESENTATION_RELATIONSHIP(' ',' ',#343,#342)
REPRESENTATION_RELATIONSHIP_WITH_TRANSFORMATION(#209)
SHAPE_REPRESENTATION_RELATIONSHIP()
);
#195=(
REPRESENTATION_RELATIONSHIP(' ',' ',#343,#342)
REPRESENTATION_RELATIONSHIP_WITH_TRANSFORMATION(#210)
SHAPE_REPRESENTATION_RELATIONSHIP()
);
#196=(
REPRESENTATION_RELATIONSHIP(' ',' ',#343,#342)
REPRESENTATION_RELATIONSHIP_WITH_TRANSFORMATION(#211)
SHAPE_REPRESENTATION_RELATIONSHIP()
);
#197=(
REPRESENTATION_RELATIONSHIP(' ',' ',#343,#342)
REPRESENTATION_RELATIONSHIP_WITH_TRANSFORMATION(#212)
SHAPE_REPRESENTATION_RELATIONSHIP()
);
#198=(
REPRESENTATION_RELATIONSHIP(' ',' ',#343,#342)
REPRESENTATION_RELATIONSHIP_WITH_TRANSFORMATION(#213)
SHAPE_REPRESENTATION_RELATIONSHIP()
);
#199=(
REPRESENTATION_RELATIONSHIP(' ',' ',#343,#342)
REPRESENTATION_RELATIONSHIP_WITH_TRANSFORMATION(#214)
SHAPE_REPRESENTATION_RELATIONSHIP()
);
#200=(
REPRESENTATION_RELATIONSHIP(' ',' ',#343,#342)
REPRESENTATION_RELATIONSHIP_WITH_TRANSFORMATION(#215)
SHAPE_REPRESENTATION_RELATIONSHIP()
);
#201=(
REPRESENTATION_RELATIONSHIP(' ',' ',#343,#342)
REPRESENTATION_RELATIONSHIP_WITH_TRANSFORMATION(#216)
SHAPE_REPRESENTATION_RELATIONSHIP()
);
#202=(
REPRESENTATION_RELATIONSHIP(' ',' ',#344,#342)
REPRESENTATION_RELATIONSHIP_WITH_TRANSFORMATION(#217)
SHAPE_REPRESENTATION_RELATIONSHIP()
);
#203=(
REPRESENTATION_RELATIONSHIP(' ',' ',#345,#342)
REPRESENTATION_RELATIONSHIP_WITH_TRANSFORMATION(#218)
SHAPE_REPRESENTATION_RELATIONSHIP()
);
#204=ITEM_DEFINED_TRANSFORMATION(' ',' ',#346,#348);
#205=ITEM_DEFINED_TRANSFORMATION(' ',' ',#346,#349);
#206=ITEM_DEFINED_TRANSFORMATION(' ',' ',#346,#350);
#207=ITEM_DEFINED_TRANSFORMATION(' ',' ',#346,#351);
#208=ITEM_DEFINED_TRANSFORMATION(' ',' ',#346,#352);
#209=ITEM_DEFINED_TRANSFORMATION(' ',' ',#346,#353);
#210=ITEM_DEFINED_TRANSFORMATION(' ',' ',#346,#354);
#211=ITEM_DEFINED_TRANSFORMATION(' ',' ',#346,#355);
#212=ITEM_DEFINED_TRANSFORMATION(' ',' ',#346,#356);
#213=ITEM_DEFINED_TRANSFORMATION(' ',' ',#346,#357);
#214=ITEM_DEFINED_TRANSFORMATION(' ',' ',#346,#358);
#215=ITEM_DEFINED_TRANSFORMATION(' ',' ',#346,#359);
#216=ITEM_DEFINED_TRANSFORMATION(' ',' ',#346,#360);
#217=ITEM_DEFINED_TRANSFORMATION(' ',' ',#346,#381);
#218=ITEM_DEFINED_TRANSFORMATION(' ',' ',#346,#402);
#219=SHAPE_REPRESENTATION_RELATIONSHIP('','',#343,#222);
#220=SHAPE_REPRESENTATION_RELATIONSHIP('','',#344,#223);
#221=SHAPE_REPRESENTATION_RELATIONSHIP('','',#345,#224);
#222=ADVANCED_BREP_SHAPE_REPRESENTATION('',(#335),#597);
#223=ADVANCED_BREP_SHAPE_REPRESENTATION('',(#336),#598);
#224=ADVANCED_BREP_SHAPE_REPRESENTATION('',(#337),#599);
#225=VERTEX_POINT('',#519);
#226=VERTEX_POINT('',#535);
#227=VERTEX_POINT('',#537);
#228=VERTEX_POINT('',#540);
#229=VERTEX_POINT('',#543);
#230=VERTEX_POINT('',#546);
#231=VERTEX_POINT('',#549);
#232=VERTEX_POINT('',#552);
#233=VERTEX_POINT('',#555);
#234=VERTEX_POINT('',#558);
#235=VERTEX_POINT('',#561);
#236=VERTEX_POINT('',#566);
#237=VERTEX_POINT('',#568);
#238=VERTEX_POINT('',#571);
#239=VERTEX_POINT('',#574);
#240=VERTEX_POINT('',#577);
#241=VERTEX_POINT('',#580);
#242=VERTEX_POINT('',#583);
#243=VERTEX_POINT('',#586);
#244=VERTEX_POINT('',#589);
#245=VERTEX_POINT('',#592);
#246=VERTEX_LOOP('',#225);
#247=FACE_BOUND('',#246,.T.);
#248=FACE_BOUND('',#108,.T.);
#249=FACE_BOUND('',#109,.T.);
#250=FACE_BOUND('',#110,.T.);
#251=FACE_BOUND('',#111,.T.);
#252=FACE_BOUND('',#112,.T.);
#253=FACE_BOUND('',#113,.T.);
#254=FACE_BOUND('',#114,.T.);
#255=FACE_BOUND('',#115,.T.);
#256=FACE_BOUND('',#116,.T.);
#257=FACE_BOUND('',#117,.T.);
#258=FACE_BOUND('',#118,.T.);
#259=FACE_BOUND('',#119,.T.);
#260=FACE_BOUND('',#120,.T.);
#261=FACE_BOUND('',#121,.T.);
#262=FACE_BOUND('',#122,.T.);
#263=FACE_BOUND('',#123,.T.);
#264=FACE_BOUND('',#124,.T.);
#265=FACE_BOUND('',#125,.T.);
#266=FACE_BOUND('',#126,.T.);
#267=FACE_BOUND('',#127,.T.);
#268=FACE_BOUND('',#128,.T.);
#269=FACE_BOUND('',#129,.T.);
#270=FACE_BOUND('',#130,.T.);
#271=FACE_BOUND('',#131,.T.);
#272=FACE_BOUND('',#132,.T.);
#273=FACE_BOUND('',#133,.T.);
#274=FACE_BOUND('',#134,.T.);
#275=FACE_BOUND('',#135,.T.);
#276=FACE_BOUND('',#136,.T.);
#277=FACE_BOUND('',#137,.T.);
#278=FACE_BOUND('',#138,.T.);
#279=FACE_BOUND('',#139,.T.);
#280=FACE_BOUND('',#140,.T.);
#281=FACE_BOUND('',#141,.T.);
#282=FACE_BOUND('',#142,.T.);
#283=FACE_BOUND('',#143,.T.);
#284=FACE_BOUND('',#144,.T.);
#285=FACE_BOUND('',#145,.T.);
#286=FACE_BOUND('',#146,.T.);
#287=FACE_BOUND('',#147,.T.);
#288=SPHERICAL_SURFACE('',#347,4.3655);
#289=ADVANCED_FACE('',(#247),#288,.T.);
#290=ADVANCED_FACE('',(#248,#249),#148,.T.);
#291=ADVANCED_FACE('',(#250,#251),#24,.T.);
#292=ADVANCED_FACE('',(#252,#253),#149,.T.);
#293=ADVANCED_FACE('',(#254,#255),#18,.F.);
#294=ADVANCED_FACE('',(#256,#257),#150,.F.);
#295=ADVANCED_FACE('',(#258,#259),#19,.F.);
#296=ADVANCED_FACE('',(#260,#261),#151,.T.);
#297=ADVANCED_FACE('',(#262,#263),#25,.T.);
#298=ADVANCED_FACE('',(#264,#265),#152,.T.);
#299=ADVANCED_FACE('',(#266,#267),#20,.T.);
#300=ADVANCED_FACE('',(#268,#269),#26,.T.);
#301=ADVANCED_FACE('',(#270,#271),#153,.T.);
#302=ADVANCED_FACE('',(#272,#273),#21,.F.);
#303=ADVANCED_FACE('',(#274,#275),#154,.T.);
#304=ADVANCED_FACE('',(#276,#277),#27,.T.);
#305=ADVANCED_FACE('',(#278,#279),#155,.T.);
#306=ADVANCED_FACE('',(#280,#281),#22,.T.);
#307=ADVANCED_FACE('',(#282,#283),#156,.F.);
#308=ADVANCED_FACE('',(#284,#285),#23,.T.);
#309=ADVANCED_FACE('',(#286,#287),#157,.T.);
#310=CLOSED_SHELL('',(#289));
#311=CLOSED_SHELL('',(#290,#291,#292,#293,#294,#295,#296,#297,#298,#299));
#312=CLOSED_SHELL('',(#300,#301,#302,#303,#304,#305,#306,#307,#308,#309));
#313=STYLED_ITEM('',(#316),#335);
#314=STYLED_ITEM('',(#317),#336);
#315=STYLED_ITEM('',(#318),#337);
#316=PRESENTATION_STYLE_ASSIGNMENT((#319));
#317=PRESENTATION_STYLE_ASSIGNMENT((#320));
#318=PRESENTATION_STYLE_ASSIGNMENT((#321));
#319=SURFACE_STYLE_USAGE(.BOTH.,#322);
#320=SURFACE_STYLE_USAGE(.BOTH.,#323);
#321=SURFACE_STYLE_USAGE(.BOTH.,#324);
#322=SURFACE_SIDE_STYLE('',(#325));
#323=SURFACE_SIDE_STYLE('',(#326));
#324=SURFACE_SIDE_STYLE('',(#327));
#325=SURFACE_STYLE_FILL_AREA(#328);
#326=SURFACE_STYLE_FILL_AREA(#329);
#327=SURFACE_STYLE_FILL_AREA(#330);
#328=FILL_AREA_STYLE('',(#331));
#329=FILL_AREA_STYLE('',(#332));
#330=FILL_AREA_STYLE('',(#333));
#331=FILL_AREA_STYLE_COLOUR('',#334);
#332=FILL_AREA_STYLE_COLOUR('',#158);
#333=FILL_AREA_STYLE_COLOUR('',#158);
#334=DRAUGHTING_PRE_DEFINED_COLOUR('yellow');
#335=MANIFOLD_SOLID_BREP('SKF_6009_ball1',#310);
#336=MANIFOLD_SOLID_BREP('SKF_6009_or',#311);
#337=MANIFOLD_SOLID_BREP('SKF_6009_ir',#312);
#338=SHAPE_DEFINITION_REPRESENTATION(#607,#342);
#339=SHAPE_DEFINITION_REPRESENTATION(#608,#343);
#340=SHAPE_DEFINITION_REPRESENTATION(#622,#344);
#341=SHAPE_DEFINITION_REPRESENTATION(#624,#345);
#342=SHAPE_REPRESENTATION('SKF_6009',(#346,#348,#349,#350,#351,#352,#353,
#354,#355,#356,#357,#358,#359,#360,#381,#402),#596);
#343=SHAPE_REPRESENTATION('SKF_6009_ball1',(#346),#597);
#344=SHAPE_REPRESENTATION('SKF_6009_or',(#346),#598);
#345=SHAPE_REPRESENTATION('SKF_6009_ir',(#346),#599);
#346=AXIS2_PLACEMENT_3D('',#517,#403,#404);
#347=AXIS2_PLACEMENT_3D('',#518,#405,#406);
#348=AXIS2_PLACEMENT_3D('',#520,#407,#408);
#349=AXIS2_PLACEMENT_3D('',#521,#409,#410);
#350=AXIS2_PLACEMENT_3D('',#522,#411,#412);
#351=AXIS2_PLACEMENT_3D('',#523,#413,#414);
#352=AXIS2_PLACEMENT_3D('',#524,#415,#416);
#353=AXIS2_PLACEMENT_3D('',#525,#417,#418);
#354=AXIS2_PLACEMENT_3D('',#526,#419,#420);
#355=AXIS2_PLACEMENT_3D('',#527,#421,#422);
#356=AXIS2_PLACEMENT_3D('',#528,#423,#424);
#357=AXIS2_PLACEMENT_3D('',#529,#425,#426);
#358=AXIS2_PLACEMENT_3D('',#530,#427,#428);
#359=AXIS2_PLACEMENT_3D('',#531,#429,#430);
#360=AXIS2_PLACEMENT_3D('',#532,#431,#432);
#361=AXIS2_PLACEMENT_3D('',#533,#433,#434);
#362=AXIS2_PLACEMENT_3D('',#534,#435,#436);
#363=AXIS2_PLACEMENT_3D('',#536,#437,#438);
#364=AXIS2_PLACEMENT_3D('',#538,#439,#440);
#365=AXIS2_PLACEMENT_3D('',#539,#441,#442);
#366=AXIS2_PLACEMENT_3D('',#541,#443,#444);
#367=AXIS2_PLACEMENT_3D('',#542,#445,#446);
#368=AXIS2_PLACEMENT_3D('',#544,#447,#448);
#369=AXIS2_PLACEMENT_3D('',#545,#449,#450);
#370=AXIS2_PLACEMENT_3D('',#547,#451,#452);
#371=AXIS2_PLACEMENT_3D('',#548,#453,#454);
#372=AXIS2_PLACEMENT_3D('',#550,#455,#456);
#373=AXIS2_PLACEMENT_3D('',#551,#457,#458);
#374=AXIS2_PLACEMENT_3D('',#553,#459,#460);
#375=AXIS2_PLACEMENT_3D('',#554,#461,#462);
#376=AXIS2_PLACEMENT_3D('',#556,#463,#464);
#377=AXIS2_PLACEMENT_3D('',#557,#465,#466);
#378=AXIS2_PLACEMENT_3D('',#559,#467,#468);
#379=AXIS2_PLACEMENT_3D('',#560,#469,#470);
#380=AXIS2_PLACEMENT_3D('',#562,#471,#472);
#381=AXIS2_PLACEMENT_3D('',#563,#473,#474);
#382=AXIS2_PLACEMENT_3D('',#564,#475,#476);
#383=AXIS2_PLACEMENT_3D('',#565,#477,#478);
#384=AXIS2_PLACEMENT_3D('',#567,#479,#480);
#385=AXIS2_PLACEMENT_3D('',#569,#481,#482);
#386=AXIS2_PLACEMENT_3D('',#570,#483,#484);
#387=AXIS2_PLACEMENT_3D('',#572,#485,#486);
#388=AXIS2_PLACEMENT_3D('',#573,#487,#488);
#389=AXIS2_PLACEMENT_3D('',#575,#489,#490);
#390=AXIS2_PLACEMENT_3D('',#576,#491,#492);
#391=AXIS2_PLACEMENT_3D('',#578,#493,#494);
#392=AXIS2_PLACEMENT_3D('',#579,#495,#496);
#393=AXIS2_PLACEMENT_3D('',#581,#497,#498);
#394=AXIS2_PLACEMENT_3D('',#582,#499,#500);
#395=AXIS2_PLACEMENT_3D('',#584,#501,#502);
#396=AXIS2_PLACEMENT_3D('',#585,#503,#504);
#397=AXIS2_PLACEMENT_3D('',#587,#505,#506);
#398=AXIS2_PLACEMENT_3D('',#588,#507,#508);
#399=AXIS2_PLACEMENT_3D('',#590,#509,#510);
#400=AXIS2_PLACEMENT_3D('',#591,#511,#512);
#401=AXIS2_PLACEMENT_3D('',#593,#513,#514);
#402=AXIS2_PLACEMENT_3D('',#594,#515,#516);
#403=DIRECTION('',(0.,0.,1.));
#404=DIRECTION('',(1.,0.,0.));
#405=DIRECTION('',(1.,0.,0.));
#406=DIRECTION('',(0.,1.,0.));
#407=DIRECTION('',(0.,0.,1.));
#408=DIRECTION('',(-1.,0.,0.));
#409=DIRECTION('',(0.,0.,1.));
#410=DIRECTION('',(-1.,0.,0.));
#411=DIRECTION('',(0.,0.,1.));
#412=DIRECTION('',(-1.,0.,0.));
#413=DIRECTION('',(0.,0.,1.));
#414=DIRECTION('',(-1.,0.,0.));
#415=DIRECTION('',(0.,0.,1.));
#416=DIRECTION('',(-1.,0.,0.));
#417=DIRECTION('',(0.,0.,1.));
#418=DIRECTION('',(-1.,0.,0.));
#419=DIRECTION('',(0.,0.,1.));
#420=DIRECTION('',(-1.,0.,0.));
#421=DIRECTION('',(0.,0.,1.));
#422=DIRECTION('',(-1.,0.,0.));
#423=DIRECTION('',(0.,0.,1.));
#424=DIRECTION('',(-1.,0.,0.));
#425=DIRECTION('',(0.,0.,1.));
#426=DIRECTION('',(-1.,0.,0.));
#427=DIRECTION('',(0.,0.,1.));
#428=DIRECTION('',(-1.,0.,0.));
#429=DIRECTION('',(0.,0.,1.));
#430=DIRECTION('',(-1.,0.,0.));
#431=DIRECTION('',(0.,0.,1.));
#432=DIRECTION('',(-1.,0.,0.));
#433=DIRECTION('',(1.,0.,0.));
#434=DIRECTION('',(0.,0.,-1.));
#435=DIRECTION('',(1.,0.,0.));
#436=DIRECTION('',(0.,0.,-1.));
#437=DIRECTION('',(1.,0.,0.));
#438=DIRECTION('',(0.,0.,-1.));
#439=DIRECTION('',(-1.,0.,0.));
#440=DIRECTION('',(0.,0.,1.));
#441=DIRECTION('',(1.,0.,0.));
#442=DIRECTION('',(0.,0.,-1.));
#443=DIRECTION('',(1.,0.,0.));
#444=DIRECTION('',(0.,0.,-1.));
#445=DIRECTION('',(1.,0.,0.));
#446=DIRECTION('',(0.,0.,-1.));
#447=DIRECTION('',(1.,0.,0.));
#448=DIRECTION('',(0.,0.,-1.));
#449=DIRECTION('',(1.,0.,0.));
#450=DIRECTION('',(0.,0.,-1.));
#451=DIRECTION('',(1.,0.,0.));
#452=DIRECTION('',(0.,0.,-1.));
#453=DIRECTION('',(1.,0.,0.));
#454=DIRECTION('',(0.,0.,-1.));
#455=DIRECTION('',(1.,0.,0.));
#456=DIRECTION('',(0.,0.,-1.));
#457=DIRECTION('',(1.,0.,0.));
#458=DIRECTION('',(0.,0.,-1.));
#459=DIRECTION('',(1.,0.,0.));
#460=DIRECTION('',(0.,0.,-1.));
#461=DIRECTION('',(1.,0.,0.));
#462=DIRECTION('',(0.,0.,-1.));
#463=DIRECTION('',(1.,0.,0.));
#464=DIRECTION('',(0.,0.,-1.));
#465=DIRECTION('',(1.,0.,0.));
#466=DIRECTION('',(0.,0.,-1.));
#467=DIRECTION('',(1.,0.,0.));
#468=DIRECTION('',(0.,0.,-1.));
#469=DIRECTION('',(1.,0.,0.));
#470=DIRECTION('',(0.,0.,-1.));
#471=DIRECTION('',(1.,0.,0.));
#472=DIRECTION('',(0.,0.,-1.));
#473=DIRECTION('',(0.,0.,-1.));
#474=DIRECTION('',(1.,0.,0.));
#475=DIRECTION('',(-1.,0.,0.));
#476=DIRECTION('',(0.,0.,1.));
#477=DIRECTION('',(1.,0.,0.));
#478=DIRECTION('',(0.,0.,-1.));
#479=DIRECTION('',(1.,0.,0.));
#480=DIRECTION('',(0.,0.,-1.));
#481=DIRECTION('',(1.,0.,0.));
#482=DIRECTION('',(0.,0.,-1.));
#483=DIRECTION('',(1.,0.,0.));
#484=DIRECTION('',(0.,0.,-1.));
#485=DIRECTION('',(1.,0.,0.));
#486=DIRECTION('',(0.,0.,-1.));
#487=DIRECTION('',(1.,0.,0.));
#488=DIRECTION('',(0.,0.,-1.));
#489=DIRECTION('',(1.,0.,0.));
#490=DIRECTION('',(0.,0.,-1.));
#491=DIRECTION('',(1.,0.,0.));
#492=DIRECTION('',(0.,0.,-1.));
#493=DIRECTION('',(1.,0.,0.));
#494=DIRECTION('',(0.,0.,-1.));
#495=DIRECTION('',(1.,0.,0.));
#496=DIRECTION('',(0.,0.,-1.));
#497=DIRECTION('',(1.,0.,0.));
#498=DIRECTION('',(0.,0.,-1.));
#499=DIRECTION('',(1.,0.,0.));
#500=DIRECTION('',(0.,0.,-1.));
#501=DIRECTION('',(1.,0.,0.));
#502=DIRECTION('',(0.,0.,-1.));
#503=DIRECTION('',(1.,0.,0.));
#504=DIRECTION('',(0.,0.,-1.));
#505=DIRECTION('',(1.,0.,0.));
#506=DIRECTION('',(0.,0.,-1.));
#507=DIRECTION('',(1.,0.,0.));
#508=DIRECTION('',(0.,0.,-1.));
#509=DIRECTION('',(1.,0.,0.));
#510=DIRECTION('',(0.,0.,-1.));
#511=DIRECTION('',(1.,0.,0.));
#512=DIRECTION('',(0.,0.,-1.));
#513=DIRECTION('',(1.,0.,0.));
#514=DIRECTION('',(0.,0.,-1.));
#515=DIRECTION('',(0.,0.,-1.));
#516=DIRECTION('',(1.,0.,0.));
#517=CARTESIAN_POINT('',(0.,0.,0.));
#518=CARTESIAN_POINT('',(8.,30.,0.));
#519=CARTESIAN_POINT('',(3.6345,30.,0.));
#520=CARTESIAN_POINT('',(16.,56.5636807695963,-13.9416951613131));
#521=CARTESIAN_POINT('',(16.,47.0419424019347,-24.6895159768097));
#522=CARTESIAN_POINT('',(16.,33.6161004076597,-29.7812662229416));
#523=CARTESIAN_POINT('',(16.,19.3618533887239,-28.0504872805624));
#524=CARTESIAN_POINT('',(16.,7.54467755486697,-19.8936797472239));
#525=CARTESIAN_POINT('',(16.,0.87174547721844,-7.17946992862673));
#526=CARTESIAN_POINT('',(16.,0.87174547721844,7.17946992862673));
#527=CARTESIAN_POINT('',(16.,7.54467755486697,19.8936797472239));
#528=CARTESIAN_POINT('',(16.,19.3618533887239,28.0504872805624));
#529=CARTESIAN_POINT('',(16.,33.6161004076597,29.7812662229416));
#530=CARTESIAN_POINT('',(16.,47.0419424019347,24.6895159768097));
#531=CARTESIAN_POINT('',(16.,56.5636807695963,13.9416951613131));
#532=CARTESIAN_POINT('',(16.,60.,0.));
#533=CARTESIAN_POINT('',(0.999999999999993,0.,0.));
#534=CARTESIAN_POINT('',(0.,0.,0.));
#535=CARTESIAN_POINT('',(0.,0.,-36.5));
#536=CARTESIAN_POINT('',(1.,0.,0.));
#537=CARTESIAN_POINT('',(1.,0.,-37.5));
#538=CARTESIAN_POINT('',(0.,36.5,0.));
#539=CARTESIAN_POINT('',(0.,0.,0.));
#540=CARTESIAN_POINT('',(0.,0.,-32.9583333333333));
#541=CARTESIAN_POINT('',(0.333333333333343,0.,0.));
#542=CARTESIAN_POINT('',(0.333333333333331,0.,0.));
#543=CARTESIAN_POINT('',(0.333333333333331,0.,-32.625));
#544=CARTESIAN_POINT('',(50.,0.,0.));
#545=CARTESIAN_POINT('',(4.51188227692929,0.,0.));
#546=CARTESIAN_POINT('',(4.51188227692929,0.,-32.625));
#547=CARTESIAN_POINT('',(8.,0.,0.));
#548=CARTESIAN_POINT('',(11.4881177230707,0.,0.));
#549=CARTESIAN_POINT('',(11.4881177230707,0.,-32.625));
#550=CARTESIAN_POINT('',(50.,0.,0.));
#551=CARTESIAN_POINT('',(15.6666666666667,0.,0.));
#552=CARTESIAN_POINT('',(15.6666666666667,0.,-32.625));
#553=CARTESIAN_POINT('',(15.6666666666667,0.,0.));
#554=CARTESIAN_POINT('',(16.,0.,0.));
#555=CARTESIAN_POINT('',(16.,0.,-32.9583333333333));
#556=CARTESIAN_POINT('',(16.,32.9583333333333,0.));
#557=CARTESIAN_POINT('',(16.,0.,0.));
#558=CARTESIAN_POINT('',(16.,0.,-36.5));
#559=CARTESIAN_POINT('',(15.,0.,0.));
#560=CARTESIAN_POINT('',(15.,0.,0.));
#561=CARTESIAN_POINT('',(15.,0.,-37.5));
#562=CARTESIAN_POINT('',(50.,0.,0.));
#563=CARTESIAN_POINT('',(0.,0.,0.));
#564=CARTESIAN_POINT('',(-2.16840434497101E-16,27.0416666666667,0.));
#565=CARTESIAN_POINT('',(0.,0.,0.));
#566=CARTESIAN_POINT('',(0.,0.,-23.5));
#567=CARTESIAN_POINT('',(0.,0.,0.));
#568=CARTESIAN_POINT('',(0.,0.,-27.0416666666667));
#569=CARTESIAN_POINT('',(1.00000000000001,0.,0.));
#570=CARTESIAN_POINT('',(1.,0.,0.));
#571=CARTESIAN_POINT('',(1.,0.,-22.5));
#572=CARTESIAN_POINT('',(100.,0.,0.));
#573=CARTESIAN_POINT('',(15.,0.,0.));
#574=CARTESIAN_POINT('',(15.,0.,-22.5));
#575=CARTESIAN_POINT('',(15.,0.,0.));
#576=CARTESIAN_POINT('',(16.,0.,0.));
#577=CARTESIAN_POINT('',(16.,0.,-23.5));
#578=CARTESIAN_POINT('',(16.,23.5,0.));
#579=CARTESIAN_POINT('',(16.,0.,0.));
#580=CARTESIAN_POINT('',(16.,0.,-27.0416666666667));
#581=CARTESIAN_POINT('',(15.6666666666667,0.,0.));
#582=CARTESIAN_POINT('',(15.6666666666667,0.,0.));
#583=CARTESIAN_POINT('',(15.6666666666667,0.,-27.375));
#584=CARTESIAN_POINT('',(100.,0.,0.));
#585=CARTESIAN_POINT('',(11.4881177230707,0.,0.));
#586=CARTESIAN_POINT('',(11.4881177230707,0.,-27.375));
#587=CARTESIAN_POINT('',(8.,0.,0.));
#588=CARTESIAN_POINT('',(4.51188227692929,0.,0.));
#589=CARTESIAN_POINT('',(4.51188227692929,0.,-27.375));
#590=CARTESIAN_POINT('',(100.,0.,0.));
#591=CARTESIAN_POINT('',(0.333333333333338,0.,0.));
#592=CARTESIAN_POINT('',(0.333333333333338,0.,-27.375));
#593=CARTESIAN_POINT('',(0.333333333333331,0.,0.));
#594=CARTESIAN_POINT('',(0.,0.,0.));
#595=MECHANICAL_DESIGN_GEOMETRIC_PRESENTATION_REPRESENTATION('',(#313,#314,
#315),#596);
#596=(
GEOMETRIC_REPRESENTATION_CONTEXT(3)
GLOBAL_UNCERTAINTY_ASSIGNED_CONTEXT((#600))
GLOBAL_UNIT_ASSIGNED_CONTEXT((#606,#605,#604))
REPRESENTATION_CONTEXT('SKF_6009','TOP_LEVEL_ASSEMBLY_PART')
);
#597=(
GEOMETRIC_REPRESENTATION_CONTEXT(3)
GLOBAL_UNCERTAINTY_ASSIGNED_CONTEXT((#601))
GLOBAL_UNIT_ASSIGNED_CONTEXT((#606,#605,#604))
REPRESENTATION_CONTEXT('SKF_6009_ball1','COMPONENT_PART')
);
#598=(
GEOMETRIC_REPRESENTATION_CONTEXT(3)
GLOBAL_UNCERTAINTY_ASSIGNED_CONTEXT((#602))
GLOBAL_UNIT_ASSIGNED_CONTEXT((#606,#605,#604))
REPRESENTATION_CONTEXT('SKF_6009_or','COMPONENT_PART')
);
#599=(
GEOMETRIC_REPRESENTATION_CONTEXT(3)
GLOBAL_UNCERTAINTY_ASSIGNED_CONTEXT((#603))
GLOBAL_UNIT_ASSIGNED_CONTEXT((#606,#605,#604))
REPRESENTATION_CONTEXT('SKF_6009_ir','COMPONENT_PART')
);
#600=UNCERTAINTY_MEASURE_WITH_UNIT(LENGTH_MEASURE(0.005),#606,
'DISTANCE_ACCURACY_VALUE','Maximum Tolerance applied to model');
#601=UNCERTAINTY_MEASURE_WITH_UNIT(LENGTH_MEASURE(0.005),#606,
'DISTANCE_ACCURACY_VALUE','Maximum Tolerance applied to model');
#602=UNCERTAINTY_MEASURE_WITH_UNIT(LENGTH_MEASURE(0.005),#606,
'DISTANCE_ACCURACY_VALUE','Maximum Tolerance applied to model');
#603=UNCERTAINTY_MEASURE_WITH_UNIT(LENGTH_MEASURE(0.005),#606,
'DISTANCE_ACCURACY_VALUE','Maximum Tolerance applied to model');
#604=(
NAMED_UNIT(*)
SI_UNIT($,.STERADIAN.)
SOLID_ANGLE_UNIT()
);
#605=(
NAMED_UNIT(*)
PLANE_ANGLE_UNIT()
SI_UNIT($,.RADIAN.)
);
#606=(
LENGTH_UNIT()
NAMED_UNIT(*)
SI_UNIT(.MILLI.,.METRE.)
);
#607=PRODUCT_DEFINITION_SHAPE('','',#626);
#608=PRODUCT_DEFINITION_SHAPE('','',#627);
#609=PRODUCT_DEFINITION_SHAPE(' ','NAUO PRDDFN',#174);
#610=PRODUCT_DEFINITION_SHAPE(' ','NAUO PRDDFN',#175);
#611=PRODUCT_DEFINITION_SHAPE(' ','NAUO PRDDFN',#176);
#612=PRODUCT_DEFINITION_SHAPE(' ','NAUO PRDDFN',#177);
#613=PRODUCT_DEFINITION_SHAPE(' ','NAUO PRDDFN',#178);
#614=PRODUCT_DEFINITION_SHAPE(' ','NAUO PRDDFN',#179);
#615=PRODUCT_DEFINITION_SHAPE(' ','NAUO PRDDFN',#180);
#616=PRODUCT_DEFINITION_SHAPE(' ','NAUO PRDDFN',#181);
#617=PRODUCT_DEFINITION_SHAPE(' ','NAUO PRDDFN',#182);
#618=PRODUCT_DEFINITION_SHAPE(' ','NAUO PRDDFN',#183);
#619=PRODUCT_DEFINITION_SHAPE(' ','NAUO PRDDFN',#184);
#620=PRODUCT_DEFINITION_SHAPE(' ','NAUO PRDDFN',#185);
#621=PRODUCT_DEFINITION_SHAPE(' ','NAUO PRDDFN',#186);
#622=PRODUCT_DEFINITION_SHAPE('','',#628);
#623=PRODUCT_DEFINITION_SHAPE(' ','NAUO PRDDFN',#187);
#624=PRODUCT_DEFINITION_SHAPE('','',#629);
#625=PRODUCT_DEFINITION_SHAPE(' ','NAUO PRDDFN',#188);
#626=PRODUCT_DEFINITION('','',#634,#630);
#627=PRODUCT_DEFINITION('','',#635,#631);
#628=PRODUCT_DEFINITION('','',#636,#632);
#629=PRODUCT_DEFINITION('','',#637,#633);
#630=DESIGN_CONTEXT('',#655,'design');
#631=DESIGN_CONTEXT('',#655,'design');
#632=DESIGN_CONTEXT('',#655,'design');
#633=DESIGN_CONTEXT('',#655,'design');
#634=PRODUCT_DEFINITION_FORMATION_WITH_SPECIFIED_SOURCE('','',#642,
 .NOT_KNOWN.);
#635=PRODUCT_DEFINITION_FORMATION_WITH_SPECIFIED_SOURCE('','',#643,
 .NOT_KNOWN.);
#636=PRODUCT_DEFINITION_FORMATION_WITH_SPECIFIED_SOURCE('','',#644,
 .NOT_KNOWN.);
#637=PRODUCT_DEFINITION_FORMATION_WITH_SPECIFIED_SOURCE('','',#645,
 .NOT_KNOWN.);
#638=PRODUCT_RELATED_PRODUCT_CATEGORY('','',(#642));
#639=PRODUCT_RELATED_PRODUCT_CATEGORY('','',(#643));
#640=PRODUCT_RELATED_PRODUCT_CATEGORY('','',(#644));
#641=PRODUCT_RELATED_PRODUCT_CATEGORY('','',(#645));
#642=PRODUCT('SKF_6009','SKF_6009','SKF_6009',(#650));
#643=PRODUCT('SKF_6009_ball1','SKF_6009_ball1','SKF_6009_ball1',(#651));
#644=PRODUCT('SKF_6009_or','SKF_6009_or','SKF_6009_or',(#652));
#645=PRODUCT('SKF_6009_ir','SKF_6009_ir','SKF_6009_ir',(#653));
#646=PRODUCT_CATEGORY('','');
#647=PRODUCT_CATEGORY('','');
#648=PRODUCT_CATEGORY('','');
#649=PRODUCT_CATEGORY('','');
#650=MECHANICAL_CONTEXT('',#655,'mechanical');
#651=MECHANICAL_CONTEXT('',#655,'mechanical');
#652=MECHANICAL_CONTEXT('',#655,'mechanical');
#653=MECHANICAL_CONTEXT('',#655,'mechanical');
#654=APPLICATION_PROTOCOL_DEFINITION('international standard',
'config_control_design',2010,#655);
#655=APPLICATION_CONTEXT(
'configuration controlled 3D designs of mechanical parts and assemblie
s');
ENDSEC;
END-ISO-10303-21;
