ISO-10303-21;
HEADER;
/* Generated by software containing ST-Developer
 * from STEP Tools, Inc. (www.steptools.com) 
 */
/* OPTION: using custom renumber hook */

FILE_DESCRIPTION(
/* description */ ('STEP AP203'),
/* implementation_level */ '2;1');

FILE_NAME(
/* name */ 'SKF_6001',
/* time_stamp */ '2023-07-14T10:11:53+02:00',
/* author */ ('License CC BY-ND 4.0'),
/* organization */ ('CADENAS'),
/* preprocessor_version */ 'ST-DEVELOPER v19.3',
/* originating_system */ 'PARTsolutions',
/* authorisation */ '  ');

FILE_SCHEMA (('CONFIG_CONTROL_DESIGN'));
ENDSEC;

DATA;
#10=PROPERTY_DEFINITION_REPRESENTATION(#14,#12);
#11=PROPERTY_DEFINITION_REPRESENTATION(#15,#13);
#12=REPRESENTATION('',(#16),#556);
#13=REPRESENTATION('',(#17),#556);
#14=PROPERTY_DEFINITION('pmi validation property','',#567);
#15=PROPERTY_DEFINITION('pmi validation property','',#567);
#16=VALUE_REPRESENTATION_ITEM('number of annotations',COUNT_MEASURE(0.));
#17=VALUE_REPRESENTATION_ITEM('number of views',COUNT_MEASURE(0.));
#18=CYLINDRICAL_SURFACE('',#343,11.6);
#19=CYLINDRICAL_SURFACE('',#347,11.6);
#20=CYLINDRICAL_SURFACE('',#355,14.);
#21=CYLINDRICAL_SURFACE('',#362,6.);
#22=CYLINDRICAL_SURFACE('',#370,8.5);
#23=CYLINDRICAL_SURFACE('',#374,8.5);
#24=PLANE('',#339);
#25=PLANE('',#351);
#26=PLANE('',#357);
#27=PLANE('',#366);
#28=ORIENTED_EDGE('',*,*,#68,.T.);
#29=ORIENTED_EDGE('',*,*,#69,.F.);
#30=ORIENTED_EDGE('',*,*,#70,.T.);
#31=ORIENTED_EDGE('',*,*,#68,.F.);
#32=ORIENTED_EDGE('',*,*,#71,.T.);
#33=ORIENTED_EDGE('',*,*,#70,.F.);
#34=ORIENTED_EDGE('',*,*,#72,.T.);
#35=ORIENTED_EDGE('',*,*,#71,.F.);
#36=ORIENTED_EDGE('',*,*,#72,.F.);
#37=ORIENTED_EDGE('',*,*,#73,.T.);
#38=ORIENTED_EDGE('',*,*,#74,.T.);
#39=ORIENTED_EDGE('',*,*,#73,.F.);
#40=ORIENTED_EDGE('',*,*,#75,.T.);
#41=ORIENTED_EDGE('',*,*,#74,.F.);
#42=ORIENTED_EDGE('',*,*,#76,.T.);
#43=ORIENTED_EDGE('',*,*,#75,.F.);
#44=ORIENTED_EDGE('',*,*,#77,.T.);
#45=ORIENTED_EDGE('',*,*,#76,.F.);
#46=ORIENTED_EDGE('',*,*,#69,.T.);
#47=ORIENTED_EDGE('',*,*,#77,.F.);
#48=ORIENTED_EDGE('',*,*,#78,.T.);
#49=ORIENTED_EDGE('',*,*,#79,.F.);
#50=ORIENTED_EDGE('',*,*,#80,.T.);
#51=ORIENTED_EDGE('',*,*,#78,.F.);
#52=ORIENTED_EDGE('',*,*,#81,.T.);
#53=ORIENTED_EDGE('',*,*,#80,.F.);
#54=ORIENTED_EDGE('',*,*,#82,.T.);
#55=ORIENTED_EDGE('',*,*,#81,.F.);
#56=ORIENTED_EDGE('',*,*,#83,.T.);
#57=ORIENTED_EDGE('',*,*,#82,.F.);
#58=ORIENTED_EDGE('',*,*,#84,.T.);
#59=ORIENTED_EDGE('',*,*,#83,.F.);
#60=ORIENTED_EDGE('',*,*,#85,.T.);
#61=ORIENTED_EDGE('',*,*,#84,.F.);
#62=ORIENTED_EDGE('',*,*,#85,.F.);
#63=ORIENTED_EDGE('',*,*,#86,.T.);
#64=ORIENTED_EDGE('',*,*,#87,.T.);
#65=ORIENTED_EDGE('',*,*,#86,.F.);
#66=ORIENTED_EDGE('',*,*,#79,.T.);
#67=ORIENTED_EDGE('',*,*,#87,.F.);
#68=EDGE_CURVE('',#206,#206,#88,.T.);
#69=EDGE_CURVE('',#207,#207,#89,.T.);
#70=EDGE_CURVE('',#208,#208,#90,.T.);
#71=EDGE_CURVE('',#209,#209,#91,.T.);
#72=EDGE_CURVE('',#210,#210,#92,.T.);
#73=EDGE_CURVE('',#211,#211,#93,.T.);
#74=EDGE_CURVE('',#212,#212,#94,.T.);
#75=EDGE_CURVE('',#213,#213,#95,.T.);
#76=EDGE_CURVE('',#214,#214,#96,.T.);
#77=EDGE_CURVE('',#215,#215,#97,.T.);
#78=EDGE_CURVE('',#216,#216,#98,.T.);
#79=EDGE_CURVE('',#217,#217,#99,.T.);
#80=EDGE_CURVE('',#218,#218,#100,.T.);
#81=EDGE_CURVE('',#219,#219,#101,.T.);
#82=EDGE_CURVE('',#220,#220,#102,.T.);
#83=EDGE_CURVE('',#221,#221,#103,.T.);
#84=EDGE_CURVE('',#222,#222,#104,.T.);
#85=EDGE_CURVE('',#223,#223,#105,.T.);
#86=EDGE_CURVE('',#224,#224,#106,.T.);
#87=EDGE_CURVE('',#225,#225,#107,.T.);
#88=CIRCLE('',#337,13.7);
#89=CIRCLE('',#338,14.);
#90=CIRCLE('',#340,11.7);
#91=CIRCLE('',#342,11.6);
#92=CIRCLE('',#344,11.6);
#93=CIRCLE('',#346,11.6);
#94=CIRCLE('',#348,11.6);
#95=CIRCLE('',#350,11.7);
#96=CIRCLE('',#352,13.7);
#97=CIRCLE('',#354,14.);
#98=CIRCLE('',#358,6.3);
#99=CIRCLE('',#359,8.4);
#100=CIRCLE('',#361,6.);
#101=CIRCLE('',#363,6.);
#102=CIRCLE('',#365,6.3);
#103=CIRCLE('',#367,8.4);
#104=CIRCLE('',#369,8.5);
#105=CIRCLE('',#371,8.5);
#106=CIRCLE('',#373,8.5);
#107=CIRCLE('',#375,8.5);
#108=EDGE_LOOP('',(#28));
#109=EDGE_LOOP('',(#29));
#110=EDGE_LOOP('',(#30));
#111=EDGE_LOOP('',(#31));
#112=EDGE_LOOP('',(#32));
#113=EDGE_LOOP('',(#33));
#114=EDGE_LOOP('',(#34));
#115=EDGE_LOOP('',(#35));
#116=EDGE_LOOP('',(#36));
#117=EDGE_LOOP('',(#37));
#118=EDGE_LOOP('',(#38));
#119=EDGE_LOOP('',(#39));
#120=EDGE_LOOP('',(#40));
#121=EDGE_LOOP('',(#41));
#122=EDGE_LOOP('',(#42));
#123=EDGE_LOOP('',(#43));
#124=EDGE_LOOP('',(#44));
#125=EDGE_LOOP('',(#45));
#126=EDGE_LOOP('',(#46));
#127=EDGE_LOOP('',(#47));
#128=EDGE_LOOP('',(#48));
#129=EDGE_LOOP('',(#49));
#130=EDGE_LOOP('',(#50));
#131=EDGE_LOOP('',(#51));
#132=EDGE_LOOP('',(#52));
#133=EDGE_LOOP('',(#53));
#134=EDGE_LOOP('',(#54));
#135=EDGE_LOOP('',(#55));
#136=EDGE_LOOP('',(#56));
#137=EDGE_LOOP('',(#57));
#138=EDGE_LOOP('',(#58));
#139=EDGE_LOOP('',(#59));
#140=EDGE_LOOP('',(#60));
#141=EDGE_LOOP('',(#61));
#142=EDGE_LOOP('',(#62));
#143=EDGE_LOOP('',(#63));
#144=EDGE_LOOP('',(#64));
#145=EDGE_LOOP('',(#65));
#146=EDGE_LOOP('',(#66));
#147=EDGE_LOOP('',(#67));
#148=TOROIDAL_SURFACE('',#336,13.7,0.300000000000002);
#149=TOROIDAL_SURFACE('',#341,11.7,0.100000000000001);
#150=TOROIDAL_SURFACE('',#345,10.,2.381);
#151=TOROIDAL_SURFACE('',#349,11.7,0.100000000000005);
#152=TOROIDAL_SURFACE('',#353,13.7,0.300000000000002);
#153=TOROIDAL_SURFACE('',#360,6.3,0.300000000000002);
#154=TOROIDAL_SURFACE('',#364,6.30000000000001,0.300000000000005);
#155=TOROIDAL_SURFACE('',#368,8.4,0.100000000000001);
#156=TOROIDAL_SURFACE('',#372,10.,2.381);
#157=TOROIDAL_SURFACE('',#376,8.4,0.100000000000003);
#158=COLOUR_RGB('',0.689999997615814,0.689999997615814,0.689999997615814);
#159=CONTEXT_DEPENDENT_SHAPE_REPRESENTATION(#179,#569);
#160=CONTEXT_DEPENDENT_SHAPE_REPRESENTATION(#180,#570);
#161=CONTEXT_DEPENDENT_SHAPE_REPRESENTATION(#181,#571);
#162=CONTEXT_DEPENDENT_SHAPE_REPRESENTATION(#182,#572);
#163=CONTEXT_DEPENDENT_SHAPE_REPRESENTATION(#183,#573);
#164=CONTEXT_DEPENDENT_SHAPE_REPRESENTATION(#184,#574);
#165=CONTEXT_DEPENDENT_SHAPE_REPRESENTATION(#185,#575);
#166=CONTEXT_DEPENDENT_SHAPE_REPRESENTATION(#186,#576);
#167=CONTEXT_DEPENDENT_SHAPE_REPRESENTATION(#187,#578);
#168=CONTEXT_DEPENDENT_SHAPE_REPRESENTATION(#188,#580);
#169=NEXT_ASSEMBLY_USAGE_OCCURRENCE('NAUO1','SKF_6001_ball1',
'SKF_6001_ball1',#581,#582,'');
#170=NEXT_ASSEMBLY_USAGE_OCCURRENCE('NAUO2','SKF_6001_ball1',
'SKF_6001_ball1',#581,#582,'');
#171=NEXT_ASSEMBLY_USAGE_OCCURRENCE('NAUO3','SKF_6001_ball1',
'SKF_6001_ball1',#581,#582,'');
#172=NEXT_ASSEMBLY_USAGE_OCCURRENCE('NAUO4','SKF_6001_ball1',
'SKF_6001_ball1',#581,#582,'');
#173=NEXT_ASSEMBLY_USAGE_OCCURRENCE('NAUO5','SKF_6001_ball1',
'SKF_6001_ball1',#581,#582,'');
#174=NEXT_ASSEMBLY_USAGE_OCCURRENCE('NAUO6','SKF_6001_ball1',
'SKF_6001_ball1',#581,#582,'');
#175=NEXT_ASSEMBLY_USAGE_OCCURRENCE('NAUO7','SKF_6001_ball1',
'SKF_6001_ball1',#581,#582,'');
#176=NEXT_ASSEMBLY_USAGE_OCCURRENCE('NAUO8','SKF_6001_ball1',
'SKF_6001_ball1',#581,#582,'');
#177=NEXT_ASSEMBLY_USAGE_OCCURRENCE('NAUO9','SKF_6001_or','SKF_6001_or',
#581,#583,'');
#178=NEXT_ASSEMBLY_USAGE_OCCURRENCE('NAUO10','SKF_6001_ir',
'SKF_6001_ir',#581,#584,'');
#179=(
REPRESENTATION_RELATIONSHIP(' ',' ',#323,#322)
REPRESENTATION_RELATIONSHIP_WITH_TRANSFORMATION(#189)
SHAPE_REPRESENTATION_RELATIONSHIP()
);
#180=(
REPRESENTATION_RELATIONSHIP(' ',' ',#323,#322)
REPRESENTATION_RELATIONSHIP_WITH_TRANSFORMATION(#190)
SHAPE_REPRESENTATION_RELATIONSHIP()
);
#181=(
REPRESENTATION_RELATIONSHIP(' ',' ',#323,#322)
REPRESENTATION_RELATIONSHIP_WITH_TRANSFORMATION(#191)
SHAPE_REPRESENTATION_RELATIONSHIP()
);
#182=(
REPRESENTATION_RELATIONSHIP(' ',' ',#323,#322)
REPRESENTATION_RELATIONSHIP_WITH_TRANSFORMATION(#192)
SHAPE_REPRESENTATION_RELATIONSHIP()
);
#183=(
REPRESENTATION_RELATIONSHIP(' ',' ',#323,#322)
REPRESENTATION_RELATIONSHIP_WITH_TRANSFORMATION(#193)
SHAPE_REPRESENTATION_RELATIONSHIP()
);
#184=(
REPRESENTATION_RELATIONSHIP(' ',' ',#323,#322)
REPRESENTATION_RELATIONSHIP_WITH_TRANSFORMATION(#194)
SHAPE_REPRESENTATION_RELATIONSHIP()
);
#185=(
REPRESENTATION_RELATIONSHIP(' ',' ',#323,#322)
REPRESENTATION_RELATIONSHIP_WITH_TRANSFORMATION(#195)
SHAPE_REPRESENTATION_RELATIONSHIP()
);
#186=(
REPRESENTATION_RELATIONSHIP(' ',' ',#323,#322)
REPRESENTATION_RELATIONSHIP_WITH_TRANSFORMATION(#196)
SHAPE_REPRESENTATION_RELATIONSHIP()
);
#187=(
REPRESENTATION_RELATIONSHIP(' ',' ',#324,#322)
REPRESENTATION_RELATIONSHIP_WITH_TRANSFORMATION(#197)
SHAPE_REPRESENTATION_RELATIONSHIP()
);
#188=(
REPRESENTATION_RELATIONSHIP(' ',' ',#325,#322)
REPRESENTATION_RELATIONSHIP_WITH_TRANSFORMATION(#198)
SHAPE_REPRESENTATION_RELATIONSHIP()
);
#189=ITEM_DEFINED_TRANSFORMATION(' ',' ',#326,#328);
#190=ITEM_DEFINED_TRANSFORMATION(' ',' ',#326,#329);
#191=ITEM_DEFINED_TRANSFORMATION(' ',' ',#326,#330);
#192=ITEM_DEFINED_TRANSFORMATION(' ',' ',#326,#331);
#193=ITEM_DEFINED_TRANSFORMATION(' ',' ',#326,#332);
#194=ITEM_DEFINED_TRANSFORMATION(' ',' ',#326,#333);
#195=ITEM_DEFINED_TRANSFORMATION(' ',' ',#326,#334);
#196=ITEM_DEFINED_TRANSFORMATION(' ',' ',#326,#335);
#197=ITEM_DEFINED_TRANSFORMATION(' ',' ',#326,#356);
#198=ITEM_DEFINED_TRANSFORMATION(' ',' ',#326,#377);
#199=SHAPE_REPRESENTATION_RELATIONSHIP('','',#323,#202);
#200=SHAPE_REPRESENTATION_RELATIONSHIP('','',#324,#203);
#201=SHAPE_REPRESENTATION_RELATIONSHIP('','',#325,#204);
#202=ADVANCED_BREP_SHAPE_REPRESENTATION('',(#315),#557);
#203=ADVANCED_BREP_SHAPE_REPRESENTATION('',(#316),#558);
#204=ADVANCED_BREP_SHAPE_REPRESENTATION('',(#317),#559);
#205=VERTEX_POINT('',#484);
#206=VERTEX_POINT('',#495);
#207=VERTEX_POINT('',#497);
#208=VERTEX_POINT('',#500);
#209=VERTEX_POINT('',#503);
#210=VERTEX_POINT('',#506);
#211=VERTEX_POINT('',#509);
#212=VERTEX_POINT('',#512);
#213=VERTEX_POINT('',#515);
#214=VERTEX_POINT('',#518);
#215=VERTEX_POINT('',#521);
#216=VERTEX_POINT('',#526);
#217=VERTEX_POINT('',#528);
#218=VERTEX_POINT('',#531);
#219=VERTEX_POINT('',#534);
#220=VERTEX_POINT('',#537);
#221=VERTEX_POINT('',#540);
#222=VERTEX_POINT('',#543);
#223=VERTEX_POINT('',#546);
#224=VERTEX_POINT('',#549);
#225=VERTEX_POINT('',#552);
#226=VERTEX_LOOP('',#205);
#227=FACE_BOUND('',#226,.T.);
#228=FACE_BOUND('',#108,.T.);
#229=FACE_BOUND('',#109,.T.);
#230=FACE_BOUND('',#110,.T.);
#231=FACE_BOUND('',#111,.T.);
#232=FACE_BOUND('',#112,.T.);
#233=FACE_BOUND('',#113,.T.);
#234=FACE_BOUND('',#114,.T.);
#235=FACE_BOUND('',#115,.T.);
#236=FACE_BOUND('',#116,.T.);
#237=FACE_BOUND('',#117,.T.);
#238=FACE_BOUND('',#118,.T.);
#239=FACE_BOUND('',#119,.T.);
#240=FACE_BOUND('',#120,.T.);
#241=FACE_BOUND('',#121,.T.);
#242=FACE_BOUND('',#122,.T.);
#243=FACE_BOUND('',#123,.T.);
#244=FACE_BOUND('',#124,.T.);
#245=FACE_BOUND('',#125,.T.);
#246=FACE_BOUND('',#126,.T.);
#247=FACE_BOUND('',#127,.T.);
#248=FACE_BOUND('',#128,.T.);
#249=FACE_BOUND('',#129,.T.);
#250=FACE_BOUND('',#130,.T.);
#251=FACE_BOUND('',#131,.T.);
#252=FACE_BOUND('',#132,.T.);
#253=FACE_BOUND('',#133,.T.);
#254=FACE_BOUND('',#134,.T.);
#255=FACE_BOUND('',#135,.T.);
#256=FACE_BOUND('',#136,.T.);
#257=FACE_BOUND('',#137,.T.);
#258=FACE_BOUND('',#138,.T.);
#259=FACE_BOUND('',#139,.T.);
#260=FACE_BOUND('',#140,.T.);
#261=FACE_BOUND('',#141,.T.);
#262=FACE_BOUND('',#142,.T.);
#263=FACE_BOUND('',#143,.T.);
#264=FACE_BOUND('',#144,.T.);
#265=FACE_BOUND('',#145,.T.);
#266=FACE_BOUND('',#146,.T.);
#267=FACE_BOUND('',#147,.T.);
#268=SPHERICAL_SURFACE('',#327,2.381);
#269=ADVANCED_FACE('',(#227),#268,.T.);
#270=ADVANCED_FACE('',(#228,#229),#148,.T.);
#271=ADVANCED_FACE('',(#230,#231),#24,.T.);
#272=ADVANCED_FACE('',(#232,#233),#149,.T.);
#273=ADVANCED_FACE('',(#234,#235),#18,.F.);
#274=ADVANCED_FACE('',(#236,#237),#150,.F.);
#275=ADVANCED_FACE('',(#238,#239),#19,.F.);
#276=ADVANCED_FACE('',(#240,#241),#151,.T.);
#277=ADVANCED_FACE('',(#242,#243),#25,.T.);
#278=ADVANCED_FACE('',(#244,#245),#152,.T.);
#279=ADVANCED_FACE('',(#246,#247),#20,.T.);
#280=ADVANCED_FACE('',(#248,#249),#26,.T.);
#281=ADVANCED_FACE('',(#250,#251),#153,.T.);
#282=ADVANCED_FACE('',(#252,#253),#21,.F.);
#283=ADVANCED_FACE('',(#254,#255),#154,.T.);
#284=ADVANCED_FACE('',(#256,#257),#27,.T.);
#285=ADVANCED_FACE('',(#258,#259),#155,.T.);
#286=ADVANCED_FACE('',(#260,#261),#22,.T.);
#287=ADVANCED_FACE('',(#262,#263),#156,.F.);
#288=ADVANCED_FACE('',(#264,#265),#23,.T.);
#289=ADVANCED_FACE('',(#266,#267),#157,.T.);
#290=CLOSED_SHELL('',(#269));
#291=CLOSED_SHELL('',(#270,#271,#272,#273,#274,#275,#276,#277,#278,#279));
#292=CLOSED_SHELL('',(#280,#281,#282,#283,#284,#285,#286,#287,#288,#289));
#293=STYLED_ITEM('',(#296),#315);
#294=STYLED_ITEM('',(#297),#316);
#295=STYLED_ITEM('',(#298),#317);
#296=PRESENTATION_STYLE_ASSIGNMENT((#299));
#297=PRESENTATION_STYLE_ASSIGNMENT((#300));
#298=PRESENTATION_STYLE_ASSIGNMENT((#301));
#299=SURFACE_STYLE_USAGE(.BOTH.,#302);
#300=SURFACE_STYLE_USAGE(.BOTH.,#303);
#301=SURFACE_STYLE_USAGE(.BOTH.,#304);
#302=SURFACE_SIDE_STYLE('',(#305));
#303=SURFACE_SIDE_STYLE('',(#306));
#304=SURFACE_SIDE_STYLE('',(#307));
#305=SURFACE_STYLE_FILL_AREA(#308);
#306=SURFACE_STYLE_FILL_AREA(#309);
#307=SURFACE_STYLE_FILL_AREA(#310);
#308=FILL_AREA_STYLE('',(#311));
#309=FILL_AREA_STYLE('',(#312));
#310=FILL_AREA_STYLE('',(#313));
#311=FILL_AREA_STYLE_COLOUR('',#314);
#312=FILL_AREA_STYLE_COLOUR('',#158);
#313=FILL_AREA_STYLE_COLOUR('',#158);
#314=DRAUGHTING_PRE_DEFINED_COLOUR('yellow');
#315=MANIFOLD_SOLID_BREP('SKF_6001_ball1',#290);
#316=MANIFOLD_SOLID_BREP('SKF_6001_or',#291);
#317=MANIFOLD_SOLID_BREP('SKF_6001_ir',#292);
#318=SHAPE_DEFINITION_REPRESENTATION(#567,#322);
#319=SHAPE_DEFINITION_REPRESENTATION(#568,#323);
#320=SHAPE_DEFINITION_REPRESENTATION(#577,#324);
#321=SHAPE_DEFINITION_REPRESENTATION(#579,#325);
#322=SHAPE_REPRESENTATION('SKF_6001',(#326,#328,#329,#330,#331,#332,#333,
#334,#335,#356,#377),#556);
#323=SHAPE_REPRESENTATION('SKF_6001_ball1',(#326),#557);
#324=SHAPE_REPRESENTATION('SKF_6001_or',(#326),#558);
#325=SHAPE_REPRESENTATION('SKF_6001_ir',(#326),#559);
#326=AXIS2_PLACEMENT_3D('',#482,#378,#379);
#327=AXIS2_PLACEMENT_3D('',#483,#380,#381);
#328=AXIS2_PLACEMENT_3D('',#485,#382,#383);
#329=AXIS2_PLACEMENT_3D('',#486,#384,#385);
#330=AXIS2_PLACEMENT_3D('',#487,#386,#387);
#331=AXIS2_PLACEMENT_3D('',#488,#388,#389);
#332=AXIS2_PLACEMENT_3D('',#489,#390,#391);
#333=AXIS2_PLACEMENT_3D('',#490,#392,#393);
#334=AXIS2_PLACEMENT_3D('',#491,#394,#395);
#335=AXIS2_PLACEMENT_3D('',#492,#396,#397);
#336=AXIS2_PLACEMENT_3D('',#493,#398,#399);
#337=AXIS2_PLACEMENT_3D('',#494,#400,#401);
#338=AXIS2_PLACEMENT_3D('',#496,#402,#403);
#339=AXIS2_PLACEMENT_3D('',#498,#404,#405);
#340=AXIS2_PLACEMENT_3D('',#499,#406,#407);
#341=AXIS2_PLACEMENT_3D('',#501,#408,#409);
#342=AXIS2_PLACEMENT_3D('',#502,#410,#411);
#343=AXIS2_PLACEMENT_3D('',#504,#412,#413);
#344=AXIS2_PLACEMENT_3D('',#505,#414,#415);
#345=AXIS2_PLACEMENT_3D('',#507,#416,#417);
#346=AXIS2_PLACEMENT_3D('',#508,#418,#419);
#347=AXIS2_PLACEMENT_3D('',#510,#420,#421);
#348=AXIS2_PLACEMENT_3D('',#511,#422,#423);
#349=AXIS2_PLACEMENT_3D('',#513,#424,#425);
#350=AXIS2_PLACEMENT_3D('',#514,#426,#427);
#351=AXIS2_PLACEMENT_3D('',#516,#428,#429);
#352=AXIS2_PLACEMENT_3D('',#517,#430,#431);
#353=AXIS2_PLACEMENT_3D('',#519,#432,#433);
#354=AXIS2_PLACEMENT_3D('',#520,#434,#435);
#355=AXIS2_PLACEMENT_3D('',#522,#436,#437);
#356=AXIS2_PLACEMENT_3D('',#523,#438,#439);
#357=AXIS2_PLACEMENT_3D('',#524,#440,#441);
#358=AXIS2_PLACEMENT_3D('',#525,#442,#443);
#359=AXIS2_PLACEMENT_3D('',#527,#444,#445);
#360=AXIS2_PLACEMENT_3D('',#529,#446,#447);
#361=AXIS2_PLACEMENT_3D('',#530,#448,#449);
#362=AXIS2_PLACEMENT_3D('',#532,#450,#451);
#363=AXIS2_PLACEMENT_3D('',#533,#452,#453);
#364=AXIS2_PLACEMENT_3D('',#535,#454,#455);
#365=AXIS2_PLACEMENT_3D('',#536,#456,#457);
#366=AXIS2_PLACEMENT_3D('',#538,#458,#459);
#367=AXIS2_PLACEMENT_3D('',#539,#460,#461);
#368=AXIS2_PLACEMENT_3D('',#541,#462,#463);
#369=AXIS2_PLACEMENT_3D('',#542,#464,#465);
#370=AXIS2_PLACEMENT_3D('',#544,#466,#467);
#371=AXIS2_PLACEMENT_3D('',#545,#468,#469);
#372=AXIS2_PLACEMENT_3D('',#547,#470,#471);
#373=AXIS2_PLACEMENT_3D('',#548,#472,#473);
#374=AXIS2_PLACEMENT_3D('',#550,#474,#475);
#375=AXIS2_PLACEMENT_3D('',#551,#476,#477);
#376=AXIS2_PLACEMENT_3D('',#553,#478,#479);
#377=AXIS2_PLACEMENT_3D('',#554,#480,#481);
#378=DIRECTION('',(0.,0.,1.));
#379=DIRECTION('',(1.,0.,0.));
#380=DIRECTION('',(1.,0.,0.));
#381=DIRECTION('',(0.,1.,0.));
#382=DIRECTION('',(0.,0.,1.));
#383=DIRECTION('',(-1.,0.,0.));
#384=DIRECTION('',(0.,0.,1.));
#385=DIRECTION('',(-1.,0.,0.));
#386=DIRECTION('',(0.,0.,1.));
#387=DIRECTION('',(-1.,0.,0.));
#388=DIRECTION('',(0.,0.,1.));
#389=DIRECTION('',(-1.,0.,0.));
#390=DIRECTION('',(0.,0.,1.));
#391=DIRECTION('',(-1.,0.,0.));
#392=DIRECTION('',(0.,0.,1.));
#393=DIRECTION('',(-1.,0.,0.));
#394=DIRECTION('',(0.,0.,1.));
#395=DIRECTION('',(-1.,0.,0.));
#396=DIRECTION('',(0.,0.,1.));
#397=DIRECTION('',(-1.,0.,0.));
#398=DIRECTION('',(1.,0.,0.));
#399=DIRECTION('',(0.,0.,-1.));
#400=DIRECTION('',(1.,0.,0.));
#401=DIRECTION('',(0.,0.,-1.));
#402=DIRECTION('',(1.,0.,0.));
#403=DIRECTION('',(0.,0.,-1.));
#404=DIRECTION('',(-1.,0.,0.));
#405=DIRECTION('',(0.,0.,1.));
#406=DIRECTION('',(1.,0.,0.));
#407=DIRECTION('',(0.,0.,-1.));
#408=DIRECTION('',(1.,0.,0.));
#409=DIRECTION('',(0.,0.,-1.));
#410=DIRECTION('',(1.,0.,0.));
#411=DIRECTION('',(0.,0.,-1.));
#412=DIRECTION('',(1.,0.,0.));
#413=DIRECTION('',(0.,0.,-1.));
#414=DIRECTION('',(1.,0.,0.));
#415=DIRECTION('',(0.,0.,-1.));
#416=DIRECTION('',(1.,0.,0.));
#417=DIRECTION('',(0.,0.,-1.));
#418=DIRECTION('',(1.,0.,0.));
#419=DIRECTION('',(0.,0.,-1.));
#420=DIRECTION('',(1.,0.,0.));
#421=DIRECTION('',(0.,0.,-1.));
#422=DIRECTION('',(1.,0.,0.));
#423=DIRECTION('',(0.,0.,-1.));
#424=DIRECTION('',(1.,0.,0.));
#425=DIRECTION('',(0.,0.,-1.));
#426=DIRECTION('',(1.,0.,0.));
#427=DIRECTION('',(0.,0.,-1.));
#428=DIRECTION('',(1.,0.,0.));
#429=DIRECTION('',(0.,0.,-1.));
#430=DIRECTION('',(1.,0.,0.));
#431=DIRECTION('',(0.,0.,-1.));
#432=DIRECTION('',(1.,0.,0.));
#433=DIRECTION('',(0.,0.,-1.));
#434=DIRECTION('',(1.,0.,0.));
#435=DIRECTION('',(0.,0.,-1.));
#436=DIRECTION('',(1.,0.,0.));
#437=DIRECTION('',(0.,0.,-1.));
#438=DIRECTION('',(0.,0.,-1.));
#439=DIRECTION('',(1.,0.,0.));
#440=DIRECTION('',(-1.,0.,0.));
#441=DIRECTION('',(0.,0.,1.));
#442=DIRECTION('',(1.,0.,0.));
#443=DIRECTION('',(0.,0.,-1.));
#444=DIRECTION('',(1.,0.,0.));
#445=DIRECTION('',(0.,0.,-1.));
#446=DIRECTION('',(1.,0.,0.));
#447=DIRECTION('',(0.,0.,-1.));
#448=DIRECTION('',(1.,0.,0.));
#449=DIRECTION('',(0.,0.,-1.));
#450=DIRECTION('',(1.,0.,0.));
#451=DIRECTION('',(0.,0.,-1.));
#452=DIRECTION('',(1.,0.,0.));
#453=DIRECTION('',(0.,0.,-1.));
#454=DIRECTION('',(1.,0.,0.));
#455=DIRECTION('',(0.,0.,-1.));
#456=DIRECTION('',(1.,0.,0.));
#457=DIRECTION('',(0.,0.,-1.));
#458=DIRECTION('',(1.,0.,0.));
#459=DIRECTION('',(0.,0.,-1.));
#460=DIRECTION('',(1.,0.,0.));
#461=DIRECTION('',(0.,0.,-1.));
#462=DIRECTION('',(1.,0.,0.));
#463=DIRECTION('',(0.,0.,-1.));
#464=DIRECTION('',(1.,0.,0.));
#465=DIRECTION('',(0.,0.,-1.));
#466=DIRECTION('',(1.,0.,0.));
#467=DIRECTION('',(0.,0.,-1.));
#468=DIRECTION('',(1.,0.,0.));
#469=DIRECTION('',(0.,0.,-1.));
#470=DIRECTION('',(1.,0.,0.));
#471=DIRECTION('',(0.,0.,-1.));
#472=DIRECTION('',(1.,0.,0.));
#473=DIRECTION('',(0.,0.,-1.));
#474=DIRECTION('',(1.,0.,0.));
#475=DIRECTION('',(0.,0.,-1.));
#476=DIRECTION('',(1.,0.,0.));
#477=DIRECTION('',(0.,0.,-1.));
#478=DIRECTION('',(1.,0.,0.));
#479=DIRECTION('',(0.,0.,-1.));
#480=DIRECTION('',(0.,0.,-1.));
#481=DIRECTION('',(1.,0.,0.));
#482=CARTESIAN_POINT('',(0.,0.,0.));
#483=CARTESIAN_POINT('',(4.,10.,0.));
#484=CARTESIAN_POINT('',(1.619,10.,0.));
#485=CARTESIAN_POINT('',(8.,17.0710678118655,-7.07106781186548));
#486=CARTESIAN_POINT('',(8.,10.,-10.));
#487=CARTESIAN_POINT('',(8.,2.92893218813452,-7.07106781186548));
#488=CARTESIAN_POINT('',(8.,-3.5527136788005E-15,0.));
#489=CARTESIAN_POINT('',(8.,2.92893218813452,7.07106781186548));
#490=CARTESIAN_POINT('',(8.,10.,10.));
#491=CARTESIAN_POINT('',(8.,17.0710678118655,7.07106781186548));
#492=CARTESIAN_POINT('',(8.,20.,0.));
#493=CARTESIAN_POINT('',(0.300000000000001,0.,0.));
#494=CARTESIAN_POINT('',(0.,0.,0.));
#495=CARTESIAN_POINT('',(0.,0.,-13.7));
#496=CARTESIAN_POINT('',(0.300000000000002,0.,0.));
#497=CARTESIAN_POINT('',(0.300000000000002,0.,-14.));
#498=CARTESIAN_POINT('',(0.,13.7,0.));
#499=CARTESIAN_POINT('',(0.,0.,0.));
#500=CARTESIAN_POINT('',(0.,0.,-11.7));
#501=CARTESIAN_POINT('',(0.100000000000001,0.,0.));
#502=CARTESIAN_POINT('',(0.100000000000003,0.,0.));
#503=CARTESIAN_POINT('',(0.100000000000003,0.,-11.6));
#504=CARTESIAN_POINT('',(50.,0.,0.));
#505=CARTESIAN_POINT('',(2.23671868381702,0.,0.));
#506=CARTESIAN_POINT('',(2.23671868381702,0.,-11.6));
#507=CARTESIAN_POINT('',(4.,0.,0.));
#508=CARTESIAN_POINT('',(5.76328131618298,0.,0.));
#509=CARTESIAN_POINT('',(5.76328131618298,0.,-11.6));
#510=CARTESIAN_POINT('',(50.,0.,0.));
#511=CARTESIAN_POINT('',(7.9,0.,0.));
#512=CARTESIAN_POINT('',(7.9,0.,-11.6));
#513=CARTESIAN_POINT('',(7.9,0.,0.));
#514=CARTESIAN_POINT('',(8.,0.,0.));
#515=CARTESIAN_POINT('',(8.,0.,-11.7));
#516=CARTESIAN_POINT('',(8.,11.7,0.));
#517=CARTESIAN_POINT('',(8.,0.,0.));
#518=CARTESIAN_POINT('',(8.,0.,-13.7));
#519=CARTESIAN_POINT('',(7.7,0.,0.));
#520=CARTESIAN_POINT('',(7.7,0.,0.));
#521=CARTESIAN_POINT('',(7.7,0.,-14.));
#522=CARTESIAN_POINT('',(50.,0.,0.));
#523=CARTESIAN_POINT('',(0.,0.,0.));
#524=CARTESIAN_POINT('',(2.84603070277445E-16,8.4,0.));
#525=CARTESIAN_POINT('',(0.,0.,0.));
#526=CARTESIAN_POINT('',(0.,0.,-6.3));
#527=CARTESIAN_POINT('',(0.,0.,0.));
#528=CARTESIAN_POINT('',(0.,0.,-8.4));
#529=CARTESIAN_POINT('',(0.300000000000002,0.,0.));
#530=CARTESIAN_POINT('',(0.299999999999995,0.,0.));
#531=CARTESIAN_POINT('',(0.299999999999995,0.,-6.));
#532=CARTESIAN_POINT('',(100.,0.,0.));
#533=CARTESIAN_POINT('',(7.7,0.,0.));
#534=CARTESIAN_POINT('',(7.7,0.,-6.));
#535=CARTESIAN_POINT('',(7.7,0.,0.));
#536=CARTESIAN_POINT('',(8.00000000000001,0.,0.));
#537=CARTESIAN_POINT('',(8.00000000000001,0.,-6.3));
#538=CARTESIAN_POINT('',(8.,6.3,0.));
#539=CARTESIAN_POINT('',(8.00000000000001,0.,0.));
#540=CARTESIAN_POINT('',(8.00000000000001,0.,-8.4));
#541=CARTESIAN_POINT('',(7.9,0.,0.));
#542=CARTESIAN_POINT('',(7.9,0.,0.));
#543=CARTESIAN_POINT('',(7.9,0.,-8.5));
#544=CARTESIAN_POINT('',(100.,0.,0.));
#545=CARTESIAN_POINT('',(5.84909734735627,0.,0.));
#546=CARTESIAN_POINT('',(5.84909734735627,0.,-8.5));
#547=CARTESIAN_POINT('',(4.,0.,0.));
#548=CARTESIAN_POINT('',(2.15090265264373,0.,0.));
#549=CARTESIAN_POINT('',(2.15090265264373,0.,-8.5));
#550=CARTESIAN_POINT('',(100.,0.,0.));
#551=CARTESIAN_POINT('',(0.100000000000003,0.,0.));
#552=CARTESIAN_POINT('',(0.100000000000003,0.,-8.5));
#553=CARTESIAN_POINT('',(0.100000000000003,0.,0.));
#554=CARTESIAN_POINT('',(0.,0.,0.));
#555=MECHANICAL_DESIGN_GEOMETRIC_PRESENTATION_REPRESENTATION('',(#293,#294,
#295),#556);
#556=(
GEOMETRIC_REPRESENTATION_CONTEXT(3)
GLOBAL_UNCERTAINTY_ASSIGNED_CONTEXT((#560))
GLOBAL_UNIT_ASSIGNED_CONTEXT((#566,#565,#564))
REPRESENTATION_CONTEXT('SKF_6001','TOP_LEVEL_ASSEMBLY_PART')
);
#557=(
GEOMETRIC_REPRESENTATION_CONTEXT(3)
GLOBAL_UNCERTAINTY_ASSIGNED_CONTEXT((#561))
GLOBAL_UNIT_ASSIGNED_CONTEXT((#566,#565,#564))
REPRESENTATION_CONTEXT('SKF_6001_ball1','COMPONENT_PART')
);
#558=(
GEOMETRIC_REPRESENTATION_CONTEXT(3)
GLOBAL_UNCERTAINTY_ASSIGNED_CONTEXT((#562))
GLOBAL_UNIT_ASSIGNED_CONTEXT((#566,#565,#564))
REPRESENTATION_CONTEXT('SKF_6001_or','COMPONENT_PART')
);
#559=(
GEOMETRIC_REPRESENTATION_CONTEXT(3)
GLOBAL_UNCERTAINTY_ASSIGNED_CONTEXT((#563))
GLOBAL_UNIT_ASSIGNED_CONTEXT((#566,#565,#564))
REPRESENTATION_CONTEXT('SKF_6001_ir','COMPONENT_PART')
);
#560=UNCERTAINTY_MEASURE_WITH_UNIT(LENGTH_MEASURE(0.005),#566,
'DISTANCE_ACCURACY_VALUE','Maximum Tolerance applied to model');
#561=UNCERTAINTY_MEASURE_WITH_UNIT(LENGTH_MEASURE(0.005),#566,
'DISTANCE_ACCURACY_VALUE','Maximum Tolerance applied to model');
#562=UNCERTAINTY_MEASURE_WITH_UNIT(LENGTH_MEASURE(0.005),#566,
'DISTANCE_ACCURACY_VALUE','Maximum Tolerance applied to model');
#563=UNCERTAINTY_MEASURE_WITH_UNIT(LENGTH_MEASURE(0.005),#566,
'DISTANCE_ACCURACY_VALUE','Maximum Tolerance applied to model');
#564=(
NAMED_UNIT(*)
SI_UNIT($,.STERADIAN.)
SOLID_ANGLE_UNIT()
);
#565=(
NAMED_UNIT(*)
PLANE_ANGLE_UNIT()
SI_UNIT($,.RADIAN.)
);
#566=(
LENGTH_UNIT()
NAMED_UNIT(*)
SI_UNIT(.MILLI.,.METRE.)
);
#567=PRODUCT_DEFINITION_SHAPE('','',#581);
#568=PRODUCT_DEFINITION_SHAPE('','',#582);
#569=PRODUCT_DEFINITION_SHAPE(' ','NAUO PRDDFN',#169);
#570=PRODUCT_DEFINITION_SHAPE(' ','NAUO PRDDFN',#170);
#571=PRODUCT_DEFINITION_SHAPE(' ','NAUO PRDDFN',#171);
#572=PRODUCT_DEFINITION_SHAPE(' ','NAUO PRDDFN',#172);
#573=PRODUCT_DEFINITION_SHAPE(' ','NAUO PRDDFN',#173);
#574=PRODUCT_DEFINITION_SHAPE(' ','NAUO PRDDFN',#174);
#575=PRODUCT_DEFINITION_SHAPE(' ','NAUO PRDDFN',#175);
#576=PRODUCT_DEFINITION_SHAPE(' ','NAUO PRDDFN',#176);
#577=PRODUCT_DEFINITION_SHAPE('','',#583);
#578=PRODUCT_DEFINITION_SHAPE(' ','NAUO PRDDFN',#177);
#579=PRODUCT_DEFINITION_SHAPE('','',#584);
#580=PRODUCT_DEFINITION_SHAPE(' ','NAUO PRDDFN',#178);
#581=PRODUCT_DEFINITION('','',#589,#585);
#582=PRODUCT_DEFINITION('','',#590,#586);
#583=PRODUCT_DEFINITION('','',#591,#587);
#584=PRODUCT_DEFINITION('','',#592,#588);
#585=DESIGN_CONTEXT('',#610,'design');
#586=DESIGN_CONTEXT('',#610,'design');
#587=DESIGN_CONTEXT('',#610,'design');
#588=DESIGN_CONTEXT('',#610,'design');
#589=PRODUCT_DEFINITION_FORMATION_WITH_SPECIFIED_SOURCE('','',#597,
 .NOT_KNOWN.);
#590=PRODUCT_DEFINITION_FORMATION_WITH_SPECIFIED_SOURCE('','',#598,
 .NOT_KNOWN.);
#591=PRODUCT_DEFINITION_FORMATION_WITH_SPECIFIED_SOURCE('','',#599,
 .NOT_KNOWN.);
#592=PRODUCT_DEFINITION_FORMATION_WITH_SPECIFIED_SOURCE('','',#600,
 .NOT_KNOWN.);
#593=PRODUCT_RELATED_PRODUCT_CATEGORY('','',(#597));
#594=PRODUCT_RELATED_PRODUCT_CATEGORY('','',(#598));
#595=PRODUCT_RELATED_PRODUCT_CATEGORY('','',(#599));
#596=PRODUCT_RELATED_PRODUCT_CATEGORY('','',(#600));
#597=PRODUCT('SKF_6001','SKF_6001','SKF_6001',(#605));
#598=PRODUCT('SKF_6001_ball1','SKF_6001_ball1','SKF_6001_ball1',(#606));
#599=PRODUCT('SKF_6001_or','SKF_6001_or','SKF_6001_or',(#607));
#600=PRODUCT('SKF_6001_ir','SKF_6001_ir','SKF_6001_ir',(#608));
#601=PRODUCT_CATEGORY('','');
#602=PRODUCT_CATEGORY('','');
#603=PRODUCT_CATEGORY('','');
#604=PRODUCT_CATEGORY('','');
#605=MECHANICAL_CONTEXT('',#610,'mechanical');
#606=MECHANICAL_CONTEXT('',#610,'mechanical');
#607=MECHANICAL_CONTEXT('',#610,'mechanical');
#608=MECHANICAL_CONTEXT('',#610,'mechanical');
#609=APPLICATION_PROTOCOL_DEFINITION('international standard',
'config_control_design',2010,#610);
#610=APPLICATION_CONTEXT(
'configuration controlled 3D designs of mechanical parts and assemblie
s');
ENDSEC;
END-ISO-10303-21;
