ISO-10303-21;
HEADER;
/* Generated by software containing ST-Developer
 * from STEP Tools, Inc. (www.steptools.com) 
 */
/* OPTION: using custom renumber hook */

FILE_DESCRIPTION(
/* description */ ('STEP AP203'),
/* implementation_level */ '2;1');

FILE_NAME(
/* name */ 'SKF_6007',
/* time_stamp */ '2023-07-14T12:47:47+02:00',
/* author */ ('License CC BY-ND 4.0'),
/* organization */ ('CADENAS'),
/* preprocessor_version */ 'ST-DEVELOPER v19.3',
/* originating_system */ 'PARTsolutions',
/* authorisation */ '  ');

FILE_SCHEMA (('CONFIG_CONTROL_DESIGN'));
ENDSEC;

DATA;
#10=PROPERTY_DEFINITION_REPRESENTATION(#14,#12);
#11=PROPERTY_DEFINITION_REPRESENTATION(#15,#13);
#12=REPRESENTATION('',(#16),#580);
#13=REPRESENTATION('',(#17),#580);
#14=PROPERTY_DEFINITION('pmi validation property','',#591);
#15=PROPERTY_DEFINITION('pmi validation property','',#591);
#16=VALUE_REPRESENTATION_ITEM('number of annotations',COUNT_MEASURE(0.));
#17=VALUE_REPRESENTATION_ITEM('number of views',COUNT_MEASURE(0.));
#18=CYLINDRICAL_SURFACE('',#358,26.625);
#19=CYLINDRICAL_SURFACE('',#362,26.625);
#20=CYLINDRICAL_SURFACE('',#370,31.);
#21=CYLINDRICAL_SURFACE('',#377,17.5);
#22=CYLINDRICAL_SURFACE('',#385,21.875);
#23=CYLINDRICAL_SURFACE('',#389,21.875);
#24=PLANE('',#354);
#25=PLANE('',#366);
#26=PLANE('',#372);
#27=PLANE('',#381);
#28=ORIENTED_EDGE('',*,*,#68,.T.);
#29=ORIENTED_EDGE('',*,*,#69,.F.);
#30=ORIENTED_EDGE('',*,*,#70,.T.);
#31=ORIENTED_EDGE('',*,*,#68,.F.);
#32=ORIENTED_EDGE('',*,*,#71,.T.);
#33=ORIENTED_EDGE('',*,*,#70,.F.);
#34=ORIENTED_EDGE('',*,*,#72,.T.);
#35=ORIENTED_EDGE('',*,*,#71,.F.);
#36=ORIENTED_EDGE('',*,*,#72,.F.);
#37=ORIENTED_EDGE('',*,*,#73,.T.);
#38=ORIENTED_EDGE('',*,*,#74,.T.);
#39=ORIENTED_EDGE('',*,*,#73,.F.);
#40=ORIENTED_EDGE('',*,*,#75,.T.);
#41=ORIENTED_EDGE('',*,*,#74,.F.);
#42=ORIENTED_EDGE('',*,*,#76,.T.);
#43=ORIENTED_EDGE('',*,*,#75,.F.);
#44=ORIENTED_EDGE('',*,*,#77,.T.);
#45=ORIENTED_EDGE('',*,*,#76,.F.);
#46=ORIENTED_EDGE('',*,*,#69,.T.);
#47=ORIENTED_EDGE('',*,*,#77,.F.);
#48=ORIENTED_EDGE('',*,*,#78,.T.);
#49=ORIENTED_EDGE('',*,*,#79,.F.);
#50=ORIENTED_EDGE('',*,*,#80,.T.);
#51=ORIENTED_EDGE('',*,*,#78,.F.);
#52=ORIENTED_EDGE('',*,*,#81,.T.);
#53=ORIENTED_EDGE('',*,*,#80,.F.);
#54=ORIENTED_EDGE('',*,*,#82,.T.);
#55=ORIENTED_EDGE('',*,*,#81,.F.);
#56=ORIENTED_EDGE('',*,*,#83,.T.);
#57=ORIENTED_EDGE('',*,*,#82,.F.);
#58=ORIENTED_EDGE('',*,*,#84,.T.);
#59=ORIENTED_EDGE('',*,*,#83,.F.);
#60=ORIENTED_EDGE('',*,*,#85,.T.);
#61=ORIENTED_EDGE('',*,*,#84,.F.);
#62=ORIENTED_EDGE('',*,*,#85,.F.);
#63=ORIENTED_EDGE('',*,*,#86,.T.);
#64=ORIENTED_EDGE('',*,*,#87,.T.);
#65=ORIENTED_EDGE('',*,*,#86,.F.);
#66=ORIENTED_EDGE('',*,*,#79,.T.);
#67=ORIENTED_EDGE('',*,*,#87,.F.);
#68=EDGE_CURVE('',#218,#218,#88,.T.);
#69=EDGE_CURVE('',#219,#219,#89,.T.);
#70=EDGE_CURVE('',#220,#220,#90,.T.);
#71=EDGE_CURVE('',#221,#221,#91,.T.);
#72=EDGE_CURVE('',#222,#222,#92,.T.);
#73=EDGE_CURVE('',#223,#223,#93,.T.);
#74=EDGE_CURVE('',#224,#224,#94,.T.);
#75=EDGE_CURVE('',#225,#225,#95,.T.);
#76=EDGE_CURVE('',#226,#226,#96,.T.);
#77=EDGE_CURVE('',#227,#227,#97,.T.);
#78=EDGE_CURVE('',#228,#228,#98,.T.);
#79=EDGE_CURVE('',#229,#229,#99,.T.);
#80=EDGE_CURVE('',#230,#230,#100,.T.);
#81=EDGE_CURVE('',#231,#231,#101,.T.);
#82=EDGE_CURVE('',#232,#232,#102,.T.);
#83=EDGE_CURVE('',#233,#233,#103,.T.);
#84=EDGE_CURVE('',#234,#234,#104,.T.);
#85=EDGE_CURVE('',#235,#235,#105,.T.);
#86=EDGE_CURVE('',#236,#236,#106,.T.);
#87=EDGE_CURVE('',#237,#237,#107,.T.);
#88=CIRCLE('',#352,30.);
#89=CIRCLE('',#353,31.);
#90=CIRCLE('',#355,26.9583333333333);
#91=CIRCLE('',#357,26.625);
#92=CIRCLE('',#359,26.625);
#93=CIRCLE('',#361,26.625);
#94=CIRCLE('',#363,26.625);
#95=CIRCLE('',#365,26.9583333333333);
#96=CIRCLE('',#367,30.);
#97=CIRCLE('',#369,31.);
#98=CIRCLE('',#373,18.5);
#99=CIRCLE('',#374,21.5416666666667);
#100=CIRCLE('',#376,17.5);
#101=CIRCLE('',#378,17.5);
#102=CIRCLE('',#380,18.5);
#103=CIRCLE('',#382,21.5416666666667);
#104=CIRCLE('',#384,21.875);
#105=CIRCLE('',#386,21.875);
#106=CIRCLE('',#388,21.875);
#107=CIRCLE('',#390,21.875);
#108=EDGE_LOOP('',(#28));
#109=EDGE_LOOP('',(#29));
#110=EDGE_LOOP('',(#30));
#111=EDGE_LOOP('',(#31));
#112=EDGE_LOOP('',(#32));
#113=EDGE_LOOP('',(#33));
#114=EDGE_LOOP('',(#34));
#115=EDGE_LOOP('',(#35));
#116=EDGE_LOOP('',(#36));
#117=EDGE_LOOP('',(#37));
#118=EDGE_LOOP('',(#38));
#119=EDGE_LOOP('',(#39));
#120=EDGE_LOOP('',(#40));
#121=EDGE_LOOP('',(#41));
#122=EDGE_LOOP('',(#42));
#123=EDGE_LOOP('',(#43));
#124=EDGE_LOOP('',(#44));
#125=EDGE_LOOP('',(#45));
#126=EDGE_LOOP('',(#46));
#127=EDGE_LOOP('',(#47));
#128=EDGE_LOOP('',(#48));
#129=EDGE_LOOP('',(#49));
#130=EDGE_LOOP('',(#50));
#131=EDGE_LOOP('',(#51));
#132=EDGE_LOOP('',(#52));
#133=EDGE_LOOP('',(#53));
#134=EDGE_LOOP('',(#54));
#135=EDGE_LOOP('',(#55));
#136=EDGE_LOOP('',(#56));
#137=EDGE_LOOP('',(#57));
#138=EDGE_LOOP('',(#58));
#139=EDGE_LOOP('',(#59));
#140=EDGE_LOOP('',(#60));
#141=EDGE_LOOP('',(#61));
#142=EDGE_LOOP('',(#62));
#143=EDGE_LOOP('',(#63));
#144=EDGE_LOOP('',(#64));
#145=EDGE_LOOP('',(#65));
#146=EDGE_LOOP('',(#66));
#147=EDGE_LOOP('',(#67));
#148=TOROIDAL_SURFACE('',#351,30.,1.);
#149=TOROIDAL_SURFACE('',#356,26.9583333333333,0.333333333333332);
#150=TOROIDAL_SURFACE('',#360,24.25,3.96899999999999);
#151=TOROIDAL_SURFACE('',#364,26.9583333333333,0.333333333333335);
#152=TOROIDAL_SURFACE('',#368,30.,1.);
#153=TOROIDAL_SURFACE('',#375,18.5,0.999999999999998);
#154=TOROIDAL_SURFACE('',#379,18.5,1.);
#155=TOROIDAL_SURFACE('',#383,21.5416666666667,0.333333333333331);
#156=TOROIDAL_SURFACE('',#387,24.25,3.96899999999999);
#157=TOROIDAL_SURFACE('',#391,21.5416666666667,0.333333333333331);
#158=COLOUR_RGB('',0.689999997615814,0.689999997615814,0.689999997615814);
#159=CONTEXT_DEPENDENT_SHAPE_REPRESENTATION(#185,#593);
#160=CONTEXT_DEPENDENT_SHAPE_REPRESENTATION(#186,#594);
#161=CONTEXT_DEPENDENT_SHAPE_REPRESENTATION(#187,#595);
#162=CONTEXT_DEPENDENT_SHAPE_REPRESENTATION(#188,#596);
#163=CONTEXT_DEPENDENT_SHAPE_REPRESENTATION(#189,#597);
#164=CONTEXT_DEPENDENT_SHAPE_REPRESENTATION(#190,#598);
#165=CONTEXT_DEPENDENT_SHAPE_REPRESENTATION(#191,#599);
#166=CONTEXT_DEPENDENT_SHAPE_REPRESENTATION(#192,#600);
#167=CONTEXT_DEPENDENT_SHAPE_REPRESENTATION(#193,#601);
#168=CONTEXT_DEPENDENT_SHAPE_REPRESENTATION(#194,#602);
#169=CONTEXT_DEPENDENT_SHAPE_REPRESENTATION(#195,#603);
#170=CONTEXT_DEPENDENT_SHAPE_REPRESENTATION(#196,#605);
#171=CONTEXT_DEPENDENT_SHAPE_REPRESENTATION(#197,#607);
#172=NEXT_ASSEMBLY_USAGE_OCCURRENCE('NAUO1','SKF_6007_ball1',
'SKF_6007_ball1',#608,#609,'');
#173=NEXT_ASSEMBLY_USAGE_OCCURRENCE('NAUO2','SKF_6007_ball1',
'SKF_6007_ball1',#608,#609,'');
#174=NEXT_ASSEMBLY_USAGE_OCCURRENCE('NAUO3','SKF_6007_ball1',
'SKF_6007_ball1',#608,#609,'');
#175=NEXT_ASSEMBLY_USAGE_OCCURRENCE('NAUO4','SKF_6007_ball1',
'SKF_6007_ball1',#608,#609,'');
#176=NEXT_ASSEMBLY_USAGE_OCCURRENCE('NAUO5','SKF_6007_ball1',
'SKF_6007_ball1',#608,#609,'');
#177=NEXT_ASSEMBLY_USAGE_OCCURRENCE('NAUO6','SKF_6007_ball1',
'SKF_6007_ball1',#608,#609,'');
#178=NEXT_ASSEMBLY_USAGE_OCCURRENCE('NAUO7','SKF_6007_ball1',
'SKF_6007_ball1',#608,#609,'');
#179=NEXT_ASSEMBLY_USAGE_OCCURRENCE('NAUO8','SKF_6007_ball1',
'SKF_6007_ball1',#608,#609,'');
#180=NEXT_ASSEMBLY_USAGE_OCCURRENCE('NAUO9','SKF_6007_ball1',
'SKF_6007_ball1',#608,#609,'');
#181=NEXT_ASSEMBLY_USAGE_OCCURRENCE('NAUO10','SKF_6007_ball1',
'SKF_6007_ball1',#608,#609,'');
#182=NEXT_ASSEMBLY_USAGE_OCCURRENCE('NAUO11','SKF_6007_ball1',
'SKF_6007_ball1',#608,#609,'');
#183=NEXT_ASSEMBLY_USAGE_OCCURRENCE('NAUO12','SKF_6007_or',
'SKF_6007_or',#608,#610,'');
#184=NEXT_ASSEMBLY_USAGE_OCCURRENCE('NAUO13','SKF_6007_ir',
'SKF_6007_ir',#608,#611,'');
#185=(
REPRESENTATION_RELATIONSHIP(' ',' ',#335,#334)
REPRESENTATION_RELATIONSHIP_WITH_TRANSFORMATION(#198)
SHAPE_REPRESENTATION_RELATIONSHIP()
);
#186=(
REPRESENTATION_RELATIONSHIP(' ',' ',#335,#334)
REPRESENTATION_RELATIONSHIP_WITH_TRANSFORMATION(#199)
SHAPE_REPRESENTATION_RELATIONSHIP()
);
#187=(
REPRESENTATION_RELATIONSHIP(' ',' ',#335,#334)
REPRESENTATION_RELATIONSHIP_WITH_TRANSFORMATION(#200)
SHAPE_REPRESENTATION_RELATIONSHIP()
);
#188=(
REPRESENTATION_RELATIONSHIP(' ',' ',#335,#334)
REPRESENTATION_RELATIONSHIP_WITH_TRANSFORMATION(#201)
SHAPE_REPRESENTATION_RELATIONSHIP()
);
#189=(
REPRESENTATION_RELATIONSHIP(' ',' ',#335,#334)
REPRESENTATION_RELATIONSHIP_WITH_TRANSFORMATION(#202)
SHAPE_REPRESENTATION_RELATIONSHIP()
);
#190=(
REPRESENTATION_RELATIONSHIP(' ',' ',#335,#334)
REPRESENTATION_RELATIONSHIP_WITH_TRANSFORMATION(#203)
SHAPE_REPRESENTATION_RELATIONSHIP()
);
#191=(
REPRESENTATION_RELATIONSHIP(' ',' ',#335,#334)
REPRESENTATION_RELATIONSHIP_WITH_TRANSFORMATION(#204)
SHAPE_REPRESENTATION_RELATIONSHIP()
);
#192=(
REPRESENTATION_RELATIONSHIP(' ',' ',#335,#334)
REPRESENTATION_RELATIONSHIP_WITH_TRANSFORMATION(#205)
SHAPE_REPRESENTATION_RELATIONSHIP()
);
#193=(
REPRESENTATION_RELATIONSHIP(' ',' ',#335,#334)
REPRESENTATION_RELATIONSHIP_WITH_TRANSFORMATION(#206)
SHAPE_REPRESENTATION_RELATIONSHIP()
);
#194=(
REPRESENTATION_RELATIONSHIP(' ',' ',#335,#334)
REPRESENTATION_RELATIONSHIP_WITH_TRANSFORMATION(#207)
SHAPE_REPRESENTATION_RELATIONSHIP()
);
#195=(
REPRESENTATION_RELATIONSHIP(' ',' ',#335,#334)
REPRESENTATION_RELATIONSHIP_WITH_TRANSFORMATION(#208)
SHAPE_REPRESENTATION_RELATIONSHIP()
);
#196=(
REPRESENTATION_RELATIONSHIP(' ',' ',#336,#334)
REPRESENTATION_RELATIONSHIP_WITH_TRANSFORMATION(#209)
SHAPE_REPRESENTATION_RELATIONSHIP()
);
#197=(
REPRESENTATION_RELATIONSHIP(' ',' ',#337,#334)
REPRESENTATION_RELATIONSHIP_WITH_TRANSFORMATION(#210)
SHAPE_REPRESENTATION_RELATIONSHIP()
);
#198=ITEM_DEFINED_TRANSFORMATION(' ',' ',#338,#340);
#199=ITEM_DEFINED_TRANSFORMATION(' ',' ',#338,#341);
#200=ITEM_DEFINED_TRANSFORMATION(' ',' ',#338,#342);
#201=ITEM_DEFINED_TRANSFORMATION(' ',' ',#338,#343);
#202=ITEM_DEFINED_TRANSFORMATION(' ',' ',#338,#344);
#203=ITEM_DEFINED_TRANSFORMATION(' ',' ',#338,#345);
#204=ITEM_DEFINED_TRANSFORMATION(' ',' ',#338,#346);
#205=ITEM_DEFINED_TRANSFORMATION(' ',' ',#338,#347);
#206=ITEM_DEFINED_TRANSFORMATION(' ',' ',#338,#348);
#207=ITEM_DEFINED_TRANSFORMATION(' ',' ',#338,#349);
#208=ITEM_DEFINED_TRANSFORMATION(' ',' ',#338,#350);
#209=ITEM_DEFINED_TRANSFORMATION(' ',' ',#338,#371);
#210=ITEM_DEFINED_TRANSFORMATION(' ',' ',#338,#392);
#211=SHAPE_REPRESENTATION_RELATIONSHIP('','',#335,#214);
#212=SHAPE_REPRESENTATION_RELATIONSHIP('','',#336,#215);
#213=SHAPE_REPRESENTATION_RELATIONSHIP('','',#337,#216);
#214=ADVANCED_BREP_SHAPE_REPRESENTATION('',(#327),#581);
#215=ADVANCED_BREP_SHAPE_REPRESENTATION('',(#328),#582);
#216=ADVANCED_BREP_SHAPE_REPRESENTATION('',(#329),#583);
#217=VERTEX_POINT('',#505);
#218=VERTEX_POINT('',#519);
#219=VERTEX_POINT('',#521);
#220=VERTEX_POINT('',#524);
#221=VERTEX_POINT('',#527);
#222=VERTEX_POINT('',#530);
#223=VERTEX_POINT('',#533);
#224=VERTEX_POINT('',#536);
#225=VERTEX_POINT('',#539);
#226=VERTEX_POINT('',#542);
#227=VERTEX_POINT('',#545);
#228=VERTEX_POINT('',#550);
#229=VERTEX_POINT('',#552);
#230=VERTEX_POINT('',#555);
#231=VERTEX_POINT('',#558);
#232=VERTEX_POINT('',#561);
#233=VERTEX_POINT('',#564);
#234=VERTEX_POINT('',#567);
#235=VERTEX_POINT('',#570);
#236=VERTEX_POINT('',#573);
#237=VERTEX_POINT('',#576);
#238=VERTEX_LOOP('',#217);
#239=FACE_BOUND('',#238,.T.);
#240=FACE_BOUND('',#108,.T.);
#241=FACE_BOUND('',#109,.T.);
#242=FACE_BOUND('',#110,.T.);
#243=FACE_BOUND('',#111,.T.);
#244=FACE_BOUND('',#112,.T.);
#245=FACE_BOUND('',#113,.T.);
#246=FACE_BOUND('',#114,.T.);
#247=FACE_BOUND('',#115,.T.);
#248=FACE_BOUND('',#116,.T.);
#249=FACE_BOUND('',#117,.T.);
#250=FACE_BOUND('',#118,.T.);
#251=FACE_BOUND('',#119,.T.);
#252=FACE_BOUND('',#120,.T.);
#253=FACE_BOUND('',#121,.T.);
#254=FACE_BOUND('',#122,.T.);
#255=FACE_BOUND('',#123,.T.);
#256=FACE_BOUND('',#124,.T.);
#257=FACE_BOUND('',#125,.T.);
#258=FACE_BOUND('',#126,.T.);
#259=FACE_BOUND('',#127,.T.);
#260=FACE_BOUND('',#128,.T.);
#261=FACE_BOUND('',#129,.T.);
#262=FACE_BOUND('',#130,.T.);
#263=FACE_BOUND('',#131,.T.);
#264=FACE_BOUND('',#132,.T.);
#265=FACE_BOUND('',#133,.T.);
#266=FACE_BOUND('',#134,.T.);
#267=FACE_BOUND('',#135,.T.);
#268=FACE_BOUND('',#136,.T.);
#269=FACE_BOUND('',#137,.T.);
#270=FACE_BOUND('',#138,.T.);
#271=FACE_BOUND('',#139,.T.);
#272=FACE_BOUND('',#140,.T.);
#273=FACE_BOUND('',#141,.T.);
#274=FACE_BOUND('',#142,.T.);
#275=FACE_BOUND('',#143,.T.);
#276=FACE_BOUND('',#144,.T.);
#277=FACE_BOUND('',#145,.T.);
#278=FACE_BOUND('',#146,.T.);
#279=FACE_BOUND('',#147,.T.);
#280=SPHERICAL_SURFACE('',#339,3.969);
#281=ADVANCED_FACE('',(#239),#280,.T.);
#282=ADVANCED_FACE('',(#240,#241),#148,.T.);
#283=ADVANCED_FACE('',(#242,#243),#24,.T.);
#284=ADVANCED_FACE('',(#244,#245),#149,.T.);
#285=ADVANCED_FACE('',(#246,#247),#18,.F.);
#286=ADVANCED_FACE('',(#248,#249),#150,.F.);
#287=ADVANCED_FACE('',(#250,#251),#19,.F.);
#288=ADVANCED_FACE('',(#252,#253),#151,.T.);
#289=ADVANCED_FACE('',(#254,#255),#25,.T.);
#290=ADVANCED_FACE('',(#256,#257),#152,.T.);
#291=ADVANCED_FACE('',(#258,#259),#20,.T.);
#292=ADVANCED_FACE('',(#260,#261),#26,.T.);
#293=ADVANCED_FACE('',(#262,#263),#153,.T.);
#294=ADVANCED_FACE('',(#264,#265),#21,.F.);
#295=ADVANCED_FACE('',(#266,#267),#154,.T.);
#296=ADVANCED_FACE('',(#268,#269),#27,.T.);
#297=ADVANCED_FACE('',(#270,#271),#155,.T.);
#298=ADVANCED_FACE('',(#272,#273),#22,.T.);
#299=ADVANCED_FACE('',(#274,#275),#156,.F.);
#300=ADVANCED_FACE('',(#276,#277),#23,.T.);
#301=ADVANCED_FACE('',(#278,#279),#157,.T.);
#302=CLOSED_SHELL('',(#281));
#303=CLOSED_SHELL('',(#282,#283,#284,#285,#286,#287,#288,#289,#290,#291));
#304=CLOSED_SHELL('',(#292,#293,#294,#295,#296,#297,#298,#299,#300,#301));
#305=STYLED_ITEM('',(#308),#327);
#306=STYLED_ITEM('',(#309),#328);
#307=STYLED_ITEM('',(#310),#329);
#308=PRESENTATION_STYLE_ASSIGNMENT((#311));
#309=PRESENTATION_STYLE_ASSIGNMENT((#312));
#310=PRESENTATION_STYLE_ASSIGNMENT((#313));
#311=SURFACE_STYLE_USAGE(.BOTH.,#314);
#312=SURFACE_STYLE_USAGE(.BOTH.,#315);
#313=SURFACE_STYLE_USAGE(.BOTH.,#316);
#314=SURFACE_SIDE_STYLE('',(#317));
#315=SURFACE_SIDE_STYLE('',(#318));
#316=SURFACE_SIDE_STYLE('',(#319));
#317=SURFACE_STYLE_FILL_AREA(#320);
#318=SURFACE_STYLE_FILL_AREA(#321);
#319=SURFACE_STYLE_FILL_AREA(#322);
#320=FILL_AREA_STYLE('',(#323));
#321=FILL_AREA_STYLE('',(#324));
#322=FILL_AREA_STYLE('',(#325));
#323=FILL_AREA_STYLE_COLOUR('',#326);
#324=FILL_AREA_STYLE_COLOUR('',#158);
#325=FILL_AREA_STYLE_COLOUR('',#158);
#326=DRAUGHTING_PRE_DEFINED_COLOUR('yellow');
#327=MANIFOLD_SOLID_BREP('SKF_6007_ball1',#302);
#328=MANIFOLD_SOLID_BREP('SKF_6007_or',#303);
#329=MANIFOLD_SOLID_BREP('SKF_6007_ir',#304);
#330=SHAPE_DEFINITION_REPRESENTATION(#591,#334);
#331=SHAPE_DEFINITION_REPRESENTATION(#592,#335);
#332=SHAPE_DEFINITION_REPRESENTATION(#604,#336);
#333=SHAPE_DEFINITION_REPRESENTATION(#606,#337);
#334=SHAPE_REPRESENTATION('SKF_6007',(#338,#340,#341,#342,#343,#344,#345,
#346,#347,#348,#349,#350,#371,#392),#580);
#335=SHAPE_REPRESENTATION('SKF_6007_ball1',(#338),#581);
#336=SHAPE_REPRESENTATION('SKF_6007_or',(#338),#582);
#337=SHAPE_REPRESENTATION('SKF_6007_ir',(#338),#583);
#338=AXIS2_PLACEMENT_3D('',#503,#393,#394);
#339=AXIS2_PLACEMENT_3D('',#504,#395,#396);
#340=AXIS2_PLACEMENT_3D('',#506,#397,#398);
#341=AXIS2_PLACEMENT_3D('',#507,#399,#400);
#342=AXIS2_PLACEMENT_3D('',#508,#401,#402);
#343=AXIS2_PLACEMENT_3D('',#509,#403,#404);
#344=AXIS2_PLACEMENT_3D('',#510,#405,#406);
#345=AXIS2_PLACEMENT_3D('',#511,#407,#408);
#346=AXIS2_PLACEMENT_3D('',#512,#409,#410);
#347=AXIS2_PLACEMENT_3D('',#513,#411,#412);
#348=AXIS2_PLACEMENT_3D('',#514,#413,#414);
#349=AXIS2_PLACEMENT_3D('',#515,#415,#416);
#350=AXIS2_PLACEMENT_3D('',#516,#417,#418);
#351=AXIS2_PLACEMENT_3D('',#517,#419,#420);
#352=AXIS2_PLACEMENT_3D('',#518,#421,#422);
#353=AXIS2_PLACEMENT_3D('',#520,#423,#424);
#354=AXIS2_PLACEMENT_3D('',#522,#425,#426);
#355=AXIS2_PLACEMENT_3D('',#523,#427,#428);
#356=AXIS2_PLACEMENT_3D('',#525,#429,#430);
#357=AXIS2_PLACEMENT_3D('',#526,#431,#432);
#358=AXIS2_PLACEMENT_3D('',#528,#433,#434);
#359=AXIS2_PLACEMENT_3D('',#529,#435,#436);
#360=AXIS2_PLACEMENT_3D('',#531,#437,#438);
#361=AXIS2_PLACEMENT_3D('',#532,#439,#440);
#362=AXIS2_PLACEMENT_3D('',#534,#441,#442);
#363=AXIS2_PLACEMENT_3D('',#535,#443,#444);
#364=AXIS2_PLACEMENT_3D('',#537,#445,#446);
#365=AXIS2_PLACEMENT_3D('',#538,#447,#448);
#366=AXIS2_PLACEMENT_3D('',#540,#449,#450);
#367=AXIS2_PLACEMENT_3D('',#541,#451,#452);
#368=AXIS2_PLACEMENT_3D('',#543,#453,#454);
#369=AXIS2_PLACEMENT_3D('',#544,#455,#456);
#370=AXIS2_PLACEMENT_3D('',#546,#457,#458);
#371=AXIS2_PLACEMENT_3D('',#547,#459,#460);
#372=AXIS2_PLACEMENT_3D('',#548,#461,#462);
#373=AXIS2_PLACEMENT_3D('',#549,#463,#464);
#374=AXIS2_PLACEMENT_3D('',#551,#465,#466);
#375=AXIS2_PLACEMENT_3D('',#553,#467,#468);
#376=AXIS2_PLACEMENT_3D('',#554,#469,#470);
#377=AXIS2_PLACEMENT_3D('',#556,#471,#472);
#378=AXIS2_PLACEMENT_3D('',#557,#473,#474);
#379=AXIS2_PLACEMENT_3D('',#559,#475,#476);
#380=AXIS2_PLACEMENT_3D('',#560,#477,#478);
#381=AXIS2_PLACEMENT_3D('',#562,#479,#480);
#382=AXIS2_PLACEMENT_3D('',#563,#481,#482);
#383=AXIS2_PLACEMENT_3D('',#565,#483,#484);
#384=AXIS2_PLACEMENT_3D('',#566,#485,#486);
#385=AXIS2_PLACEMENT_3D('',#568,#487,#488);
#386=AXIS2_PLACEMENT_3D('',#569,#489,#490);
#387=AXIS2_PLACEMENT_3D('',#571,#491,#492);
#388=AXIS2_PLACEMENT_3D('',#572,#493,#494);
#389=AXIS2_PLACEMENT_3D('',#574,#495,#496);
#390=AXIS2_PLACEMENT_3D('',#575,#497,#498);
#391=AXIS2_PLACEMENT_3D('',#577,#499,#500);
#392=AXIS2_PLACEMENT_3D('',#578,#501,#502);
#393=DIRECTION('',(0.,0.,1.));
#394=DIRECTION('',(1.,0.,0.));
#395=DIRECTION('',(1.,0.,0.));
#396=DIRECTION('',(0.,-1.,0.));
#397=DIRECTION('',(0.,0.,1.));
#398=DIRECTION('',(-1.,0.,0.));
#399=DIRECTION('',(0.,0.,1.));
#400=DIRECTION('',(-1.,0.,0.));
#401=DIRECTION('',(0.,0.,1.));
#402=DIRECTION('',(-1.,0.,0.));
#403=DIRECTION('',(0.,0.,1.));
#404=DIRECTION('',(-1.,0.,0.));
#405=DIRECTION('',(0.,0.,1.));
#406=DIRECTION('',(-1.,0.,0.));
#407=DIRECTION('',(0.,0.,1.));
#408=DIRECTION('',(-1.,0.,0.));
#409=DIRECTION('',(0.,0.,1.));
#410=DIRECTION('',(-1.,0.,0.));
#411=DIRECTION('',(0.,0.,1.));
#412=DIRECTION('',(-1.,0.,0.));
#413=DIRECTION('',(0.,0.,1.));
#414=DIRECTION('',(-1.,0.,0.));
#415=DIRECTION('',(0.,0.,1.));
#416=DIRECTION('',(-1.,0.,0.));
#417=DIRECTION('',(0.,0.,1.));
#418=DIRECTION('',(-1.,0.,0.));
#419=DIRECTION('',(1.,0.,0.));
#420=DIRECTION('',(0.,0.,-1.));
#421=DIRECTION('',(1.,0.,0.));
#422=DIRECTION('',(0.,0.,-1.));
#423=DIRECTION('',(1.,0.,0.));
#424=DIRECTION('',(0.,0.,-1.));
#425=DIRECTION('',(-1.,0.,0.));
#426=DIRECTION('',(0.,0.,1.));
#427=DIRECTION('',(1.,0.,0.));
#428=DIRECTION('',(0.,0.,-1.));
#429=DIRECTION('',(1.,0.,0.));
#430=DIRECTION('',(0.,0.,-1.));
#431=DIRECTION('',(1.,0.,0.));
#432=DIRECTION('',(0.,0.,-1.));
#433=DIRECTION('',(1.,0.,0.));
#434=DIRECTION('',(0.,0.,-1.));
#435=DIRECTION('',(1.,0.,0.));
#436=DIRECTION('',(0.,0.,-1.));
#437=DIRECTION('',(1.,0.,0.));
#438=DIRECTION('',(0.,0.,-1.));
#439=DIRECTION('',(1.,0.,0.));
#440=DIRECTION('',(0.,0.,-1.));
#441=DIRECTION('',(1.,0.,0.));
#442=DIRECTION('',(0.,0.,-1.));
#443=DIRECTION('',(1.,0.,0.));
#444=DIRECTION('',(0.,0.,-1.));
#445=DIRECTION('',(1.,0.,0.));
#446=DIRECTION('',(0.,0.,-1.));
#447=DIRECTION('',(1.,0.,0.));
#448=DIRECTION('',(0.,0.,-1.));
#449=DIRECTION('',(1.,0.,0.));
#450=DIRECTION('',(0.,0.,-1.));
#451=DIRECTION('',(1.,0.,0.));
#452=DIRECTION('',(0.,0.,-1.));
#453=DIRECTION('',(1.,0.,0.));
#454=DIRECTION('',(0.,0.,-1.));
#455=DIRECTION('',(1.,0.,0.));
#456=DIRECTION('',(0.,0.,-1.));
#457=DIRECTION('',(1.,0.,0.));
#458=DIRECTION('',(0.,0.,-1.));
#459=DIRECTION('',(0.,0.,-1.));
#460=DIRECTION('',(1.,0.,0.));
#461=DIRECTION('',(-1.,0.,0.));
#462=DIRECTION('',(0.,0.,1.));
#463=DIRECTION('',(1.,0.,0.));
#464=DIRECTION('',(0.,0.,-1.));
#465=DIRECTION('',(1.,0.,0.));
#466=DIRECTION('',(0.,0.,-1.));
#467=DIRECTION('',(1.,0.,0.));
#468=DIRECTION('',(0.,0.,-1.));
#469=DIRECTION('',(1.,0.,0.));
#470=DIRECTION('',(0.,0.,-1.));
#471=DIRECTION('',(1.,0.,0.));
#472=DIRECTION('',(0.,0.,-1.));
#473=DIRECTION('',(1.,0.,0.));
#474=DIRECTION('',(0.,0.,-1.));
#475=DIRECTION('',(1.,0.,0.));
#476=DIRECTION('',(0.,0.,-1.));
#477=DIRECTION('',(1.,0.,0.));
#478=DIRECTION('',(0.,0.,-1.));
#479=DIRECTION('',(1.,0.,0.));
#480=DIRECTION('',(0.,0.,-1.));
#481=DIRECTION('',(1.,0.,0.));
#482=DIRECTION('',(0.,0.,-1.));
#483=DIRECTION('',(1.,0.,0.));
#484=DIRECTION('',(0.,0.,-1.));
#485=DIRECTION('',(1.,0.,0.));
#486=DIRECTION('',(0.,0.,-1.));
#487=DIRECTION('',(1.,0.,0.));
#488=DIRECTION('',(0.,0.,-1.));
#489=DIRECTION('',(1.,0.,0.));
#490=DIRECTION('',(0.,0.,-1.));
#491=DIRECTION('',(1.,0.,0.));
#492=DIRECTION('',(0.,0.,-1.));
#493=DIRECTION('',(1.,0.,0.));
#494=DIRECTION('',(0.,0.,-1.));
#495=DIRECTION('',(1.,0.,0.));
#496=DIRECTION('',(0.,0.,-1.));
#497=DIRECTION('',(1.,0.,0.));
#498=DIRECTION('',(0.,0.,-1.));
#499=DIRECTION('',(1.,0.,0.));
#500=DIRECTION('',(0.,0.,-1.));
#501=DIRECTION('',(0.,0.,-1.));
#502=DIRECTION('',(1.,0.,0.));
#503=CARTESIAN_POINT('',(0.,0.,0.));
#504=CARTESIAN_POINT('',(7.,24.25,0.));
#505=CARTESIAN_POINT('',(3.031,24.25,0.));
#506=CARTESIAN_POINT('',(14.,44.6503981711561,-13.1105398232982));
#507=CARTESIAN_POINT('',(14.,34.3238140652957,-22.0585758873471));
#508=CARTESIAN_POINT('',(14.,20.7988651718728,-24.0031699656126));
#509=CARTESIAN_POINT('',(14.,8.36962720182683,-18.3269271780908));
#510=CARTESIAN_POINT('',(14.,0.982295389848439,-6.83201450340467));
#511=CARTESIAN_POINT('',(14.,0.982295389848439,6.83201450340467));
#512=CARTESIAN_POINT('',(14.,8.36962720182684,18.3269271780908));
#513=CARTESIAN_POINT('',(14.,20.7988651718728,24.0031699656126));
#514=CARTESIAN_POINT('',(14.,34.3238140652957,22.0585758873471));
#515=CARTESIAN_POINT('',(14.,44.6503981711561,13.1105398232982));
#516=CARTESIAN_POINT('',(14.,48.5,0.));
#517=CARTESIAN_POINT('',(0.999999999999999,0.,0.));
#518=CARTESIAN_POINT('',(0.,0.,0.));
#519=CARTESIAN_POINT('',(0.,0.,-30.));
#520=CARTESIAN_POINT('',(1.,0.,0.));
#521=CARTESIAN_POINT('',(1.,0.,-31.));
#522=CARTESIAN_POINT('',(0.,30.,0.));
#523=CARTESIAN_POINT('',(0.,0.,0.));
#524=CARTESIAN_POINT('',(0.,0.,-26.9583333333333));
#525=CARTESIAN_POINT('',(0.333333333333332,0.,0.));
#526=CARTESIAN_POINT('',(0.333333333333331,0.,0.));
#527=CARTESIAN_POINT('',(0.333333333333331,0.,-26.625));
#528=CARTESIAN_POINT('',(50.,0.,0.));
#529=CARTESIAN_POINT('',(3.820010062909,0.,0.));
#530=CARTESIAN_POINT('',(3.820010062909,0.,-26.625));
#531=CARTESIAN_POINT('',(7.,0.,0.));
#532=CARTESIAN_POINT('',(10.179989937091,0.,0.));
#533=CARTESIAN_POINT('',(10.179989937091,0.,-26.625));
#534=CARTESIAN_POINT('',(50.,0.,0.));
#535=CARTESIAN_POINT('',(13.6666666666667,0.,0.));
#536=CARTESIAN_POINT('',(13.6666666666667,0.,-26.625));
#537=CARTESIAN_POINT('',(13.6666666666667,0.,0.));
#538=CARTESIAN_POINT('',(14.,0.,0.));
#539=CARTESIAN_POINT('',(14.,0.,-26.9583333333333));
#540=CARTESIAN_POINT('',(14.,26.9583333333333,0.));
#541=CARTESIAN_POINT('',(14.,0.,0.));
#542=CARTESIAN_POINT('',(14.,0.,-30.));
#543=CARTESIAN_POINT('',(13.,0.,0.));
#544=CARTESIAN_POINT('',(13.,0.,0.));
#545=CARTESIAN_POINT('',(13.,0.,-31.));
#546=CARTESIAN_POINT('',(50.,0.,0.));
#547=CARTESIAN_POINT('',(0.,0.,0.));
#548=CARTESIAN_POINT('',(3.52365706057789E-16,21.5416666666667,0.));
#549=CARTESIAN_POINT('',(0.,0.,0.));
#550=CARTESIAN_POINT('',(0.,0.,-18.5));
#551=CARTESIAN_POINT('',(0.,0.,0.));
#552=CARTESIAN_POINT('',(0.,0.,-21.5416666666667));
#553=CARTESIAN_POINT('',(0.999999999999998,0.,0.));
#554=CARTESIAN_POINT('',(1.,0.,0.));
#555=CARTESIAN_POINT('',(1.,0.,-17.5));
#556=CARTESIAN_POINT('',(100.,0.,0.));
#557=CARTESIAN_POINT('',(13.,0.,0.));
#558=CARTESIAN_POINT('',(13.,0.,-17.5));
#559=CARTESIAN_POINT('',(13.,0.,0.));
#560=CARTESIAN_POINT('',(14.,0.,0.));
#561=CARTESIAN_POINT('',(14.,0.,-18.5));
#562=CARTESIAN_POINT('',(14.,18.5,0.));
#563=CARTESIAN_POINT('',(14.,0.,0.));
#564=CARTESIAN_POINT('',(14.,0.,-21.5416666666667));
#565=CARTESIAN_POINT('',(13.6666666666667,0.,0.));
#566=CARTESIAN_POINT('',(13.6666666666667,0.,0.));
#567=CARTESIAN_POINT('',(13.6666666666667,0.,-21.875));
#568=CARTESIAN_POINT('',(100.,0.,0.));
#569=CARTESIAN_POINT('',(10.179989937091,0.,0.));
#570=CARTESIAN_POINT('',(10.179989937091,0.,-21.875));
#571=CARTESIAN_POINT('',(7.,0.,0.));
#572=CARTESIAN_POINT('',(3.820010062909,0.,0.));
#573=CARTESIAN_POINT('',(3.820010062909,0.,-21.875));
#574=CARTESIAN_POINT('',(100.,0.,0.));
#575=CARTESIAN_POINT('',(0.333333333333338,0.,0.));
#576=CARTESIAN_POINT('',(0.333333333333338,0.,-21.875));
#577=CARTESIAN_POINT('',(0.333333333333332,0.,0.));
#578=CARTESIAN_POINT('',(0.,0.,0.));
#579=MECHANICAL_DESIGN_GEOMETRIC_PRESENTATION_REPRESENTATION('',(#305,#306,
#307),#580);
#580=(
GEOMETRIC_REPRESENTATION_CONTEXT(3)
GLOBAL_UNCERTAINTY_ASSIGNED_CONTEXT((#584))
GLOBAL_UNIT_ASSIGNED_CONTEXT((#590,#589,#588))
REPRESENTATION_CONTEXT('SKF_6007','TOP_LEVEL_ASSEMBLY_PART')
);
#581=(
GEOMETRIC_REPRESENTATION_CONTEXT(3)
GLOBAL_UNCERTAINTY_ASSIGNED_CONTEXT((#585))
GLOBAL_UNIT_ASSIGNED_CONTEXT((#590,#589,#588))
REPRESENTATION_CONTEXT('SKF_6007_ball1','COMPONENT_PART')
);
#582=(
GEOMETRIC_REPRESENTATION_CONTEXT(3)
GLOBAL_UNCERTAINTY_ASSIGNED_CONTEXT((#586))
GLOBAL_UNIT_ASSIGNED_CONTEXT((#590,#589,#588))
REPRESENTATION_CONTEXT('SKF_6007_or','COMPONENT_PART')
);
#583=(
GEOMETRIC_REPRESENTATION_CONTEXT(3)
GLOBAL_UNCERTAINTY_ASSIGNED_CONTEXT((#587))
GLOBAL_UNIT_ASSIGNED_CONTEXT((#590,#589,#588))
REPRESENTATION_CONTEXT('SKF_6007_ir','COMPONENT_PART')
);
#584=UNCERTAINTY_MEASURE_WITH_UNIT(LENGTH_MEASURE(0.005),#590,
'DISTANCE_ACCURACY_VALUE','Maximum Tolerance applied to model');
#585=UNCERTAINTY_MEASURE_WITH_UNIT(LENGTH_MEASURE(0.005),#590,
'DISTANCE_ACCURACY_VALUE','Maximum Tolerance applied to model');
#586=UNCERTAINTY_MEASURE_WITH_UNIT(LENGTH_MEASURE(0.005),#590,
'DISTANCE_ACCURACY_VALUE','Maximum Tolerance applied to model');
#587=UNCERTAINTY_MEASURE_WITH_UNIT(LENGTH_MEASURE(0.005),#590,
'DISTANCE_ACCURACY_VALUE','Maximum Tolerance applied to model');
#588=(
NAMED_UNIT(*)
SI_UNIT($,.STERADIAN.)
SOLID_ANGLE_UNIT()
);
#589=(
NAMED_UNIT(*)
PLANE_ANGLE_UNIT()
SI_UNIT($,.RADIAN.)
);
#590=(
LENGTH_UNIT()
NAMED_UNIT(*)
SI_UNIT(.MILLI.,.METRE.)
);
#591=PRODUCT_DEFINITION_SHAPE('','',#608);
#592=PRODUCT_DEFINITION_SHAPE('','',#609);
#593=PRODUCT_DEFINITION_SHAPE(' ','NAUO PRDDFN',#172);
#594=PRODUCT_DEFINITION_SHAPE(' ','NAUO PRDDFN',#173);
#595=PRODUCT_DEFINITION_SHAPE(' ','NAUO PRDDFN',#174);
#596=PRODUCT_DEFINITION_SHAPE(' ','NAUO PRDDFN',#175);
#597=PRODUCT_DEFINITION_SHAPE(' ','NAUO PRDDFN',#176);
#598=PRODUCT_DEFINITION_SHAPE(' ','NAUO PRDDFN',#177);
#599=PRODUCT_DEFINITION_SHAPE(' ','NAUO PRDDFN',#178);
#600=PRODUCT_DEFINITION_SHAPE(' ','NAUO PRDDFN',#179);
#601=PRODUCT_DEFINITION_SHAPE(' ','NAUO PRDDFN',#180);
#602=PRODUCT_DEFINITION_SHAPE(' ','NAUO PRDDFN',#181);
#603=PRODUCT_DEFINITION_SHAPE(' ','NAUO PRDDFN',#182);
#604=PRODUCT_DEFINITION_SHAPE('','',#610);
#605=PRODUCT_DEFINITION_SHAPE(' ','NAUO PRDDFN',#183);
#606=PRODUCT_DEFINITION_SHAPE('','',#611);
#607=PRODUCT_DEFINITION_SHAPE(' ','NAUO PRDDFN',#184);
#608=PRODUCT_DEFINITION('','',#616,#612);
#609=PRODUCT_DEFINITION('','',#617,#613);
#610=PRODUCT_DEFINITION('','',#618,#614);
#611=PRODUCT_DEFINITION('','',#619,#615);
#612=DESIGN_CONTEXT('',#637,'design');
#613=DESIGN_CONTEXT('',#637,'design');
#614=DESIGN_CONTEXT('',#637,'design');
#615=DESIGN_CONTEXT('',#637,'design');
#616=PRODUCT_DEFINITION_FORMATION_WITH_SPECIFIED_SOURCE('','',#624,
 .NOT_KNOWN.);
#617=PRODUCT_DEFINITION_FORMATION_WITH_SPECIFIED_SOURCE('','',#625,
 .NOT_KNOWN.);
#618=PRODUCT_DEFINITION_FORMATION_WITH_SPECIFIED_SOURCE('','',#626,
 .NOT_KNOWN.);
#619=PRODUCT_DEFINITION_FORMATION_WITH_SPECIFIED_SOURCE('','',#627,
 .NOT_KNOWN.);
#620=PRODUCT_RELATED_PRODUCT_CATEGORY('','',(#624));
#621=PRODUCT_RELATED_PRODUCT_CATEGORY('','',(#625));
#622=PRODUCT_RELATED_PRODUCT_CATEGORY('','',(#626));
#623=PRODUCT_RELATED_PRODUCT_CATEGORY('','',(#627));
#624=PRODUCT('SKF_6007','SKF_6007','SKF_6007',(#632));
#625=PRODUCT('SKF_6007_ball1','SKF_6007_ball1','SKF_6007_ball1',(#633));
#626=PRODUCT('SKF_6007_or','SKF_6007_or','SKF_6007_or',(#634));
#627=PRODUCT('SKF_6007_ir','SKF_6007_ir','SKF_6007_ir',(#635));
#628=PRODUCT_CATEGORY('','');
#629=PRODUCT_CATEGORY('','');
#630=PRODUCT_CATEGORY('','');
#631=PRODUCT_CATEGORY('','');
#632=MECHANICAL_CONTEXT('',#637,'mechanical');
#633=MECHANICAL_CONTEXT('',#637,'mechanical');
#634=MECHANICAL_CONTEXT('',#637,'mechanical');
#635=MECHANICAL_CONTEXT('',#637,'mechanical');
#636=APPLICATION_PROTOCOL_DEFINITION('international standard',
'config_control_design',2010,#637);
#637=APPLICATION_CONTEXT(
'configuration controlled 3D designs of mechanical parts and assemblie
s');
ENDSEC;
END-ISO-10303-21;
